<?xml version="1.0" encoding="UTF-8"?>
<svg id="Layer_1" xmlns="http://www.w3.org/2000/svg" version="1.1" viewBox="0 0 32 32">
  <!-- Generator: Adobe Illustrator 30.1.0, SVG Export Plug-In . SVG Version: 2.1.1 Build 136)  -->
  <defs>
    <style>
      .st0 {
        fill: #58595b;
      }

      .st0, .st1 {
        fill-rule: evenodd;
      }

      .st2, .st3, .st4 {
        fill: #fff;
      }

      .st3 {
        fill-opacity: .9;
      }

      .st1 {
        fill: #0a144e;
      }

      .st4 {
        fill-opacity: .7;
      }
    </style>
  </defs>
  <path class="st2" d="M8.42,8.42c0-.93.75-1.68,1.68-1.68s1.68.75,1.68,1.68v15.16c0,.93-.75,1.68-1.68,1.68s-1.68-.75-1.68-1.68v-15.16Z"/>
  <path class="st3" d="M14.74,15.16c0-.93.75-1.68,1.68-1.68s1.68.75,1.68,1.68v8.42c0,.93-.75,1.68-1.68,1.68s-1.68-.75-1.68-1.68v-8.42Z" shape-rendering="crispEdges"/>
  <path class="st4" d="M21.05,10.95c0-.93.75-1.68,1.68-1.68s1.68.75,1.68,1.68v12.63c0,.93-.75,1.68-1.68,1.68s-1.68-.75-1.68-1.68v-12.63Z" shape-rendering="crispEdges"/>
  <g>
    <path class="st0" d="M32.04,18.14c-.08-.09-.14-.15-.23-.23-.37-.29-1.51-1.38-1.85-1.63-.23.17-.4.55-1.1.89-.51.25-1.13.31-1.74.16-2.19-.55-2.2-4.2.02-4.75.56-.14,1.22-.08,1.69.16.28.14.65.4.86.63.08.09.16.2.25.27l2.07-1.86c-.21-.34-.73-.79-1.07-1.02-3.22-2.13-8.79-.63-8.8,4.18-.01,4.87,5.62,6.31,8.78,4.22.37-.24.89-.68,1.1-1.03"/>
    <path class="st0" d="M7.02,19.96c.18-.03.98-.21,1.7-.68.39-.25.66-.48.98-.79.05-.07.23-.27.27-.35l-2.07-1.86c-.39.37-.49.6-1.1.89-1.32.66-3.35.05-3.36-2.19-.01-2.68,2.82-3.13,4.21-1.61.09.1.14.17.25.27l2.07-1.86c-.16-.3-.73-.78-1.04-1-.13-.09-.28-.18-.43-.27C5.34,8.8.3,10.28.11,14.66c-.07,1.4.34,2.64,1.22,3.65.13.15.26.22.35.37.12.09.21.16.33.26.12.09.22.15.35.24.15.11.56.35.77.41.91.3,1.26.47,2.33.48.71.02,1.17-.04,1.57-.12"/>
    <path class="st1" d="M14.26,17.29c.87.02,2.02.08,2.68-.3l.03-.02.03-.02.03-.02s.02-.01.03-.02c.01,0,.02-.01.03-.02l.03-.02.02-.02s.02-.01.02-.02l.02-.02s.02-.01.02-.02l.02-.02.02-.02s.02-.01.02-.02c0,0,.02-.01.02-.02l.02-.02.02-.02.02-.02.02-.02.02-.02s.01-.02.02-.02c0,0,.01-.02.02-.02l.02-.02s.01-.02.02-.02l.02-.02s.01-.02.02-.02c0,0,.01-.02.02-.03,0-.01.01-.02.02-.03,0-.01.01-.02.02-.03,0-.01.01-.02.02-.03,0-.01.01-.02.02-.03,0-.01.01-.02.02-.03,0-.01.01-.02.02-.03,0-.01.01-.02.02-.03,0-.01.01-.02.02-.03,0-.01.01-.02.01-.03s.01-.02.01-.03.01-.02.01-.03.01-.02.01-.03v-.03s.02-.02.03-.03c0-.01,0-.02.01-.03,0-.01,0-.02.01-.03h0s0-.02.01-.03,0-.02.01-.03v-.03s.02-.02.02-.03,0-.02.01-.03c0-.01,0-.02.01-.04v-.17h0v-.04h0v-.04h0v-.3h0v-.14h0v-.49h0v-.04h0v-.09h0v-.09s0-.02-.01-.04c0-.01,0-.02-.01-.04,0-.01,0-.02-.01-.03s0-.02-.01-.03v-.03s-.02-.02-.02-.03,0-.02-.01-.03,0-.02-.01-.03c0-.01,0-.02-.01-.03,0-.01,0-.02-.01-.03h0s-.01-.02-.01-.03-.01-.02-.01-.03-.01-.02-.01-.03v-.03s-.02-.02-.03-.03c0-.01-.01-.02-.02-.03,0-.01-.01-.02-.02-.03,0-.01-.01-.02-.02-.03,0-.01-.01-.02-.02-.03,0-.01-.01-.02-.02-.03,0-.01-.01-.02-.02-.03,0-.01-.01-.02-.02-.03,0-.01-.01-.02-.02-.03,0-.01-.01-.02-.02-.03,0-.01-.01-.02-.02-.02,0,0-.01-.02-.02-.02,0,0-.01-.02-.02-.02s-.01-.02-.02-.02c0,0-.01-.02-.02-.02h0s-.01-.02-.02-.02l-.02-.02-.02-.02-.02-.02h0l-.02-.02-.02-.02-.02-.02s-.02-.01-.02-.02c0,0-.02-.01-.02-.02l-.02-.02s-.02-.01-.02-.02c0,0-.02-.01-.02-.02l-.02-.02h0s-.02-.01-.02-.02l-.03-.02-.03-.02-.03-.02-.03-.02-.03-.02s-.02-.01-.03-.02c-.01,0-.02-.01-.03-.02-.01,0-.02-.01-.03-.02h0s-.02-.01-.03-.02c-.01,0-.02-.01-.03-.01s-.02-.01-.03-.01h0s-.02-.01-.03-.01-.02-.01-.03-.01-.02-.01-.03-.01-.02,0-.03-.01h0s-.02,0-.03-.01c-.01,0-.02,0-.04-.01s-.02,0-.04-.01h0s-.02,0-.04-.01c-.01,0-.02,0-.04-.01h-.04s-.02-.02-.04-.02h-.17s-.04-.01-.04-.01h-.04s-.04-.01-.04-.01h-.04s-.04-.01-.04-.01h-1.66l-.03,4.67h0v-.07ZM10.95,19.86c.58.04,3.03,0,3.81,0,1.3,0,2.26.02,3.43-.39,1.78-.62,3.15-2.14,3.16-4.5,0-2.39-1.36-3.89-3.13-4.53-1.15-.41-2.13-.39-3.42-.39-.78,0-3.27-.04-3.84,0v9.79h0v.02Z"/>
    <path class="st1" d="M32.04,18.14c-.08-.09-.14-.15-.23-.23-.37-.29-1.51-1.38-1.85-1.63-.23.17-.4.55-1.1.89-.51.25-1.13.31-1.74.16-2.19-.55-2.2-4.2.02-4.75.56-.14,1.22-.08,1.69.16.28.14.65.4.86.63.08.09.16.2.25.27l2.07-1.86c-.21-.34-.73-.79-1.07-1.02-3.22-2.13-8.79-.63-8.8,4.18-.01,4.87,5.62,6.31,8.78,4.22.37-.24.89-.68,1.1-1.03"/>
    <path class="st1" d="M7.02,19.96c.18-.03.98-.21,1.7-.68.39-.25.66-.48.98-.79.05-.07.23-.27.27-.35l-2.07-1.86c-.39.37-.49.6-1.1.89-1.32.66-3.35.05-3.36-2.19-.01-2.68,2.82-3.13,4.21-1.61.09.1.14.17.25.27l2.07-1.86c-.16-.3-.73-.78-1.04-1-.13-.09-.28-.18-.43-.27C5.34,8.8.3,10.28.11,14.66c-.07,1.4.34,2.64,1.22,3.65.13.15.26.22.35.37.12.09.21.16.33.26.12.09.22.15.35.24.15.11.56.35.77.41.91.3,1.26.47,2.33.48.71.02,1.17-.04,1.57-.12"/>
    <polygon class="st1" points="1.47 21.23 2.01 21.23 2.01 23.9 1.47 23.9 1.47 21.23 1.47 21.23"/>
    <path class="st1" d="M4.85,23.9h-.52v-.99c0-.21-.01-.35-.03-.4-.02-.07-.05-.11-.11-.14-.05-.03-.11-.05-.18-.05-.09,0-.17.02-.24.08-.08.04-.12.11-.14.2-.02.08-.04.23-.04.45v.88h-.52v-1.94h.48v.28c.17-.22.38-.33.64-.33.11,0,.22.02.31.07.1.04.17.09.22.15s.09.13.1.22c.02.08.03.2.03.35v1.19h.01Z"/>
    <path class="st1" d="M6.82,21.96v.41h-.35v.79c0,.16,0,.25.01.28,0,.02.02.04.04.07.02.02.05.02.09.02.04,0,.12-.01.21-.05l.04.4c-.12.05-.26.08-.4.08-.09,0-.17-.01-.25-.04s-.13-.08-.16-.12c-.03-.05-.05-.12-.08-.2-.01-.05-.01-.18-.01-.37v-.85h-.24v-.41h.24v-.39l.51-.3v.68s.35,0,.35,0Z"/>
    <path class="st1" d="M8.89,22.77c0-.15-.04-.26-.11-.34-.08-.08-.16-.12-.27-.12s-.21.04-.28.12c-.08.08-.11.2-.11.33h.77ZM8.86,23.29l.51.09c-.07.18-.17.33-.31.43-.14.1-.33.14-.53.14-.34,0-.59-.11-.75-.33-.13-.17-.2-.4-.2-.67,0-.31.09-.58.25-.75.16-.18.38-.27.64-.27.29,0,.51.1.68.28.16.18.25.49.24.88h-1.28c0,.15.04.27.12.35.08.09.17.13.29.13.08,0,.15-.02.2-.07.05-.04.1-.12.12-.22h.02Z"/>
    <path class="st1" d="M10.88,23.9h-.51v-1.93h.48v.27c.08-.13.15-.22.23-.25.07-.04.14-.07.23-.07.12,0,.23.03.34.1l-.16.45c-.09-.05-.16-.09-.24-.09s-.13.02-.18.05c-.05.04-.09.11-.12.22-.03.1-.04.31-.04.65v.6h-.01Z"/>
    <path class="st1" d="M14.18,23.9h-.52v-.99c0-.21-.01-.35-.03-.4-.02-.07-.05-.11-.11-.14-.05-.03-.11-.05-.18-.05-.09,0-.17.02-.24.08-.08.04-.12.11-.14.2-.02.08-.04.23-.04.45v.88h-.52v-1.94h.48v.28c.17-.22.38-.33.64-.33.11,0,.22.02.31.07.1.04.16.09.22.15.04.07.09.13.1.22.02.08.03.2.03.35v1.19h.01Z"/>
    <path class="st1" d="M16.32,22.98c-.07.02-.17.04-.31.08-.14.03-.24.07-.28.09-.07.04-.1.11-.1.18s.02.13.08.18c.05.05.12.08.21.08s.18-.03.27-.09c.07-.04.1-.1.12-.17.01-.04.02-.13.02-.25v-.1h0ZM15.63,22.57l-.47-.09c.05-.18.14-.33.27-.42.13-.09.31-.13.58-.13.23,0,.4.02.51.08.11.05.2.12.24.21.04.09.07.24.07.46v.6c0,.17,0,.29.02.37.01.08.04.16.09.26h-.51s-.03-.09-.05-.15c0-.03-.01-.05-.02-.05-.09.09-.18.15-.28.2s-.21.07-.31.07c-.21,0-.36-.05-.47-.16s-.17-.24-.17-.41c0-.11.02-.21.08-.29.05-.09.12-.15.22-.2s.23-.09.41-.12c.24-.04.4-.09.5-.13v-.05c0-.1-.02-.17-.08-.22s-.14-.07-.28-.07c-.09,0-.16.02-.22.05-.05.03-.09.1-.12.2h0v.02Z"/>
    <path class="st1" d="M18.79,21.96v.41h-.35v.79c0,.16,0,.25.01.28,0,.02.02.04.04.07.02.02.05.02.09.02.04,0,.12-.01.21-.05l.04.4c-.12.05-.26.08-.4.08-.09,0-.17-.01-.25-.04s-.13-.08-.16-.12c-.03-.05-.05-.12-.08-.2-.01-.05-.01-.18-.01-.37v-.85h-.24v-.41h.24v-.39l.51-.3v.68s.35,0,.35,0Z"/>
    <path class="st1" d="M19.71,23.9v-1.94h.51v1.94h-.51ZM19.71,21.7v-.48h.51v.48h-.51Z"/>
    <path class="st1" d="M21.72,22.94c0,.2.04.34.13.45.09.1.21.15.34.15s.25-.05.34-.15.13-.25.13-.45-.04-.34-.13-.43-.21-.15-.34-.15-.25.05-.34.15-.13.25-.13.45M21.19,22.91c0-.17.04-.34.13-.5s.21-.28.36-.37.33-.13.52-.13c.29,0,.53.1.73.28.18.18.28.43.28.73s-.1.54-.28.73c-.2.2-.42.29-.72.29-.18,0-.35-.04-.51-.12s-.28-.2-.37-.36-.12-.36-.12-.58h0l-.02.02Z"/>
    <path class="st1" d="M25.93,23.9h-.51v-.99c0-.21-.01-.35-.03-.4-.02-.07-.05-.11-.11-.14-.05-.03-.11-.05-.17-.05-.09,0-.17.02-.24.08-.08.04-.12.11-.14.2-.02.08-.04.23-.04.45v.88h-.51v-1.94h.48v.28c.17-.22.38-.33.64-.33.11,0,.22.02.31.07.1.04.16.09.22.15.04.07.09.13.1.22.02.08.03.2.03.35v1.19h-.02Z"/>
    <path class="st1" d="M28.08,22.98c-.07.02-.17.04-.31.08-.14.03-.24.07-.28.09-.07.04-.1.11-.1.18s.02.13.08.18.12.08.21.08.18-.03.26-.09c.07-.04.1-.1.12-.17.01-.04.02-.13.02-.25v-.1h.01ZM27.4,22.57l-.47-.09c.05-.18.14-.33.27-.42.13-.09.31-.13.56-.13.23,0,.4.02.51.08.11.05.18.12.24.21.04.09.07.24.07.46v.6c0,.17,0,.29.02.37.01.08.04.16.09.26h-.51s-.03-.09-.05-.15c0-.03-.01-.05-.02-.05-.09.09-.18.15-.28.2s-.21.07-.31.07c-.2,0-.36-.05-.47-.16s-.17-.24-.17-.41c0-.11.02-.21.08-.29s.12-.15.22-.2.23-.09.41-.12c.24-.04.4-.09.5-.13v-.05c0-.1-.02-.17-.08-.22s-.14-.07-.27-.07c-.09,0-.16.02-.22.05-.05.03-.09.1-.12.2h0v.02Z"/>
    <polygon class="st1" points="29.65 21.23 30.17 21.23 30.17 23.9 29.65 23.9 29.65 21.23 29.65 21.23"/>
  </g>
</svg>