<?xml version="1.0" encoding="UTF-8"?>
<svg id="Layer_1" xmlns="http://www.w3.org/2000/svg" version="1.1" viewBox="0 0 154 32">
  <!-- Generator: Adobe Illustrator 30.1.0, SVG Export Plug-In . SVG Version: 2.1.1 Build 136)  -->
  <defs>
    <style>
      .st0, .st1 {
        fill: #fff;
      }

      .st1 {
        fill-rule: evenodd;
      }

      .st2 {
        isolation: isolate;
      }
    </style>
  </defs>
  <path class="st1" d="M54.17,20.86c-.13-.15-.23-.26-.38-.38-.62-.49-2.54-2.33-3.1-2.75-.37.29-.69.94-1.84,1.5-.86.42-1.9.54-2.93.28-3.69-.93-3.71-7.08.03-8.01.94-.24,2.05-.13,2.85.27.48.23,1.11.69,1.44,1.06.14.15.27.34.42.47l3.49-3.12c-.35-.57-1.22-1.34-1.8-1.72-5.43-3.57-14.82-1.07-14.83,7.04-.02,8.21,9.48,10.63,14.81,7.11.63-.41,1.5-1.16,1.85-1.75"/>
  <path class="st1" d="M12.02,23.92c.3-.06,1.65-.35,2.88-1.15.66-.43,1.12-.82,1.64-1.34.09-.1.38-.45.47-.58l-3.5-3.12c-.66.62-.83,1-1.84,1.5-2.22,1.11-5.66.08-5.67-3.69-.02-4.52,4.76-5.26,7.1-2.71.15.17.23.3.42.47l3.49-3.12c-.28-.51-1.22-1.32-1.76-1.69-.22-.15-.48-.31-.73-.47C9.18,5.13.71,7.61.37,15.01c-.1,2.36.57,4.45,2.05,6.15.22.26.44.37.59.62.21.15.34.28.56.43.2.15.36.27.58.41.27.19.95.58,1.3.7,1.55.51,2.12.78,3.94.82,1.2.03,1.97-.07,2.65-.21"/>
  <path class="st1" d="M53.77,7.21v-1.42h.43l.26.97.26-.97h.43v1.42h-.27v-1.12l-.28,1.12h-.28l-.28-1.12v1.12s-.27,0-.27,0ZM52.87,7.21v-1.18h-.42v-.24h1.13v.24h-.42v1.18h-.29Z"/>
  <path class="st1" d="M24.23,19.42c1.47.05,3.4.14,4.53-.52l.05-.03.05-.03.05-.03s.03-.02.05-.03c.02-.01.03-.02.05-.03l.05-.03.05-.03s.03-.02.05-.03l.05-.03s.03-.02.05-.03l.05-.03.05-.03s.03-.02.05-.03c.01-.01.03-.02.05-.03l.05-.03s.02-.02.05-.03c.01-.01.02-.02.03-.03l.03-.05.03-.05s.02-.03.03-.05.02-.03.03-.05l.03-.05s.02-.03.03-.05l.03-.05s.02-.03.03-.05.02-.03.03-.05c.01-.02.02-.03.03-.05.01-.02.02-.03.03-.05,0-.02.02-.03.03-.05.01-.02.02-.03.03-.05.01-.02.02-.03.03-.05.01-.02.02-.03.03-.05.01-.02.02-.03.03-.05,0-.02.02-.03.03-.06,0-.02.02-.03.02-.06s.02-.03.02-.06.02-.03.02-.06.02-.03.02-.06l.02-.06s.01-.03.02-.06c0-.02.01-.03.02-.06,0-.02.01-.03.02-.06h0s.01-.05.02-.06.01-.05.02-.06l.02-.06s.01-.05.02-.06c0-.02.01-.05.02-.06,0-.02.01-.05.02-.07,0-.02.01-.05.01-.07s.01-.05.01-.07,0-.05.01-.07v-.07h.01s0-.05.01-.07h0s0-.05.01-.07h0s0-.05.01-.07v-.21s.01-.05.01-.07v-.16h0v-.24h0v-.48s-.01-.05-.01-.07v-.21s0-.05-.01-.07h0s0-.05-.01-.07h0s0-.05-.01-.07c0-.02,0-.05-.01-.07h0s0-.05-.01-.07c0-.02-.01-.05-.01-.07s-.01-.05-.02-.07c0-.02-.01-.05-.02-.07,0-.02-.01-.05-.02-.06s-.01-.05-.02-.06l-.02-.06s-.01-.05-.02-.06c0-.02-.01-.05-.02-.06s-.01-.05-.02-.06c0-.02-.01-.03-.02-.06,0-.02-.01-.03-.02-.06h0s-.02-.03-.02-.06-.02-.03-.02-.06-.02-.03-.02-.06l-.02-.06s-.02-.03-.02-.06-.02-.03-.03-.06-.02-.03-.03-.05c-.01-.02-.02-.03-.03-.05-.01-.02-.02-.03-.03-.05-.01-.02-.02-.03-.03-.05-.01-.02-.02-.03-.03-.05-.01-.02-.02-.03-.03-.05-.01-.02-.02-.03-.03-.05-.01-.02-.02-.03-.03-.05-.01-.02-.02-.03-.03-.05s-.02-.03-.03-.05-.02-.03-.03-.05-.02-.03-.03-.05-.02-.03-.03-.05h0s-.02-.03-.03-.05-.02-.02-.03-.05c-.01-.01-.02-.02-.03-.05l-.03-.03h0s-.02-.02-.05-.03c-.01-.01-.02-.02-.05-.03l-.05-.03s-.03-.02-.05-.03c-.01-.01-.03-.02-.05-.03l-.05-.03s-.03-.02-.05-.03c-.01-.01-.03-.02-.05-.03l-.05-.03h0s-.03-.02-.05-.03l-.05-.03-.05-.03-.05-.03-.05-.03-.05-.03s-.03-.02-.06-.03c-.02-.01-.03-.02-.06-.03-.02-.01-.03-.02-.06-.03h0s-.03-.02-.06-.03c-.02-.01-.03-.02-.06-.02s-.05-.02-.06-.02h0s-.05-.02-.06-.02c-.02,0-.05-.02-.06-.02-.02,0-.05-.02-.06-.02-.02,0-.05-.01-.06-.02h0s-.05-.01-.06-.02c-.02,0-.05-.01-.07-.02s-.05-.01-.07-.02h0s-.05-.01-.07-.02c-.02,0-.05-.01-.07-.02l-.07-.02h0s-.05-.01-.07-.02c-.02,0-.05-.01-.07-.01s-.05-.01-.07-.01h-.07l-.07-.02h-.07l-.07-.02h-.07l-.07-.02h-.14s-.07-.01-.07-.01h-.07s-.07-.01-.07-.01h-.07s-.07-.01-.07-.01h-.07s-.07-.01-.07-.01h-.07s-.07-.01-.07-.01h-2.06l-.06,7.86h0l-.06.09ZM18.64,23.75c.98.07,5.11.01,6.43.01,2.19,0,3.81.05,5.78-.65,3-1.05,5.31-3.6,5.32-7.58.01-4.02-2.29-6.54-5.27-7.63-1.94-.7-3.59-.66-5.76-.66-1.33,0-5.5-.07-6.47.01v16.5h-.01Z"/>
  <path class="st1" d="M54.17,20.86c-.13-.15-.23-.26-.38-.38-.62-.49-2.54-2.33-3.1-2.75-.37.29-.69.94-1.84,1.5-.86.42-1.9.54-2.93.28-3.69-.93-3.71-7.08.03-8.01.94-.24,2.05-.13,2.85.27.48.23,1.11.69,1.44,1.06.14.15.27.34.42.47l3.49-3.12c-.35-.57-1.22-1.34-1.8-1.72-5.43-3.57-14.82-1.07-14.83,7.04-.02,8.21,9.48,10.63,14.81,7.11.63-.41,1.5-1.16,1.85-1.75"/>
  <path class="st1" d="M12.02,23.92c.3-.06,1.65-.35,2.88-1.15.66-.43,1.12-.82,1.64-1.34.09-.1.38-.45.47-.58l-3.5-3.12c-.66.62-.83,1-1.84,1.5-2.22,1.11-5.66.08-5.67-3.69-.02-4.52,4.76-5.26,7.1-2.71.15.17.23.3.42.47l3.49-3.12c-.28-.51-1.22-1.32-1.76-1.69-.22-.15-.48-.31-.73-.47C9.18,5.13.71,7.61.37,15.01c-.1,2.36.57,4.45,2.05,6.15.22.26.44.37.59.62.21.15.34.28.56.43.2.15.36.27.58.41.27.19.95.58,1.3.7,1.55.51,2.12.78,3.94.82,1.2.03,1.97-.07,2.65-.21"/>
  <polygon class="st1" points="2.65 26.06 3.57 26.06 3.57 30.57 2.65 30.57 2.65 26.06 2.65 26.06"/>
  <path class="st1" d="M8.36,30.58h-.87v-1.67c0-.35-.02-.58-.06-.69-.03-.1-.09-.19-.19-.24-.08-.06-.19-.08-.3-.08-.15,0-.29.05-.41.13-.13.08-.2.19-.24.33-.05.14-.07.38-.07.75v1.48h-.87v-3.27h.8v.48c.29-.37.65-.55,1.08-.55.19,0,.37.03.54.1s.28.15.36.27c.08.1.14.23.17.36.03.14.05.33.05.58v2.03h.01Z"/>
  <path class="st1" d="M11.68,27.29v.69h-.59v1.33c0,.27,0,.42.02.47.01.05.03.08.08.12.05.03.08.05.15.05.08,0,.2-.02.35-.08l.07.68c-.2.08-.43.13-.69.13-.15,0-.29-.02-.42-.08s-.21-.13-.28-.2c-.06-.08-.09-.2-.13-.34-.02-.09-.02-.3-.02-.62v-1.43h-.4v-.69h.4v-.65l.87-.51v1.16h.58Z"/>
  <path class="st1" d="M15.17,28.67c0-.26-.07-.44-.19-.57-.13-.13-.27-.2-.45-.2s-.35.07-.47.21c-.13.14-.19.33-.17.56,0,0,1.28,0,1.28,0ZM15.11,29.53l.87.15c-.12.31-.29.56-.52.72-.24.16-.55.24-.9.24-.57,0-.99-.19-1.26-.56-.21-.3-.33-.68-.33-1.13,0-.54.14-.97.42-1.27s.64-.45,1.07-.45c.49,0,.87.16,1.15.49.28.31.42.82.41,1.48h-2.17c0,.26.07.45.21.59s.3.21.5.21c.14,0,.26-.03.34-.1.08-.08.16-.2.2-.36h0Z"/>
  <path class="st1" d="M18.51,30.57h-.87v-3.26h.8v.47c.14-.22.27-.36.37-.43.12-.07.23-.1.37-.1.2,0,.38.06.57.16l-.27.76c-.15-.09-.28-.14-.41-.14s-.23.03-.3.09c-.08.07-.15.19-.2.36s-.07.54-.07,1.09v1h0Z"/>
  <path class="st1" d="M24.08,30.58h-.87v-1.67c0-.35-.02-.58-.06-.69s-.09-.19-.19-.24c-.08-.06-.19-.08-.3-.08-.15,0-.29.05-.41.13-.13.08-.2.19-.24.33-.05.14-.07.38-.07.75v1.48h-.87v-3.27h.8v.48c.29-.37.65-.55,1.08-.55.19,0,.37.03.54.1s.28.15.36.27c.08.1.14.23.17.36.03.14.05.33.05.58v2.03h.01Z"/>
  <path class="st1" d="M27.7,29.01c-.12.03-.29.08-.52.14-.24.05-.4.1-.48.15-.12.08-.17.19-.17.3s.05.22.14.31c.09.08.2.14.35.14s.3-.05.45-.15c.1-.08.17-.17.21-.29.02-.07.03-.21.03-.42v-.17h-.01ZM26.53,28.31l-.78-.14c.08-.31.24-.55.45-.71.22-.15.54-.22.97-.22.38,0,.68.05.86.14s.33.21.4.35c.08.14.12.4.12.77v1c-.01.29,0,.5.03.63.02.14.08.28.15.43h-.86s-.05-.14-.08-.26c-.01-.05-.02-.08-.03-.09-.15.15-.3.26-.48.33-.16.07-.35.1-.54.1-.34,0-.61-.09-.79-.28s-.29-.41-.29-.69c0-.19.05-.35.14-.49.08-.14.21-.26.37-.33.16-.07.38-.14.69-.2.41-.07.69-.15.84-.21v-.08c0-.16-.05-.29-.13-.36s-.24-.1-.47-.1c-.15,0-.28.03-.36.09s-.15.17-.21.33h0Z"/>
  <path class="st1" d="M31.85,27.29v.69h-.59v1.33c0,.27,0,.42.02.47.01.05.03.08.08.12s.08.05.15.05c.08,0,.2-.02.35-.08l.07.68c-.2.08-.43.13-.69.13-.15,0-.29-.02-.42-.08s-.21-.13-.28-.2c-.06-.08-.09-.2-.13-.34-.02-.09-.02-.3-.02-.62v-1.43h-.4v-.69h.4v-.65l.87-.51v1.16h.58Z"/>
  <path class="st1" d="M33.4,30.57v-3.26h.86v3.26h-.86ZM33.4,26.85v-.79h.86v.79h-.86Z"/>
  <path class="st1" d="M36.79,28.94c0,.33.08.57.23.75s.35.26.57.26.41-.08.57-.26c.15-.17.23-.42.23-.75s-.07-.56-.23-.73c-.15-.17-.35-.26-.57-.26s-.42.08-.57.26-.23.42-.23.75M35.89,28.9c0-.29.07-.56.22-.84.14-.27.35-.48.61-.62s.55-.21.87-.21c.5,0,.9.16,1.22.49.31.31.48.73.48,1.22s-.16.91-.48,1.23c-.33.33-.72.49-1.21.49-.3,0-.58-.07-.86-.2-.27-.14-.48-.33-.62-.59-.14-.28-.21-.59-.21-.97h-.02Z"/>
  <path class="st1" d="M43.88,30.58h-.86v-1.67c0-.35-.02-.58-.06-.69s-.09-.19-.19-.24c-.08-.06-.19-.08-.3-.08-.15,0-.29.05-.41.13-.13.08-.2.19-.24.33s-.07.38-.07.75v1.48h-.86v-3.27h.8v.48c.29-.37.64-.55,1.08-.55.19,0,.37.03.52.1.16.07.28.15.36.27.08.1.14.23.17.36.03.14.05.33.05.58v2.03h0Z"/>
  <path class="st1" d="M47.51,29.01c-.1.03-.29.08-.52.14-.24.05-.4.1-.48.15-.1.08-.17.19-.17.3s.05.22.14.31c.09.08.2.14.34.14.15,0,.3-.05.44-.15.1-.08.17-.17.21-.29.02-.07.03-.21.03-.42v-.17h.01ZM46.35,28.31l-.78-.14c.08-.31.24-.55.45-.71.21-.15.54-.22.95-.22.38,0,.68.05.86.14s.31.21.4.35c.08.14.12.4.12.77v1c-.01.29,0,.5.03.63.02.14.08.28.15.43h-.86s-.05-.14-.08-.26c-.01-.05-.02-.08-.03-.09-.15.15-.3.26-.48.33-.16.07-.34.1-.54.1-.34,0-.61-.09-.79-.28s-.29-.41-.29-.69c0-.19.05-.35.14-.49.08-.14.21-.26.37-.33.16-.07.38-.14.69-.2.41-.07.68-.15.84-.21v-.08c0-.16-.05-.29-.13-.36s-.24-.1-.47-.1c-.15,0-.28.03-.36.09s-.15.17-.21.33h.01Z"/>
  <polygon class="st1" points="50.17 26.06 51.03 26.06 51.03 30.57 50.17 30.57 50.17 26.06 50.17 26.06"/>
  <g class="st2">
    <path class="st0" d="M67.97,24.2V7.92h3.08v16.28h-3.08Z"/>
    <path class="st0" d="M76.73,24.2h-3.08v-12.57h3.08v1.93h.04c.78-1.53,2-2.3,3.65-2.3,1.45,0,2.62.5,3.53,1.49.9.99,1.36,2.28,1.36,3.85v7.6h-3.08v-7.38c0-.77-.27-1.42-.81-1.97-.54-.54-1.18-.81-1.93-.81s-1.42.27-1.96.81c-.53.54-.8,1.2-.8,1.97v7.38Z"/>
    <path class="st0" d="M92.79,21.83c.68.04,1.23-.05,1.65-.29.42-.23.63-.54.63-.93,0-.36-.13-.65-.4-.87-.27-.22-.62-.37-1.05-.46-.43-.09-.91-.16-1.43-.23-.52-.07-1.04-.17-1.56-.3s-1-.33-1.44-.57c-.43-.25-.79-.63-1.05-1.16s-.4-1.17-.4-1.93c0-1.2.46-2.15,1.38-2.83.92-.69,2.15-1.03,3.68-1.03,1.89,0,3.56.49,5.01,1.48l-1.35,2.32c-.93-.71-2.15-1.06-3.67-1.07-1.29,0-1.93.38-1.94,1.13,0,.36.14.64.41.83.28.19.63.33,1.05.41.43.08.91.15,1.44.21.53.06,1.06.16,1.58.3s1,.34,1.43.6c.43.25.78.65,1.06,1.18.28.53.41,1.19.41,1.98,0,1.24-.52,2.21-1.56,2.91-1.04.7-2.34,1.04-3.88,1.04-2.04,0-3.82-.49-5.32-1.47l1.49-2.46c.96.71,2.24,1.11,3.83,1.2Z"/>
    <path class="st0" d="M100.65,10.16c-.36-.36-.54-.79-.54-1.28s.18-.92.54-1.28c.36-.36.79-.54,1.29-.54s.93.18,1.29.54c.35.36.53.79.53,1.28s-.18.92-.53,1.28c-.35.36-.78.54-1.29.54s-.94-.18-1.29-.54ZM100.4,11.63h3.08v12.57h-3.08v-12.57Z"/>
    <path class="st0" d="M119.14,11.63v10.46c0,2.03-.64,3.57-1.91,4.62-1.28,1.05-2.98,1.57-5.1,1.57-1.89,0-3.66-.5-5.29-1.52l1.45-2.5c1.27.83,2.55,1.24,3.84,1.24.62,0,1.22-.08,1.79-.25.57-.17,1.07-.44,1.5-.84s.64-.87.64-1.44v-.85l-.04-.04c-1.17,1.29-2.47,1.93-3.89,1.94-1.81,0-3.34-.62-4.6-1.85-1.26-1.23-1.89-2.75-1.89-4.56s.63-3.32,1.89-4.54c1.26-1.21,2.79-1.82,4.6-1.82,1.62,0,2.91.72,3.89,2.15h.04v-1.78h3.08ZM115.01,20.2c.7-.69,1.05-1.54,1.05-2.54s-.35-1.85-1.05-2.56c-.7-.71-1.56-1.06-2.57-1.06s-1.84.35-2.54,1.06c-.7.71-1.04,1.56-1.04,2.56s.35,1.85,1.04,2.54c.7.69,1.54,1.04,2.54,1.04s1.87-.35,2.57-1.04Z"/>
    <path class="st0" d="M124.83,24.2h-3.08V7.92h3.08v5.41h.06c.3-.55.77-1.03,1.41-1.45.64-.41,1.37-.62,2.19-.62,1.46,0,2.64.49,3.53,1.48.89.99,1.33,2.27,1.33,3.86v7.6h-3.08v-7.38c0-.77-.26-1.42-.79-1.97-.53-.54-1.17-.81-1.92-.81s-1.42.27-1.94.81c-.53.54-.79,1.2-.79,1.97v7.38Z"/>
    <path class="st0" d="M135.19,14.15v-2.52h1.16v-2.84h3.08v2.84h2.14v2.52h-2.14v6.73c0,.26.1.49.31.67.21.19.45.28.73.28.36,0,.63-.06.81-.18l.6,2.44c-.62.32-1.38.48-2.28.48-.97,0-1.75-.31-2.35-.92-.6-.61-.9-1.42-.9-2.4v-7.09h-1.16Z"/>
    <path class="st0" d="M148.4,21.83c.68.04,1.23-.05,1.65-.29.42-.23.63-.54.63-.93,0-.36-.13-.65-.4-.87-.27-.22-.62-.37-1.05-.46-.43-.09-.91-.16-1.43-.23-.52-.07-1.04-.17-1.56-.3s-1-.33-1.44-.57c-.43-.25-.79-.63-1.05-1.16s-.4-1.17-.4-1.93c0-1.2.46-2.15,1.38-2.83.92-.69,2.15-1.03,3.68-1.03,1.89,0,3.56.49,5.01,1.48l-1.35,2.32c-.93-.71-2.15-1.06-3.67-1.07-1.29,0-1.93.38-1.94,1.13,0,.36.14.64.41.83.28.19.63.33,1.05.41.43.08.91.15,1.44.21.53.06,1.06.16,1.58.3s1,.34,1.43.6c.43.25.78.65,1.06,1.18.28.53.41,1.19.41,1.98,0,1.24-.52,2.21-1.56,2.91-1.04.7-2.34,1.04-3.88,1.04-2.04,0-3.82-.49-5.32-1.47l1.49-2.46c.96.71,2.24,1.11,3.83,1.2Z"/>
  </g>
  <rect class="st0" x="60.48" y="1.14" width=".4" height="30.12"/>
</svg>