<?xml version="1.0" encoding="UTF-8"?>
<svg id="Layer_1" xmlns="http://www.w3.org/2000/svg" version="1.1" viewBox="0 0 360 216">
  <!-- Generator: Adobe Illustrator 30.1.0, SVG Export Plug-In . SVG Version: 2.1.1 Build 136)  -->
  <defs>
    <style>
      .st0 {
        fill: #041b7f;
      }

      .st0, .st1 {
        fill-rule: evenodd;
      }

      .st1 {
        fill: #ffd215;
      }
    </style>
  </defs>
  <path class="st0" d="M345.47,136.33c-.62-.77-1.17-1.29-1.94-1.9-3.11-2.42-12.72-11.67-15.52-13.72-1.88,1.44-3.42,4.7-9.21,7.49-4.31,2.09-9.52,2.67-14.66,1.38-18.45-4.64-18.57-35.4.18-40.09,4.74-1.2,10.22-.64,14.29,1.35,2.4,1.17,5.51,3.41,7.24,5.31.68.74,1.35,1.69,2.12,2.3l17.46-15.63c-1.72-2.85-6.1-6.69-9.05-8.63-27.16-17.9-74.16-5.34-74.22,35.24-.09,41.08,47.43,53.2,74.07,35.61,3.14-2.06,7.51-5.8,9.24-8.72"/>
  <path class="st0" d="M134.61,151.67c1.54-.31,8.25-1.72,14.38-5.77,3.29-2.15,5.6-4.05,8.22-6.69.49-.52,1.94-2.27,2.31-2.92l-17.52-15.62c-3.33,3.07-4.13,5-9.21,7.49-11.15,5.55-28.29.43-28.39-18.47-.09-22.58,23.83-26.33,35.5-13.56.77.86,1.17,1.5,2.09,2.33l17.49-15.62c-1.42-2.58-6.13-6.6-8.77-8.44-1.11-.77-2.4-1.6-3.69-2.3-26.66-14.42-69.09-2.02-70.75,34.98-.52,11.84,2.86,22.25,10.22,30.78,1.08,1.26,2.19,1.84,2.96,3.07,1.05.77,1.69,1.41,2.77,2.18,1.02.74,1.82,1.32,2.89,2.06,1.32.92,4.8,2.88,6.5,3.5,7.73,2.55,10.62,3.9,19.7,4.05,5.97.15,9.85-.37,13.3-1.04"/>
  <path class="st1" d="M2.26,30.54c3.94.43,8.68.92,12.49,1.75,3.85.83,7.51,1.96,11.05,3.28,8.8,3.22,15.94,7.6,22.68,12.84l3.88,3.28c1.23,1.32,2.46,2.18,3.69,3.49l3.42,3.74c1.29,1.32,3.51,4.38,4.74,5.95.89,1.13.8.89.43,2.54-.8,3.77-2,8.15-2.55,11.92l8-5.67c.8.98,3.2,5.09,4.03,6.62l.77,1.04c.58-3.56,1.38-7.17,2.03-10.79.25-1.32.03-1.44,1.11-2.05l6.25-3.43c12.74-6.47,27.97-9.66,42.68-8.71,7.26.46,9.91.98,16.43,2.88,1.23.37,3.97,1.26,5.08,1.32-11.45-4.51-22.68-8.06-35.08-10.21-24.22-4.14-37.21,1.23-38.38,1.1-.46-.03-.65-.34-.95-.58-.31-.25-.49-.4-.83-.67-1.6-1.32-4.86-3.56-6.71-4.63-13.79-8.15-26.93-11.53-43.12-13.64-3.32-.43-6.83-.89-10.19-1.1l-10.96-.28h0Z"/>
  <path class="st0" d="M343.38,68.09v-7.08h2.15l1.26,4.85,1.26-4.85h2.15v7.08h-1.32v-5.58l-1.42,5.58h-1.38l-1.38-5.58v5.58h-1.32ZM338.92,68.09v-5.89h-2.09v-1.2h5.63v1.2h-2.09v5.89h-1.45Z"/>
  <path class="st0" d="M195.63,129.17c7.32.21,17.01.67,22.64-2.61l.25-.15.25-.15.25-.15c.09-.06.15-.09.25-.15.09-.06.15-.09.25-.15l.25-.15.22-.15c.06-.06.15-.12.22-.15l.22-.18c.06-.06.15-.12.22-.18l.22-.18.22-.18c.06-.06.15-.12.22-.18.06-.06.15-.12.22-.18l.22-.18c.06-.06.12-.12.22-.18.06-.06.12-.12.18-.18l.18-.21.18-.21c.06-.06.12-.15.18-.21.06-.06.12-.15.18-.21l.18-.21c.06-.06.12-.15.18-.21l.18-.21c.06-.06.12-.15.18-.21.06-.06.12-.15.18-.25.06-.09.12-.15.15-.25.06-.09.12-.15.15-.25.03-.09.09-.15.15-.25.06-.09.09-.15.15-.25.06-.09.09-.15.15-.25.06-.09.09-.18.15-.25.06-.09.09-.18.15-.25.03-.09.09-.18.15-.28.03-.09.09-.18.12-.28.03-.09.09-.18.12-.28.03-.09.09-.18.12-.28s.09-.18.12-.28l.12-.28c.03-.09.06-.18.12-.28.03-.09.06-.18.12-.31.03-.09.06-.18.09-.31h0c.03-.09.06-.21.09-.31s.06-.21.09-.31l.09-.31c.03-.09.06-.21.09-.31.03-.09.06-.21.09-.31.03-.12.06-.21.09-.34.03-.12.06-.21.06-.34.03-.12.06-.21.06-.34.03-.12.03-.21.06-.34l.06-.34h0c.03-.12.03-.25.06-.34h0c.03-.12.03-.25.06-.37h0c.03-.12.03-.25.06-.37s.03-.25.03-.37.03-.25.03-.37l.03-.37c0-.12.03-.25.03-.37s.03-.25.03-.4c0-.12,0-.25.03-.4h0v-1.2h0v-1.2c0-.12,0-.25-.03-.4,0-.12,0-.25-.03-.4l-.03-.37c0-.12-.03-.25-.03-.37s-.03-.25-.03-.37-.03-.25-.03-.37-.03-.25-.03-.37c-.03-.12-.03-.25-.06-.37h0c-.03-.12-.03-.25-.06-.34h0c-.03-.12-.03-.25-.06-.34-.03-.12-.03-.21-.06-.34h0c-.03-.12-.03-.21-.06-.34-.03-.12-.06-.21-.06-.34-.03-.12-.06-.21-.09-.34-.03-.12-.06-.21-.09-.34-.03-.09-.06-.21-.09-.31s-.06-.21-.09-.31l-.09-.31c-.03-.09-.06-.21-.09-.31-.03-.09-.06-.21-.09-.31-.03-.09-.06-.21-.12-.31-.03-.09-.06-.18-.12-.31-.03-.09-.06-.18-.12-.28h0c-.03-.09-.09-.18-.12-.28-.03-.09-.09-.18-.12-.28-.03-.09-.09-.18-.12-.28l-.12-.28c-.03-.09-.09-.18-.12-.28-.03-.09-.09-.18-.15-.28-.06-.09-.09-.18-.15-.25-.06-.09-.09-.18-.15-.25-.06-.09-.09-.18-.15-.25-.06-.09-.09-.15-.15-.25-.06-.09-.09-.15-.15-.25-.06-.09-.12-.15-.15-.25-.06-.09-.12-.15-.15-.25-.06-.09-.12-.15-.15-.25-.06-.09-.12-.15-.18-.21-.06-.06-.12-.15-.18-.21-.06-.06-.12-.15-.18-.21-.06-.06-.12-.15-.18-.21-.06-.06-.12-.15-.18-.21h0c-.06-.06-.12-.15-.18-.21-.06-.06-.12-.12-.18-.21-.06-.06-.12-.12-.18-.21l-.18-.18h0c-.06-.06-.12-.12-.22-.18-.06-.06-.12-.12-.22-.18l-.22-.18c-.06-.06-.15-.12-.22-.18-.06-.06-.15-.12-.22-.18l-.22-.18c-.06-.06-.15-.12-.22-.18-.06-.06-.15-.12-.22-.15l-.22-.15h0c-.06-.06-.15-.09-.22-.15l-.25-.15-.25-.15-.25-.15-.25-.15-.25-.15c-.09-.06-.18-.09-.28-.15-.09-.06-.18-.09-.28-.15-.09-.06-.18-.09-.28-.15h0c-.09-.06-.18-.09-.31-.15-.09-.06-.18-.09-.31-.12-.09-.03-.22-.09-.31-.12h0c-.09-.03-.22-.09-.31-.12-.09-.03-.22-.09-.31-.12-.09-.03-.22-.09-.31-.12-.09-.03-.22-.06-.31-.12h0c-.09-.03-.22-.06-.31-.09-.12-.03-.22-.06-.34-.09-.12-.03-.22-.06-.34-.09h0c-.12-.03-.22-.06-.34-.09-.12-.03-.22-.06-.34-.09l-.34-.09h0c-.12-.03-.22-.06-.34-.09-.12-.03-.22-.06-.34-.06-.12-.03-.25-.06-.34-.06l-.34-.06-.34-.06-.37-.06-.37-.06-.37-.06h0l-.37-.06h0l-.37-.03-.37-.03-.37-.03-.37-.03h0l-.37-.03-.37-.03-.37-.03-.37-.03-.37-.03-.37-.03-.37-.03h-10.34l-.28,39.32h0ZM167.66,150.86c4.89.37,25.57.06,32.12.06,10.95,0,19.05.21,28.89-3.25,15.01-5.24,26.55-18,26.61-37.94.06-20.09-11.45-32.76-26.4-38.12-9.72-3.5-17.94-3.31-28.83-3.31-6.61,0-27.51-.34-32.37.06l-.03,82.5h0Z"/>
  <path class="st0" d="M345.47,136.33c-.62-.77-1.17-1.29-1.94-1.9-3.11-2.42-12.72-11.67-15.52-13.72-1.88,1.44-3.42,4.7-9.21,7.49-4.31,2.09-9.52,2.67-14.66,1.38-18.45-4.64-18.57-35.4.18-40.09,4.74-1.2,10.22-.64,14.29,1.35,2.4,1.17,5.51,3.41,7.24,5.31.68.74,1.35,1.69,2.12,2.3l17.46-15.63c-1.72-2.85-6.1-6.69-9.05-8.63-27.16-17.9-74.16-5.34-74.22,35.24-.09,41.08,47.43,53.2,74.07,35.61,3.14-2.06,7.51-5.8,9.24-8.72"/>
  <path class="st0" d="M134.61,151.67c1.54-.31,8.25-1.72,14.38-5.77,3.29-2.15,5.6-4.05,8.22-6.69.49-.52,1.94-2.27,2.31-2.92l-17.52-15.62c-3.33,3.07-4.13,5-9.21,7.49-11.15,5.55-28.29.43-28.39-18.47-.09-22.58,23.83-26.33,35.5-13.56.77.86,1.17,1.5,2.09,2.33l17.49-15.62c-1.42-2.58-6.13-6.6-8.77-8.44-1.11-.77-2.4-1.6-3.69-2.3-26.66-14.42-69.09-2.02-70.75,34.98-.52,11.84,2.86,22.25,10.22,30.78,1.08,1.26,2.19,1.84,2.96,3.07,1.05.77,1.69,1.41,2.77,2.18,1.02.74,1.82,1.32,2.89,2.06,1.32.92,4.8,2.88,6.5,3.5,7.73,2.55,10.62,3.9,19.7,4.05,5.97.15,9.85-.37,13.3-1.04"/>
  <path class="st1" d="M2.26,30.54c3.94.43,8.68.92,12.49,1.75,3.85.83,7.51,1.96,11.05,3.28,8.8,3.22,15.94,7.6,22.68,12.84l3.88,3.28c1.23,1.32,2.46,2.18,3.69,3.49l3.42,3.74c1.29,1.32,3.51,4.38,4.74,5.95.89,1.13.8.89.43,2.54-.8,3.77-2,8.15-2.55,11.92l8-5.67c.8.98,3.2,5.09,4.03,6.62l.77,1.04c.58-3.56,1.38-7.17,2.03-10.79.25-1.32.03-1.44,1.11-2.05l6.25-3.43c12.74-6.47,27.97-9.66,42.68-8.71,7.26.46,9.91.98,16.43,2.88,1.23.37,3.97,1.26,5.08,1.32-11.45-4.51-22.68-8.06-35.08-10.21-24.22-4.14-37.21,1.23-38.38,1.1-.46-.03-.65-.34-.95-.58-.31-.25-.49-.4-.83-.67-1.6-1.32-4.86-3.56-6.71-4.63-13.79-8.15-26.93-11.53-43.12-13.64-3.32-.43-6.83-.89-10.19-1.1l-10.96-.28h0Z"/>
  <polygon class="st0" points="87.69 162.37 92.29 162.37 92.29 184.9 87.69 184.9 87.69 162.37 87.69 162.37"/>
  <path class="st0" d="M116.24,184.94h-4.35v-8.33c0-1.75-.09-2.92-.28-3.41-.19-.52-.49-.92-.93-1.2-.43-.28-.93-.43-1.51-.43-.77,0-1.45.22-2.04.61-.62.4-1.02.95-1.23,1.63-.22.68-.34,1.94-.34,3.75v7.41h-4.35v-16.38h4.01v2.4c1.45-1.84,3.24-2.74,5.43-2.74.96,0,1.85.18,2.65.52.8.34,1.42.77,1.82,1.32.4.52.71,1.14.86,1.81.15.68.25,1.66.25,2.92v10.11h0Z"/>
  <path class="st0" d="M132.84,168.57v3.44h-2.95v6.64c0,1.35.03,2.12.09,2.34.06.22.18.4.4.55.22.15.43.22.74.22.4,0,.98-.12,1.75-.43l.37,3.35c-1.02.43-2.15.65-3.42.65-.77,0-1.48-.12-2.09-.4-.62-.28-1.08-.61-1.39-1.01-.31-.43-.49-.98-.62-1.69-.09-.49-.12-1.54-.12-3.07v-7.16h-2v-3.44h2v-3.26l4.34-2.55v5.81h2.89v.03h0Z"/>
  <path class="st0" d="M150.32,175.39c-.03-1.26-.34-2.21-.95-2.85-.62-.64-1.35-.98-2.25-.98-.95,0-1.72.34-2.34,1.04-.62.67-.92,1.62-.89,2.79h6.43ZM150.04,179.75l4.34.74c-.55,1.56-1.45,2.79-2.62,3.62-1.2.83-2.71,1.23-4.49,1.23-2.86,0-4.96-.92-6.31-2.79-1.08-1.5-1.63-3.37-1.63-5.64,0-2.7.71-4.84,2.12-6.34,1.42-1.53,3.2-2.3,5.39-2.3,2.43,0,4.34.8,5.76,2.42,1.42,1.59,2.09,4.08,2.03,7.39h-10.83c.03,1.29.37,2.27,1.05,2.97.68.71,1.51,1.07,2.49,1.07.68,0,1.26-.18,1.69-.55.43-.4.8-.98,1.02-1.81h0Z"/>
  <path class="st0" d="M167.05,184.9h-4.34v-16.31h4v2.33c.68-1.1,1.32-1.81,1.88-2.14.55-.34,1.17-.52,1.88-.52.99,0,1.94.28,2.86.83l-1.36,3.76c-.74-.46-1.42-.7-2.03-.7s-1.14.15-1.54.49c-.43.34-.74.92-.99,1.81-.25.86-.37,2.69-.37,5.45v5.02h0Z"/>
  <path class="st0" d="M194.87,184.94h-4.35v-8.33c0-1.75-.09-2.92-.28-3.41-.19-.52-.49-.92-.93-1.2-.43-.28-.93-.43-1.51-.43-.77,0-1.45.22-2.04.61-.62.4-1.02.95-1.23,1.63-.22.68-.34,1.94-.34,3.75v7.41h-4.35v-16.38h4.01v2.4c1.45-1.84,3.24-2.74,5.43-2.74.96,0,1.85.18,2.65.52.8.34,1.39.77,1.82,1.32.4.52.71,1.14.86,1.81.15.68.25,1.66.25,2.92v10.11h0Z"/>
  <path class="st0" d="M213,177.11c-.55.18-1.45.4-2.65.67-1.2.25-2,.52-2.37.74-.55.4-.86.92-.86,1.53s.22,1.13.68,1.56c.46.43,1.02.67,1.73.67.77,0,1.54-.25,2.25-.77.52-.4.86-.86,1.05-1.44.12-.37.15-1.07.15-2.12v-.86h.03ZM207.17,173.62l-3.91-.71c.43-1.59,1.2-2.76,2.28-3.52,1.08-.77,2.68-1.13,4.81-1.13,1.94,0,3.39.21,4.31.67.95.46,1.6,1.04,2,1.75.4.7.59,1.99.59,3.86l-.06,5.03c0,1.44.06,2.48.22,3.16.12.67.4,1.41.77,2.18h-4.31c-.12-.28-.25-.71-.43-1.26-.06-.25-.12-.43-.15-.49-.74.74-1.54,1.26-2.37,1.62-.83.37-1.72.55-2.68.55-1.69,0-3.02-.46-3.97-1.38-.96-.92-1.45-2.05-1.45-3.46,0-.92.22-1.75.68-2.45.43-.71,1.05-1.29,1.85-1.66s1.94-.71,3.45-1.01c2.03-.37,3.42-.74,4.22-1.07v-.43c0-.83-.22-1.44-.62-1.81-.43-.37-1.2-.52-2.34-.52-.77,0-1.39.15-1.82.46s-.77.86-1.05,1.62h0Z"/>
  <path class="st0" d="M233.78,168.57v3.44h-2.95v6.64c0,1.35.03,2.12.09,2.34.06.22.18.4.4.55.22.15.43.22.74.22.4,0,.98-.12,1.75-.43l.37,3.35c-1.02.43-2.15.65-3.42.65-.77,0-1.48-.12-2.09-.4-.62-.28-1.08-.61-1.39-1.01-.31-.43-.49-.98-.62-1.69-.09-.49-.12-1.54-.12-3.07v-7.16h-2v-3.44h2v-3.26l4.34-2.55v5.81h2.89v.03h0Z"/>
  <path class="st0" d="M241.55,184.9v-16.34h4.32v16.34h-4.32ZM241.55,166.36v-3.98h4.32v3.98h-4.32Z"/>
  <path class="st0" d="M258.49,176.78c0,1.63.4,2.85,1.14,3.71.77.86,1.73,1.29,2.87,1.29s2.07-.43,2.84-1.29c.77-.86,1.14-2.12,1.14-3.74s-.37-2.82-1.14-3.68c-.77-.86-1.73-1.29-2.84-1.29s-2.1.43-2.87,1.29c-.77.86-1.14,2.09-1.14,3.71M254.01,176.56c0-1.44.34-2.82,1.08-4.17.71-1.35,1.73-2.36,3.02-3.07,1.3-.71,2.74-1.07,4.35-1.07,2.5,0,4.5.8,6.11,2.42,1.57,1.59,2.37,3.65,2.37,6.1s-.8,4.54-2.41,6.16c-1.6,1.63-3.61,2.45-6.04,2.45-1.51,0-2.93-.34-4.32-1.01-1.36-.67-2.41-1.66-3.11-2.97-.71-1.38-1.05-2.97-1.05-4.85h0Z"/>
  <path class="st0" d="M293.97,184.94h-4.33v-8.33c0-1.75-.09-2.92-.28-3.41-.18-.52-.49-.92-.92-1.2s-.92-.43-1.5-.43c-.77,0-1.44.22-2.03.61-.61.4-1.01.95-1.23,1.63-.21.68-.34,1.94-.34,3.75v7.41h-4.33v-16.38h3.99v2.4c1.44-1.84,3.22-2.74,5.4-2.74.95,0,1.84.18,2.64.52.8.34,1.38.77,1.81,1.32.4.52.71,1.14.86,1.81.15.68.25,1.66.25,2.92v10.11h0Z"/>
  <path class="st0" d="M312.12,177.11c-.55.18-1.44.4-2.64.67-1.2.25-1.99.52-2.36.74-.55.4-.86.92-.86,1.53s.21,1.13.67,1.56c.46.43,1.01.67,1.72.67.77,0,1.53-.25,2.24-.77.52-.4.86-.86,1.04-1.44.12-.37.15-1.07.15-2.12v-.86h.03ZM306.33,173.62l-3.89-.71c.43-1.59,1.2-2.76,2.27-3.52,1.07-.77,2.67-1.13,4.78-1.13,1.93,0,3.37.21,4.29.67.95.46,1.59,1.04,1.99,1.75.4.7.58,1.99.58,3.86l-.06,5.03c0,1.44.06,2.48.21,3.16.12.67.4,1.41.77,2.18h-4.29c-.12-.28-.25-.71-.43-1.26-.06-.25-.12-.43-.15-.49-.74.74-1.53,1.26-2.36,1.62-.83.37-1.72.55-2.67.55-1.69,0-3-.46-3.96-1.38-.95-.92-1.44-2.05-1.44-3.46,0-.92.21-1.75.67-2.45.43-.71,1.04-1.29,1.84-1.66s1.93-.71,3.43-1.01c2.02-.37,3.4-.74,4.2-1.07v-.43c0-.83-.21-1.44-.61-1.81-.43-.37-1.2-.52-2.33-.52-.77,0-1.38.15-1.81.46-.43.31-.77.86-1.04,1.62h0Z"/>
  <polygon class="st0" points="325.42 162.37 329.74 162.37 329.74 184.9 325.42 184.9 325.42 162.37 325.42 162.37"/>
</svg>