<?xml version="1.0" encoding="UTF-8"?>
<svg id="Layer_1" xmlns="http://www.w3.org/2000/svg" version="1.1" viewBox="0 0 360 216">
  <!-- Generator: Adobe Illustrator 30.1.0, SVG Export Plug-In . SVG Version: 2.1.1 Build 136)  -->
  <defs>
    <style>
      .st0 {
        fill: #041b7f;
      }

      .st0, .st1 {
        fill-rule: evenodd;
      }

      .st1 {
        fill: #ffd215;
      }
    </style>
  </defs>
  <path class="st0" d="M301.83,169c-.54-.67-1.02-1.13-1.7-1.66-2.72-2.12-11.12-10.2-13.57-12-1.64,1.26-2.99,4.11-8.05,6.55-3.77,1.83-8.32,2.34-12.82,1.21-16.13-4.05-16.24-30.95.16-35.06,4.15-1.05,8.94-.56,12.49,1.18,2.1,1.02,4.82,2.98,6.33,4.64.59.64,1.18,1.48,1.86,2.01l15.27-13.66c-1.51-2.5-5.33-5.85-7.92-7.54-23.75-15.65-64.84-4.67-64.89,30.81-.08,35.91,41.47,46.52,64.76,31.14,2.75-1.8,6.57-5.07,8.08-7.62"/>
  <path class="st0" d="M117.47,182.4c1.35-.27,7.21-1.5,12.57-5.04,2.88-1.88,4.9-3.54,7.19-5.85.43-.46,1.7-1.99,2.02-2.55l-15.32-13.66c-2.91,2.68-3.61,4.37-8.05,6.55-9.75,4.86-24.74.38-24.82-16.15-.08-19.75,20.84-23.02,31.04-11.86.67.75,1.02,1.31,1.83,2.04l15.29-13.66c-1.24-2.25-5.36-5.77-7.67-7.38-.97-.67-2.1-1.39-3.23-2.01-23.31-12.61-60.41-1.77-61.86,30.58-.46,10.36,2.5,19.45,8.94,26.91.94,1.1,1.91,1.61,2.58,2.68.92.67,1.48,1.23,2.42,1.9.89.64,1.59,1.15,2.53,1.8,1.16.8,4.2,2.52,5.68,3.06,6.76,2.23,9.29,3.41,17.23,3.54,5.22.13,8.61-.32,11.63-.91"/>
  <path class="st1" d="M1.75,76.5c3.44.38,7.59.8,10.92,1.53,3.36.72,6.57,1.72,9.66,2.87,7.7,2.81,13.94,6.65,19.83,11.23l3.39,2.87c1.08,1.15,2.15,1.9,3.23,3.06l2.99,3.27c1.13,1.15,3.07,3.83,4.14,5.2.78.99.7.78.38,2.22-.7,3.3-1.75,7.13-2.23,10.43l7-4.96c.7.86,2.8,4.45,3.52,5.79l.67.91c.51-3.11,1.21-6.27,1.78-9.43.22-1.15.03-1.26.97-1.8l5.46-3c11.14-5.66,24.46-8.44,37.32-7.61,6.35.4,8.66.86,14.37,2.52,1.08.32,3.47,1.1,4.44,1.15-10.01-3.94-19.83-7.05-30.67-8.92-21.18-3.62-32.53,1.07-33.55.96-.4-.03-.57-.29-.83-.51-.27-.21-.43-.35-.73-.59-1.4-1.15-4.25-3.11-5.87-4.05-12.05-7.13-23.54-10.08-37.7-11.93-2.91-.38-5.97-.78-8.91-.96l-9.58-.24h0Z"/>
  <path class="st0" d="M300.01,109.33v-6.19h1.88l1.1,4.24,1.1-4.24h1.88v6.19h-1.16v-4.88l-1.24,4.88h-1.21l-1.21-4.88v4.88h-1.16ZM296.1,109.33v-5.15h-1.83v-1.05h4.92v1.05h-1.83v5.15h-1.26Z"/>
  <path class="st0" d="M170.82,162.74c6.4.19,14.88.59,19.8-2.28l.22-.13.22-.13.22-.13c.08-.05.13-.08.22-.13.08-.05.13-.08.22-.13l.22-.13.19-.13c.05-.05.13-.11.19-.13l.19-.16c.05-.05.13-.11.19-.16l.19-.16.19-.16c.05-.05.13-.11.19-.16.05-.05.13-.11.19-.16l.19-.16c.05-.05.11-.11.19-.16.05-.05.11-.11.16-.16l.16-.19.16-.19c.05-.05.11-.13.16-.19.05-.05.11-.13.16-.19l.16-.19c.05-.05.11-.13.16-.19l.16-.19c.05-.05.11-.13.16-.19.05-.05.11-.13.16-.21.05-.08.11-.13.13-.21.05-.08.11-.13.13-.21.03-.08.08-.13.13-.21.05-.08.08-.13.13-.21.05-.08.08-.13.13-.21.05-.08.08-.16.13-.21.05-.08.08-.16.13-.21.03-.08.08-.16.13-.24.03-.08.08-.16.11-.24.03-.08.08-.16.11-.24.03-.08.08-.16.11-.24s.08-.16.11-.24l.11-.24c.03-.08.05-.16.11-.24.03-.08.05-.16.11-.27.03-.08.05-.16.08-.27h0c.03-.08.05-.19.08-.27s.05-.19.08-.27l.08-.27c.03-.08.05-.19.08-.27.03-.08.05-.19.08-.27.03-.11.05-.19.08-.29.03-.11.05-.19.05-.3.03-.11.05-.19.05-.29.03-.11.03-.19.05-.3l.05-.29h0c.03-.11.03-.21.05-.3h0c.03-.11.03-.21.05-.32h0c.03-.11.03-.21.05-.32s.03-.21.03-.32.03-.21.03-.32l.03-.32c0-.11.03-.21.03-.32s.03-.21.03-.35c0-.11,0-.21.03-.35h0v-1.05h0v-1.05c0-.11,0-.21-.03-.35,0-.11,0-.21-.03-.35l-.03-.32c0-.11-.03-.21-.03-.32s-.03-.21-.03-.32-.03-.21-.03-.32-.03-.21-.03-.32c-.03-.11-.03-.21-.05-.32h0c-.03-.11-.03-.21-.05-.3h0c-.03-.11-.03-.21-.05-.29-.03-.11-.03-.19-.05-.3h0c-.03-.11-.03-.19-.05-.29-.03-.11-.05-.19-.05-.3-.03-.11-.05-.19-.08-.29-.03-.11-.05-.19-.08-.3-.03-.08-.05-.19-.08-.27s-.05-.19-.08-.27l-.08-.27c-.03-.08-.05-.19-.08-.27-.03-.08-.05-.19-.08-.27-.03-.08-.05-.19-.11-.27-.03-.08-.05-.16-.11-.27-.03-.08-.05-.16-.11-.24h0c-.03-.08-.08-.16-.11-.24-.03-.08-.08-.16-.11-.24-.03-.08-.08-.16-.11-.24l-.11-.24c-.03-.08-.08-.16-.11-.24-.03-.08-.08-.16-.13-.24-.05-.08-.08-.16-.13-.21-.05-.08-.08-.16-.13-.21-.05-.08-.08-.16-.13-.21-.05-.08-.08-.13-.13-.21-.05-.08-.08-.13-.13-.21-.05-.08-.11-.13-.13-.21-.05-.08-.11-.13-.13-.21-.05-.08-.11-.13-.13-.21-.05-.08-.11-.13-.16-.19-.05-.05-.11-.13-.16-.19-.05-.05-.11-.13-.16-.19-.05-.05-.11-.13-.16-.19-.05-.05-.11-.13-.16-.19h0c-.05-.05-.11-.13-.16-.19-.05-.05-.11-.11-.16-.19-.05-.05-.11-.11-.16-.19l-.16-.16h0c-.05-.05-.11-.11-.19-.16-.05-.05-.11-.11-.19-.16l-.19-.16c-.05-.05-.13-.11-.19-.16-.05-.05-.13-.11-.19-.16l-.19-.16c-.05-.05-.13-.11-.19-.16-.05-.05-.13-.11-.19-.13l-.19-.13h0c-.05-.05-.13-.08-.19-.13l-.22-.13-.22-.13-.22-.13-.22-.13-.22-.13c-.08-.05-.16-.08-.24-.13-.08-.05-.16-.08-.24-.13-.08-.05-.16-.08-.24-.13h0c-.08-.05-.16-.08-.27-.13-.08-.05-.16-.08-.27-.11-.08-.03-.19-.08-.27-.11h0c-.08-.03-.19-.08-.27-.11-.08-.03-.19-.08-.27-.11-.08-.03-.19-.08-.27-.11-.08-.03-.19-.05-.27-.11h0c-.08-.03-.19-.05-.27-.08-.11-.03-.19-.05-.3-.08-.11-.03-.19-.05-.3-.08h0c-.11-.03-.19-.05-.3-.08-.11-.03-.19-.05-.3-.08l-.3-.08h0c-.11-.03-.19-.05-.3-.08-.11-.03-.19-.05-.3-.05-.11-.03-.22-.05-.3-.05l-.3-.05-.3-.05-.32-.05-.32-.05-.32-.05h0l-.32-.05h0l-.32-.03-.32-.03-.32-.03-.32-.03h0l-.32-.03-.32-.03-.32-.03-.32-.03-.32-.03-.32-.03-.32-.03h-9.04l-.24,34.38h0ZM146.37,181.7c4.28.32,22.36.05,28.09.05,9.58,0,16.65.19,25.26-2.84,13.13-4.59,23.22-15.74,23.27-33.17.05-17.57-10.01-28.64-23.08-33.33-8.5-3.06-15.68-2.9-25.21-2.9-5.78,0-24.05-.29-28.3.05l-.03,72.14h0Z"/>
  <path class="st0" d="M301.83,169c-.54-.67-1.02-1.13-1.7-1.66-2.72-2.12-11.12-10.2-13.57-12-1.64,1.26-2.99,4.11-8.05,6.55-3.77,1.83-8.32,2.34-12.82,1.21-16.13-4.05-16.24-30.95.16-35.06,4.15-1.05,8.94-.56,12.49,1.18,2.1,1.02,4.82,2.98,6.33,4.64.59.64,1.18,1.48,1.86,2.01l15.27-13.66c-1.51-2.5-5.33-5.85-7.92-7.54-23.75-15.65-64.84-4.67-64.89,30.81-.08,35.91,41.47,46.52,64.76,31.14,2.75-1.8,6.57-5.07,8.08-7.62"/>
  <path class="st0" d="M117.47,182.4c1.35-.27,7.21-1.5,12.57-5.04,2.88-1.88,4.9-3.54,7.19-5.85.43-.46,1.7-1.99,2.02-2.55l-15.32-13.66c-2.91,2.68-3.61,4.37-8.05,6.55-9.75,4.86-24.74.38-24.82-16.15-.08-19.75,20.84-23.02,31.04-11.86.67.75,1.02,1.31,1.83,2.04l15.29-13.66c-1.24-2.25-5.36-5.77-7.67-7.38-.97-.67-2.1-1.39-3.23-2.01-23.31-12.61-60.41-1.77-61.86,30.58-.46,10.36,2.5,19.45,8.94,26.91.94,1.1,1.91,1.61,2.58,2.68.92.67,1.48,1.23,2.42,1.9.89.64,1.59,1.15,2.53,1.8,1.16.8,4.2,2.52,5.68,3.06,6.76,2.23,9.29,3.41,17.23,3.54,5.22.13,8.61-.32,11.63-.91"/>
  <path class="st1" d="M1.75,76.5c3.44.38,7.59.8,10.92,1.53,3.36.72,6.57,1.72,9.66,2.87,7.7,2.81,13.94,6.65,19.83,11.23l3.39,2.87c1.08,1.15,2.15,1.9,3.23,3.06l2.99,3.27c1.13,1.15,3.07,3.83,4.14,5.2.78.99.7.78.38,2.22-.7,3.3-1.75,7.13-2.23,10.43l7-4.96c.7.86,2.8,4.45,3.52,5.79l.67.91c.51-3.11,1.21-6.27,1.78-9.43.22-1.15.03-1.26.97-1.8l5.46-3c11.14-5.66,24.46-8.44,37.32-7.61,6.35.4,8.66.86,14.37,2.52,1.08.32,3.47,1.1,4.44,1.15-10.01-3.94-19.83-7.05-30.67-8.92-21.18-3.62-32.53,1.07-33.55.96-.4-.03-.57-.29-.83-.51-.27-.21-.43-.35-.73-.59-1.4-1.15-4.25-3.11-5.87-4.05-12.05-7.13-23.54-10.08-37.7-11.93-2.91-.38-5.97-.78-8.91-.96l-9.58-.24h0Z"/>
  <polygon class="st0" points="76.44 191.76 80.47 191.76 80.47 211.46 76.44 211.46 76.44 191.76 76.44 191.76"/>
  <path class="st0" d="M101.4,211.5h-3.8v-7.28c0-1.53-.08-2.55-.24-2.98-.16-.46-.43-.81-.81-1.05-.38-.24-.81-.38-1.32-.38-.67,0-1.27.19-1.78.54-.54.35-.89.83-1.08,1.42-.19.59-.3,1.69-.3,3.28v6.48h-3.8v-14.32h3.51v2.1c1.27-1.61,2.83-2.39,4.75-2.39.84,0,1.62.16,2.32.46.7.3,1.24.67,1.59,1.16.35.46.62.99.76,1.59.13.59.22,1.45.22,2.55v8.84h0Z"/>
  <path class="st0" d="M115.92,197.18v3.01h-2.58v5.81c0,1.18.03,1.85.08,2.04.05.19.16.35.35.48.19.13.38.19.65.19.35,0,.86-.11,1.53-.38l.32,2.93c-.89.38-1.88.56-2.99.56-.67,0-1.29-.11-1.83-.35-.54-.24-.94-.54-1.21-.89-.27-.38-.43-.86-.54-1.48-.08-.43-.11-1.34-.11-2.69v-6.26h-1.75v-3.01h1.75v-2.85l3.79-2.23v5.08h2.53v.03h0Z"/>
  <path class="st0" d="M131.2,203.15c-.03-1.1-.3-1.93-.83-2.49-.54-.56-1.18-.86-1.96-.86-.83,0-1.51.29-2.05.91-.54.59-.81,1.42-.78,2.44h5.62ZM130.96,206.95l3.79.64c-.48,1.37-1.26,2.44-2.29,3.16-1.05.72-2.37,1.07-3.93,1.07-2.5,0-4.33-.8-5.52-2.44-.94-1.31-1.43-2.95-1.43-4.93,0-2.36.62-4.23,1.86-5.55,1.24-1.34,2.8-2.01,4.71-2.01,2.13,0,3.79.7,5.03,2.12,1.24,1.39,1.83,3.56,1.78,6.46h-9.47c.03,1.13.32,1.98.92,2.6.59.62,1.32.94,2.18.94.59,0,1.1-.16,1.48-.48.38-.35.7-.86.89-1.58h0Z"/>
  <path class="st0" d="M145.83,211.46h-3.8v-14.26h3.5v2.03c.59-.96,1.16-1.58,1.64-1.87.48-.29,1.02-.45,1.64-.45.86,0,1.7.24,2.5.72l-1.18,3.29c-.65-.4-1.24-.62-1.78-.62s-1,.13-1.35.43c-.38.29-.65.8-.86,1.58-.22.75-.32,2.35-.32,4.76v4.39h0Z"/>
  <path class="st0" d="M170.15,211.5h-3.8v-7.28c0-1.53-.08-2.55-.24-2.98-.16-.46-.43-.81-.81-1.05-.38-.24-.81-.38-1.32-.38-.67,0-1.27.19-1.78.54-.54.35-.89.83-1.08,1.42-.19.59-.3,1.69-.3,3.28v6.48h-3.8v-14.32h3.51v2.1c1.27-1.61,2.83-2.39,4.75-2.39.84,0,1.62.16,2.32.46.7.3,1.21.67,1.59,1.16.35.46.62.99.75,1.59.13.59.22,1.45.22,2.55v8.84h0Z"/>
  <path class="st0" d="M186,204.65c-.48.16-1.27.35-2.32.59-1.05.21-1.75.46-2.07.64-.48.35-.75.8-.75,1.34s.19.99.59,1.37c.4.38.89.59,1.51.59.67,0,1.35-.21,1.97-.67.46-.35.75-.75.92-1.26.11-.32.13-.94.13-1.85v-.75h.03ZM180.91,201.59l-3.42-.62c.38-1.39,1.05-2.41,1.99-3.08.94-.67,2.34-.99,4.2-.99,1.7,0,2.96.19,3.77.59.83.4,1.4.91,1.75,1.53.35.62.51,1.74.51,3.38l-.05,4.39c0,1.26.05,2.17.19,2.76.11.59.35,1.23.67,1.9h-3.77c-.11-.24-.22-.62-.38-1.1-.05-.21-.11-.38-.13-.43-.65.64-1.35,1.1-2.07,1.42-.73.32-1.51.48-2.34.48-1.48,0-2.64-.4-3.47-1.21-.84-.8-1.27-1.8-1.27-3.03,0-.8.19-1.53.59-2.14.38-.62.92-1.13,1.62-1.45s1.7-.62,3.02-.88c1.78-.32,2.99-.64,3.69-.94v-.38c0-.72-.19-1.26-.54-1.58-.38-.32-1.05-.46-2.05-.46-.67,0-1.21.13-1.59.4s-.67.75-.92,1.42h0Z"/>
  <path class="st0" d="M204.18,197.18v3.01h-2.58v5.81c0,1.18.03,1.85.08,2.04.05.19.16.35.35.48.19.13.38.19.65.19.35,0,.86-.11,1.53-.38l.32,2.93c-.89.38-1.88.56-2.99.56-.67,0-1.29-.11-1.83-.35-.54-.24-.94-.54-1.21-.89-.27-.38-.43-.86-.54-1.48-.08-.43-.11-1.34-.11-2.69v-6.26h-1.75v-3.01h1.75v-2.85l3.79-2.23v5.08h2.53v.03h0Z"/>
  <path class="st0" d="M210.97,211.46v-14.28h3.78v14.28h-3.78ZM210.97,195.25v-3.48h3.78v3.48h-3.78Z"/>
  <path class="st0" d="M225.78,204.36c0,1.42.35,2.49,1,3.24.67.75,1.51,1.13,2.51,1.13s1.81-.38,2.48-1.13c.67-.75,1-1.85,1-3.27s-.32-2.47-1-3.22c-.67-.75-1.51-1.13-2.48-1.13s-1.83.38-2.51,1.13c-.67.75-1,1.82-1,3.24M221.87,204.17c0-1.26.3-2.47.94-3.65.62-1.18,1.51-2.06,2.64-2.68,1.13-.62,2.4-.94,3.8-.94,2.18,0,3.94.7,5.34,2.12,1.38,1.39,2.08,3.19,2.08,5.34s-.7,3.97-2.1,5.39c-1.4,1.42-3.15,2.14-5.28,2.14-1.32,0-2.56-.29-3.77-.88-1.19-.59-2.1-1.45-2.72-2.6-.62-1.21-.92-2.6-.92-4.24h0Z"/>
  <path class="st0" d="M256.8,211.5h-3.78v-7.28c0-1.53-.08-2.55-.24-2.98-.16-.46-.43-.81-.81-1.05s-.81-.38-1.31-.38c-.67,0-1.26.19-1.77.54-.54.35-.89.83-1.07,1.42-.19.59-.3,1.69-.3,3.28v6.48h-3.78v-14.32h3.49v2.1c1.26-1.61,2.82-2.39,4.72-2.39.83,0,1.61.16,2.31.46.7.3,1.21.67,1.58,1.16.35.46.62.99.75,1.59.13.59.21,1.45.21,2.55v8.84h0Z"/>
  <path class="st0" d="M272.68,204.65c-.48.16-1.26.35-2.31.59-1.05.21-1.74.46-2.06.64-.48.35-.75.8-.75,1.34s.19.99.59,1.37c.4.38.88.59,1.5.59.67,0,1.34-.21,1.96-.67.46-.35.75-.75.91-1.26.11-.32.13-.94.13-1.85v-.75h.03ZM267.61,201.59l-3.41-.62c.38-1.39,1.05-2.41,1.98-3.08.94-.67,2.33-.99,4.18-.99,1.69,0,2.95.19,3.75.59.83.4,1.39.91,1.74,1.53.35.62.51,1.74.51,3.38l-.05,4.39c0,1.26.05,2.17.19,2.76.11.59.35,1.23.67,1.9h-3.75c-.11-.24-.21-.62-.38-1.1-.05-.21-.11-.38-.13-.43-.64.64-1.34,1.1-2.06,1.42-.72.32-1.5.48-2.33.48-1.47,0-2.63-.4-3.46-1.21-.83-.8-1.26-1.8-1.26-3.03,0-.8.19-1.53.59-2.14.38-.62.91-1.13,1.61-1.45s1.69-.62,3-.88c1.77-.32,2.98-.64,3.67-.94v-.38c0-.72-.19-1.26-.54-1.58-.38-.32-1.05-.46-2.04-.46-.67,0-1.21.13-1.58.4-.38.27-.67.75-.91,1.42h0Z"/>
  <polygon class="st0" points="284.3 191.76 288.08 191.76 288.08 211.46 284.3 211.46 284.3 191.76 284.3 191.76"/>
</svg>