<?xml version="1.0" encoding="UTF-8"?>
<svg id="Layer_1" xmlns="http://www.w3.org/2000/svg" version="1.1" viewBox="0 0 360 216">
  <!-- Generator: Adobe Illustrator 29.8.1, SVG Export Plug-In . SVG Version: 2.1.1 Build 2)  -->
  <defs>
    <style>
      .st0 {
        fill: #fff;
      }

      .st0, .st1 {
        fill-rule: evenodd;
      }

      .st1 {
        fill: #ed1e6d;
      }
    </style>
  </defs>
  <path class="st1" d="M200.55,21.7c.22.04.43.11.64.11,2.92.12,5.83.39,8.71.88,9.24,1.57,17.79,4.8,25.33,10.45,4.35,3.26,8.01,7.17,10.68,11.94,1.87,3.34,3.1,6.91,3.55,10.71.67,5.63-.31,10.99-2.84,16.07-2.41,4.85-5.87,8.85-10.04,12.25-4.87,3.97-10.34,6.83-16.25,8.87-4.07,1.41-8.24,2.37-12.5,2.94-3.94.53-7.9.72-11.87.55-9.32-.39-18.21-2.48-26.54-6.77-4.8-2.47-9.14-5.59-12.83-9.55-3.57-3.83-6.28-8.17-7.74-13.23-1.87-6.48-1.41-12.83,1.25-19.01,1.96-4.56,4.89-8.41,8.49-11.78,4.78-4.46,10.32-7.69,16.39-10.05,4.62-1.8,9.39-2.99,14.3-3.66,2.28-.31,4.56-.5,6.86-.61.3-.02.59-.08.89-.12h3.52,0Z"/>
  <path class="st1" d="M27.84,149.03c.09-.51.21-1.01.26-1.53.17-1.84.49-3.63,1.12-5.37.52-1.41,1.24-2.7,2.26-3.82,1.21-1.34,2.72-2.19,4.4-2.77,1.66-.58,3.38-.94,5.13-1.09,1.6-.14,3.21-.19,4.82-.28.2,0,.4-.03.63-.05,0-.24.03-.44.03-.63v-7.98c0-.39-.11-.69-.37-.98-.52-.56-1.01-1.15-1.51-1.73-.09-.1-.17-.21-.29-.39,3.4-1.69,6.76-3.36,10.22-5.08,0,.38.03.65.03.92v37.11c0,.58.06.64.65.72.79.11,1.52-.06,2.2-.47.88-.52,1.56-1.26,2.16-2.08.14-.19.28-.38.48-.66.02.19.03.25.03.32v3.57c0,.29-.09.49-.32.66-1.05.78-2.07,1.61-3.14,2.36-1.37.97-2.9,1.46-4.58,1.49-1.47.02-2.68-.53-3.57-1.7-.59-.79-1.1-1.64-1.65-2.45-.12-.19-.23-.38-.37-.6-.18.12-.33.2-.47.3-.98.75-1.97,1.48-2.94,2.24-1.6,1.25-3.44,1.91-5.44,2.14-1.24.14-2.49.13-3.73-.13-2.65-.56-4.41-2.16-5.27-4.72-.26-.76-.35-1.56-.53-2.35-.07-.33-.17-.65-.26-.98v-3.99h.02ZM46.49,137.07c-.22-.03-.36-.06-.49-.06-1.21.05-2.42.07-3.62.18-1.08.09-2.15.31-3.19.66-1.26.43-2.17,1.25-2.64,2.48-.32.82-.58,1.68-.74,2.54-.4,2.13-.38,4.29-.23,6.45.09,1.26.31,2.51.84,3.69.86,1.9,2.34,2.87,4.41,2.91,2.05.04,3.76-.74,5.16-2.22.34-.36.5-.72.5-1.23-.02-4.9,0-9.79,0-14.69v-.72h0Z"/>
  <path class="st1" d="M219.75,128.82c-4.74-.03-9.29-.91-13.56-3.01-2.45-1.21-4.63-2.77-6.39-4.88-1.37-1.63-2.34-3.47-2.74-5.58-.45-2.34-.09-4.57.95-6.7,1.18-2.44,3.02-4.31,5.21-5.85,2.91-2.05,6.16-3.31,9.62-4.06,2.77-.6,5.58-.83,8.41-.69,4.4.21,8.61,1.17,12.54,3.23,2.16,1.13,4.11,2.55,5.72,4.4,1.38,1.59,2.4,3.38,2.86,5.45.59,2.7.14,5.24-1.19,7.65-1.14,2.06-2.76,3.71-4.65,5.08-2.94,2.12-6.23,3.44-9.75,4.21-2.31.5-4.65.75-7.01.75"/>
  <path class="st0" d="M132.74,134.67v22.5c.8.16,1.54.33,2.29.47.44.08.78-.16,1.08-.44.53-.49,1.06-.99,1.59-1.49.14-.13.29-.26.5-.43v3.27s-.1.1-.17.14c-1.24.66-2.47,1.38-3.75,1.96-1.74.8-3.59.87-5.44.44-1.29-.3-2.29-1.04-2.95-2.22-.42-.77-.88-1.53-1.35-2.34-.3.16-.57.29-.82.45-1.24.82-2.48,1.66-3.72,2.49-1.27.85-2.64,1.47-4.16,1.72-1.64.27-3.26.18-4.84-.33-1.53-.49-2.67-1.46-3.41-2.89-.48-.92-.8-1.89-1.03-2.89-.04-.21-.1-.42-.23-.63-.01.14-.04.29-.04.43v1.39c0,1.16,0,1.15-.85,1.97-1.21,1.16-2.71,1.81-4.28,2.28-2.83.85-5.74,1.02-8.67.92-1.8-.07-3.59-.18-5.32-.68-.77-.22-1.52-.52-2.24-.87-.95-.47-1.6-1.25-1.98-2.26-.45-1.18-.66-2.4-.79-3.64-.26-2.52-.33-5.03-.13-7.55.15-1.93.49-3.83,1.17-5.66,1.47-4,4.3-6.47,8.46-7.42,2.02-.47,4.06-.6,6.12-.47.54.03,1.08.14,1.6.29,2.18.6,3.47,2.07,3.89,4.26.86,4.45-.26,8.3-3.63,11.41-2.04,1.88-4.44,3.18-7,4.22-.69.28-1.38.53-2.13.82-.03,1.06-.01,2.12.47,3.11.28.56.8.92,1.38,1.13.7.24,1.42.46,2.15.56,1.42.2,2.85.26,4.25-.17,1.36-.42,2.61-1.08,3.7-1.99,1.16-.96,2.28-1.98,3.43-2.96.26-.22.33-.45.32-.78-.06-1.59-.15-3.18-.1-4.77.06-2,.42-3.96,1.16-5.84.86-2.15,2.22-3.85,4.29-4.97,1.67-.91,3.39-1.69,5.14-2.4.2-.08.43-.12.65-.12h14.87c.14,0,.28.02.52.03M124.54,137.29h-5.7c-.62,0-1.3-.13-1.85.07-.64.23-1.15.79-1.74,1.17-.61.38-.84.93-.85,1.63-.04,1.63-.14,3.26-.15,4.89-.02,2.21-.01,4.43.05,6.64.02.84.21,1.67.39,2.49.15.7.64,1.18,1.32,1.37.55.15,1.1.27,1.66.31,1.71.15,3.34-.17,4.81-1.07.58-.35,1.07-.86,1.62-1.26.36-.26.49-.56.49-1.01-.02-4.85-.01-9.71-.01-14.56,0-.2-.02-.4-.03-.67h-.01ZM90.47,150.38h.41c1.05-.2,2.1-.43,3.06-.9,2.18-1.04,3.59-2.69,4-5.12.23-1.32.12-2.65-.04-3.97-.11-.92-.31-1.82-.76-2.65-.81-1.49-2.02-2.11-3.64-1.89-1.81.25-3.03,1.63-3.03,3.46v11.08h0Z"/>
  <path class="st0" d="M148.01,161.22h-7.46v-19.11c0-.51-.11-.87-.53-1.18-.77-.58-1.27-1.39-1.79-2.23.1-.06.17-.13.26-.15,2.01-.67,3.92-1.59,5.82-2.51.98-.47,1.99-.87,2.99-1.3.2-.08.41-.13.69-.22v3.41c.48-.16.89-.26,1.26-.43,1.16-.55,2.32-1.11,3.46-1.72,1.56-.83,3.2-1.29,4.98-1.26,1.89.02,3.54.69,5.02,1.82.79.6,1.52,1.27,2.27,1.9.15.13.31.25.48.38.18-.15.33-.28.49-.41.92-.74,1.85-1.49,2.77-2.25.98-.8,2.08-1.29,3.35-1.38,1.21-.08,2.41-.16,3.61.06.39.08.79.19,1.14.38,1.31.71,2.59,1.46,3.96,2.24v19.82c.18,0,.31,0,.44-.05.72-.19,1.44-.39,2.16-.57.36-.09.65-.28.9-.56.5-.55,1.02-1.09,1.53-1.63.12-.13.26-.25.44-.42.03.24.05.39.05.53v2.24c0,.34-.09.62-.26.91-1.13,1.79-2.79,2.82-4.8,3.32-.89.22-1.82.3-2.74.37-.72.06-1.45.03-2.17,0-.32,0-.65-.03-.96-.08-1.21-.22-1.96-1.06-2.04-2.28v-21.58c-.52-.1-.98-.02-1.43.06-1.75.3-3.21,1.12-4.47,2.36-.89.88-1.74,1.79-2.63,2.67-.29.28-.37.58-.37.96v17.86h-7.47c-.06-1.57-.02-3.15-.02-4.73v-19.24c-.44.02-.82.03-1.19.07-1.26.12-2.44.49-3.5,1.2-.28.19-.55.41-.79.66-1.04,1.06-2.06,2.15-3.11,3.21-.28.28-.38.58-.38.96v17.9h.04Z"/>
  <path class="st1" d="M202.57,148.57c-3.18,0-5.91-.56-8.47-1.87-1.58-.81-2.97-1.86-4.02-3.32-1.74-2.42-1.77-5.27-.08-7.72,1.01-1.48,2.39-2.55,3.96-3.37,2.16-1.13,4.46-1.7,6.88-1.88,2.67-.2,5.27.12,7.79,1.01,1.9.67,3.63,1.65,5.04,3.11,1.13,1.18,1.91,2.53,2.13,4.18.17,1.26-.08,2.45-.62,3.57-.53,1.11-1.31,2.03-2.24,2.82-1.91,1.61-4.14,2.54-6.56,3.06-.71.15-1.43.26-2.15.34-.66.07-1.33.07-1.68.09"/>
  <path class="st0" d="M70.17,136.82c.65.07,1.17-.1,1.67-.3.78-.31,1.43-.81,2.07-1.34,1.09-.9,2.18-1.79,3.31-2.63.84-.63,1.77-1.13,2.77-1.46.33-.11.69-.17,1.09-.26v7.14c-.58.05-1.14.08-1.69.14-3.68.41-6.6,2.08-8.67,5.17-.11.15-.2.35-.22.54-.19,2.26-.07,4.51.07,6.76.1,1.53.27,3.05.66,4.53.13.48.29.97.47,1.43.29.73.7,1.37,1.55,1.79-3.54,1.45-7,2.84-10.55,4.28v-20.56c0-.5-.13-.88-.48-1.23-.64-.66-1.24-1.37-1.93-2.13,3.3-1.77,6.55-3.49,9.87-5.27v3.39h.01Z"/>
  <path class="st0" d="M332.16,157.29c-1.58,1.91-3.74,2.8-6.06,3.37-1.81.45-3.65.62-5.51.64-2.3.03-4.59-.03-6.85-.51-.93-.2-1.83-.48-2.68-.91-1.09-.56-1.84-1.4-2.24-2.57-.35-1.03-.56-2.1-.69-3.18-.27-2.24-.32-4.5-.24-6.76.09-2.14.39-4.25,1.08-6.29,1.46-4.35,4.43-7.01,8.92-7.94,1.96-.41,3.95-.59,5.95-.39.64.07,1.28.2,1.88.4,2.03.69,3.14,2.2,3.51,4.25.83,4.49-.37,8.33-3.79,11.41-1.86,1.68-4.02,2.89-6.31,3.86-.87.37-1.76.7-2.69,1.05-.05.98,0,1.95.36,2.89.19.52.59.86,1.05,1.13.62.37,1.29.58,1.99.7,1.58.25,3.16.38,4.73-.06,1.38-.39,2.63-1.05,3.72-1.94,1.24-1,2.41-2.08,3.61-3.12.09-.08.16-.18.25-.27v4.23h.01ZM316.42,150.32c1.85-.32,3.55-.76,4.99-1.9,1.46-1.15,2.31-2.67,2.51-4.51.15-1.42.09-2.85-.18-4.27-.14-.76-.34-1.49-.73-2.16-.86-1.47-2.19-2.07-3.83-1.72-1.73.38-2.77,1.65-2.77,3.42v11.14h0Z"/>
  <path class="st0" d="M285.85,161.14h-7.5v-19.12c0-.48-.12-.83-.49-1.14-.75-.64-1.37-1.41-1.89-2.27.07-.04.11-.08.16-.11,2.15-.92,4.29-1.85,6.44-2.76.84-.35,1.68-.66,2.53-.99.2-.08.41-.13.72-.23.02,1.13,0,2.2.01,3.37.3-.08.55-.12.77-.22,1.27-.6,2.55-1.2,3.81-1.84,1.06-.54,2.16-.98,3.34-1.18,1.37-.23,2.72-.16,4.05.3,1.45.5,2.81,1.2,4.11,2.02.32.2.34.45.33.76v19.34c1.11-.26,2.15-.49,3.1-.99.21-.1.37-.3.55-.46.6-.56,1.2-1.13,1.81-1.71.02.11.04.23.04.36v2.42c0,.26-.08.45-.27.63-.9.83-1.77,1.7-2.7,2.51-.7.61-1.59.85-2.48,1.05-1.79.41-3.6.37-5.4.11-.69-.1-1.3-.41-1.84-.86-.21-.18-.34-.38-.33-.67.02-.18,0-.36,0-.55v-21.69c-.72-.12-1.35,0-1.98.14-1.41.31-2.64.99-3.66,2-1.02,1-2,2.05-3.01,3.06-.23.23-.25.48-.25.77v17.94h.03Z"/>
  <path class="st0" d="M275.06,146.07c0,2.67-.18,5.07-.94,7.4-.15.48-.33.95-.54,1.41-1.44,3.15-3.86,5.02-7.26,5.66-3.03.56-6.09.61-9.15.4-1.25-.08-2.48-.27-3.69-.64-.15-.04-.31-.09-.46-.15-1.86-.6-3.08-1.83-3.69-3.69-.45-1.37-.69-2.77-.82-4.2-.18-2.09-.21-4.18,0-6.28.17-1.77.51-3.5,1.2-5.16,1.36-3.22,3.72-5.22,7.19-5.91,2.58-.5,5.2-.58,7.82-.52,1.7.04,3.37.23,5.02.62,2.52.59,4.08,2.11,4.6,4.63.25,1.22.44,2.46.58,3.69.11.98.11,1.97.14,2.72M256.55,158.27c.15.04.21.07.27.07,1.91-.02,3.82-.02,5.74-.1,1.04-.04,2.07-.29,3-.83.84-.49,1.26-1.22,1.26-2.19v-17.52c0-.19-.03-.38-.04-.56h-5.14c-.44,0-.88.08-1.32.18-1.34.29-2.57.79-3.4,1.99-.24.34-.37.68-.37,1.11v17.83h0v.02Z"/>
  <path class="st1" d="M237.49,139.55c-.28-.02-.45-.05-.62-.05-2.66,0-5.32-.02-7.98,0-1.17.02-2.33.12-3.49.23-1.34.13-2.5.72-3.57,1.5-.14.11-.29.22-.44.32-.03.02-.08.02-.11.03-.12-.45.27-6.53.49-7.54.44-.12,22.35-.18,23.54-.05.02.2.05.41.05.62,0,.74-.02,1.49,0,2.24.02.42-.13.71-.42,1-5.09,5.15-10.16,10.3-15.23,15.46-.2.19-.38.4-.63.66.21.05.33.1.46.1.48.05.96.06,1.44.12.93.12,1.8.4,2.63.85.84.47,1.72.88,2.57,1.33.44.24.9.33,1.39.33,3.38-.02,6.51-.92,9.42-2.63.17-.1.34-.21.52-.31.04-.02.08-.02.17-.04.02.14.04.26.04.39v2.48c0,.19-.04.42-.14.56-1.38,1.94-2.85,3.81-4.81,5.22-1.41,1.02-2.92,1.79-4.65,2.05-1.78.27-3.44.09-4.94-1.04-1.23-.92-2.69-1.34-4.18-1.68-2.31-.51-4.66-.65-7.01-.71h-.79c-.03-.27-.06-.5-.06-.73,0-1.13,0-2.25-.02-3.38,0-.44.14-.75.45-1.06,4.62-4.7,9.22-9.41,13.84-14.11.57-.58,1.13-1.15,1.69-1.73.12-.12.22-.26.4-.47"/>
  <path class="st0" d="M331.33,125.16c0,2.4-1.89,4.3-4.29,4.31-2.38,0-4.31-1.91-4.31-4.29s1.92-4.35,4.32-4.33,4.28,1.91,4.28,4.32M323.42,125.14c0,2.01,1.59,3.62,3.58,3.63,2.03,0,3.65-1.59,3.65-3.62s-1.64-3.66-3.64-3.64c-2,.02-3.59,1.63-3.59,3.63h0Z"/>
  <path class="st0" d="M325.2,122.98c.87,0,1.69-.04,2.51.01.52.03.88.44.97.94.1.53-.09.96-.53,1.26-.16.11-.35.18-.53.27.45.65.9,1.3,1.37,1.97-.53.12-.9-.01-1.11-.39-.18-.3-.35-.59-.53-.88-.33-.53-.8-.7-1.46-.52v1.87h-.68v-4.52h-.01ZM325.9,124.88c.53,0,1,.04,1.48-.02.37-.04.57-.33.56-.67,0-.33-.23-.61-.59-.64-.47-.04-.94,0-1.45,0,0,0,0,1.33,0,1.33Z"/>
  <path class="st0" d="M145.49,194.3c.02-.42.04-.84.06-1.3.2-.06.39-.12.58-.16.4-.08.69-.34.94-.63.11-.12.13-.37.13-.55v-12.82h-2.18v-.82h2.15c0-.3.03-.53.03-.77,0-1.51,0-3.02.23-4.52.1-.59.23-1.19.44-1.75.44-1.18,1.32-1.79,2.59-1.83h1.48v1.33c-.16.04-.32.1-.5.13-.43.06-.72.35-1,.64-.09.09-.13.25-.13.38v6.17s.02.07.06.18h2.13c0,.29.03.52.04.82h-2.21c0,.29-.03.53-.03.76,0,3.67-.02,7.33,0,11,0,.82-.25,1.49-.76,2.1-.59.71-1.27,1.29-2.13,1.64h-1.94.02Z"/>
  <path class="st0" d="M330.13,187.16c-.31.76-.94,1.14-1.69,1.3-.81.17-1.63.31-2.44.36-1.09.06-2.18.02-3.27.02-.24,0-.49-.02-.71-.1-.2-.07-.41-.2-.54-.36-.39-.49-.33-1.66.09-2.14.04-.05.08-.09.12-.13.51-.6.65-.61,1.25-.08.15.13.29.28.41.44.56.68,1.3.98,2.17,1.04.4.03.75-.1,1.03-.4.17-.19.34-.39.54-.61-.18-.19-.33-.35-.48-.51-.96-.95-1.94-1.88-2.86-2.86-.5-.54-.97-1.13-1.35-1.76-.66-1.08-.47-2.02.5-2.84.87-.73,1.89-1.04,3-1.14h.06c1.23-.09,2.41-.03,3.44.78.22.17.49.28.73.41v.24c-.04.1-.1.21-.14.32-.18.55-.32,1.1-.65,1.65-.42-.27-.8-.5-1.16-.75-.45-.3-.87-.64-1.33-.93-.6-.37-.89-.31-1.35.24-.08.09-.15.19-.21.29-.27.44-.26.56.12.94.98,1.01,1.97,2.01,2.95,3.02.75.76,1.45,1.56,1.77,2.61v.97-.02h0Z"/>
  <path class="st0" d="M27.84,185.95c.12-.2.27-.39.37-.59.44-.84,1.34-1.26,2.29-1.07.88.17,1.54.96,1.59,1.89.05.95-.52,1.78-1.42,2.08-.98.31-2.03-.14-2.48-1.08-.11-.21-.23-.42-.34-.63v-.6h-.01Z"/>
  <path class="st0" d="M295.97,186.92c-.5.37-.97.72-1.44,1.06-1.07.77-2.28,1-3.56.8-1.43-.22-2.32-1.15-2.53-2.62-.21-1.43-.14-2.85.17-4.26.47-2.22,1.9-3.43,4.09-3.79.82-.13,1.64-.18,2.46-.26.24-.02.48,0,.79,0,.02-.24.04-.43.04-.62,0-.86,0-1.73.01-2.6.01-.38-.09-.66-.36-.92-.19-.18-.33-.39-.55-.64,1.41-.69,2.76-1.34,4.17-2.03.14.69.05,1.33.07,1.96.02.64,0,1.29,0,1.93v11.71c1.07.29,1.61-.42,2.27-1.16,0,.58.02,1.04-.01,1.49,0,.14-.12.3-.23.39-.41.32-.83.65-1.27.93-.3.19-.64.33-.99.43-1.17.33-1.87.06-2.56-.92-.19-.28-.37-.57-.58-.88M295.97,179.03c-.98-.03-1.87.02-2.76.25-.72.19-1.22.63-1.42,1.34-.14.54-.25,1.1-.3,1.66-.1.92-.06,1.85.19,2.76.32,1.18,1.16,1.75,2.34,1.62.57-.06,1.08-.29,1.53-.66.31-.26.47-.55.47-.99-.03-1.79-.01-3.58-.02-5.38,0-.18-.01-.35-.03-.61h0Z"/>
  <path class="st0" d="M79.9,173.03c1.35-.7,2.63-1.37,4-2.08.05.81.02,1.55.02,2.27v6.72c.24-.14.39-.23.54-.32.83-.49,1.64-1.01,2.5-1.45.83-.43,1.72-.39,2.58-.06.2.08.41.19.59.31.4.28.61.64.6,1.17-.03,2.12,0,4.23,0,6.34v.69c1.02.29,1.6-.35,2.22-.95.26,1.15-.15,1.97-1.04,2.57-.8.54-1.7.73-2.63.81-.5.04-1,0-1.57,0-.02-.27-.04-.5-.04-.73v-7.55c0-.29-.06-.61-.19-.86-.27-.51-.75-.65-1.29-.42-.15.06-.3.13-.42.23-.53.46-1.09.9-1.57,1.41-.53.57-.22,1.31-.24,1.96-.04,1.75-.02,3.51-.02,5.26v.69h-3.01c-.01-.25-.05-.5-.05-.75,0-4.37-.02-8.74,0-13.11,0-.73-.09-1.35-.69-1.81-.09-.07-.16-.18-.29-.35"/>
  <path class="st0" d="M282.4,178.06h3.1v9.05c1.13,0,1.57-.88,2.22-1.58.17.82.03,1.44-.47,2.02-1.04,1.21-2.35,1.47-3.83,1.15-.5-.11-.79-.46-.89-.96-.07-.39-.09-.79-.11-1.19-.02-.31,0-.63-.12-.97-.15.19-.29.37-.43.55-1.38,1.79-3.18,2.74-5.47,2.7h-1.87v-.71c0-2.46-.01-4.92,0-7.38,0-.41-.13-.68-.48-.88-.35-.2-.69-.41-1.13-.67,1.55-.71,3.04-1.38,4.64-2.11v8.9c0,.95.57,1.35,1.45.98.44-.19.87-.45,1.21-.78.69-.67,1.31-1.42,1.97-2.12.2-.21.2-.47.2-.73v-5.27h0Z"/>
  <path class="st0" d="M203.05,178.07v9.05c.41.17.82.38,1.22.19.37-.17.65-.5,1.06-.83v1.1c0,.1-.1.23-.19.28-.95.54-1.88,1.09-3.05,1-.84-.06-1.51-.36-1.92-1.14-.14-.26-.3-.51-.47-.8-.24.14-.43.24-.61.35-.48.3-.93.63-1.41.93-1.01.63-2.09.8-3.25.55-.9-.19-1.55-.69-1.85-1.55-.22-.62-.36-1.28-.44-1.93-.15-1.25-.08-2.49.28-3.7.34-1.14.99-2.01,2.07-2.54.02,0,.03-.02.05-.03,1.13-.62,2.28-1.03,3.61-.93,1.39.1,2.78.02,4.17.02h.73v-.02h0ZM199.68,179.18c-.11-.02-.18-.06-.26-.06-.87,0-1.73-.02-2.6,0-.17,0-.34.09-.5.17-.63.3-.89.8-.88,1.5.02,1.31-.02,2.62,0,3.93,0,.34.05.68.11,1.01.08.5.38.78.87.87,1.06.2,2.03,0,2.89-.7.29-.24.42-.48.41-.87-.02-1.77,0-3.55,0-5.32,0-.17-.02-.35-.02-.54h-.02Z"/>
  <path class="st0" d="M226.05,188.37v-8.87c-1.11-.54-2.21-.11-3.28,1.3-.13-.28-.05-.54,0-.76.1-.42.22-.86.41-1.25.21-.44.6-.71,1.11-.71h4.65s.07.02.2.07v9.61c1.61-.38,2.84-1.14,3.39-2.69.54-1.55.52-3.13-.03-4.68-.14-.43-.43-.81-.69-1.3,1.32-.69,2.67-1.39,4.04-2.1.06.09.13.14.14.21.24,1.7.32,3.41.05,5.12-.04.27-.11.55-.22.81-.73,1.75-1.75,3.32-3.25,4.51-2,1.59-4.18,1.67-6.54.72"/>
  <path class="st0" d="M110.52,188.84c-.6-.07-1.43-.13-2.24-.27-1.14-.2-1.89-.85-2.13-2.02-.37-1.74-.43-3.48.02-5.21.47-1.79,1.6-2.89,3.46-3.17,1.6-.24,3.2-.27,4.8.02,1.24.23,1.97.92,2.2,2.16.29,1.58.35,3.17.01,4.74-.47,2.22-1.78,3.34-4.1,3.59-.6.06-1.2.08-2.03.14M113.48,179.1c-.98-.03-1.87-.08-2.74.1-.27.06-.54.16-.79.3-.49.27-.76.65-.75,1.26.03,2.1,0,4.19,0,6.28v.67c1.11.03,2.17.11,3.22-.15.82-.21,1.04-.53,1.04-1.38v-7.08h.02Z"/>
  <path class="st0" d="M137.7,188.87c-.77-.11-1.68-.21-2.59-.39-.98-.19-1.58-.85-1.81-1.81-.42-1.81-.47-3.64.02-5.44.47-1.7,1.58-2.76,3.37-3.04,1.63-.25,3.24-.27,4.87,0,1.27.23,1.99.96,2.21,2.22.27,1.54.32,3.08.02,4.62-.13.66-.36,1.28-.73,1.84-.65.99-1.59,1.53-2.73,1.71-.81.12-1.64.18-2.62.28M140.57,179.03c-.92.05-1.77.07-2.6.14-.29.03-.59.15-.85.29-.51.27-.81.66-.8,1.3.03,2.1,0,4.19.02,6.28,0,.2.02.39.03.64,1.06.05,2.08.11,3.09-.12.92-.21,1.16-.54,1.16-1.48v-6.34c0-.2-.02-.39-.04-.71h0Z"/>
  <path class="st0" d="M98.59,188.87c-.76-.1-1.7-.2-2.62-.37-1.01-.19-1.62-.85-1.85-1.84-.4-1.71-.44-3.43-.04-5.14.44-1.89,1.6-3.06,3.58-3.33,1.59-.22,3.17-.26,4.75.05.14.02.27.08.41.11.91.23,1.45.81,1.68,1.71.3,1.16.35,2.34.3,3.53-.04.79-.15,1.56-.42,2.31-.55,1.51-1.6,2.44-3.19,2.7-.79.13-1.6.18-2.59.28M97.15,187.71c1.08,0,2.09.09,3.07-.12.96-.21,1.2-.54,1.2-1.51v-6.29c0-.21-.02-.43-.03-.7-1.03-.02-2.01-.11-2.97.17-.15.04-.31.1-.45.17-.53.28-.85.67-.84,1.34.03,2.1.01,4.19.01,6.28v.65h0Z"/>
  <path class="st0" d="M184.9,185.85c.04.37.07.69.14,1,.11.47.48.68.9.81,1.48.43,2.83.2,4.02-.79.47-.38.92-.78,1.48-1.26,0,.6.02,1.07,0,1.54,0,.12-.12.25-.21.34-.38.41-.85.67-1.36.87-.99.38-2.03.52-3.08.54-1.11.03-2.21,0-3.3-.29-1.05-.26-1.68-.87-1.85-1.97-.29-1.74-.34-3.48.04-5.22.53-2.39,2.06-3.76,4.51-4.03.66-.07,1.33-.08,1.98-.02,1.17.11,1.86.79,2.07,1.94.3,1.7-.15,3.15-1.39,4.35-.92.88-2.03,1.45-3.19,1.9-.22.09-.45.17-.76.29M184.95,184.44c1.29-.17,2.36-.59,2.87-1.8.46-1.08.36-2.22-.11-3.28-.31-.72-.96-.98-1.7-.79-.7.18-1.09.69-1.1,1.46v3.86c0,.16.02.32.03.56h.01Z"/>
  <path class="st0" d="M240.56,185.84v.59c.04.68.41,1.06,1.05,1.24,1.46.4,2.79.16,3.97-.81.46-.38.91-.78,1.48-1.26,0,.6.03,1.07-.02,1.53,0,.15-.17.31-.29.43-.71.69-1.62.97-2.56,1.14-1.52.28-3.05.26-4.56.02-.12-.02-.24-.06-.35-.07-1.22-.23-1.92-.94-2.08-2.18-.23-1.69-.29-3.37.08-5.04.54-2.4,2.06-3.77,4.51-4.03.65-.07,1.33-.08,1.99-.02,1.19.11,1.88.81,2.08,2,.3,1.8-.25,3.29-1.62,4.49-.89.78-1.93,1.3-3.03,1.72-.2.08-.4.16-.64.26M240.57,184.44c1.21-.16,2.26-.54,2.8-1.66.54-1.13.43-2.32-.06-3.45-.3-.69-.94-.93-1.66-.76s-1.12.68-1.12,1.44v3.93c0,.15.02.32.04.52v-.02Z"/>
  <path class="st0" d="M320.59,185.59c0,.58.02,1-.01,1.42-.02.18-.13.4-.26.5-.42.31-.85.62-1.32.82-.92.4-1.9.51-2.89.55-1.17.03-2.34,0-3.48-.28-1.04-.26-1.68-.87-1.86-1.96-.28-1.72-.33-3.45.03-5.16.51-2.42,2.05-3.82,4.52-4.09.66-.07,1.33-.08,1.99-.02,1.17.1,1.86.78,2.07,1.93.3,1.67-.13,3.12-1.34,4.31-.92.91-2.04,1.48-3.24,1.94-.22.09-.45.17-.66.25-.2,1.09.14,1.66,1.17,1.9,1.4.33,2.67.07,3.79-.86.46-.38.91-.77,1.49-1.27M314.11,184.37c.07.02.13.05.19.04,1.14-.17,2.18-.59,2.65-1.72.49-1.19.39-2.4-.21-3.55-.03-.06-.07-.1-.11-.15-.4-.45-1-.59-1.6-.39-.61.22-.96.67-.96,1.31v4.1c0,.12.03.23.05.35h-.01Z"/>
  <path class="st0" d="M117.93,173.01c1.33-.67,2.6-1.31,3.96-1.99.02.31.03.54.03.77,0,4.75.01,9.51-.01,14.26,0,.54.23.81.66,1.01.42.19.8.2,1.16-.14.5-.47,1-.92,1.56-1.43.11.66.17,1.26-.26,1.76-.34.39-.69.78-1.08,1.13-.34.3-.78.42-1.23.42h-3.56c-.06,0-.12-.03-.24-.05,0-.22-.03-.46-.03-.69,0-4.37-.01-8.74.01-13.11,0-.61-.11-1.1-.58-1.49-.12-.1-.21-.24-.39-.45"/>
  <path class="st0" d="M260.33,186.49c-.21-.22-.36-.39-.54-.56-.91-.91-1.86-1.79-2.73-2.73-.54-.59-1.05-1.23-1.46-1.91-.6-.98-.42-1.88.44-2.65.87-.79,1.93-1.13,3.08-1.24h.12c1.93-.1,2.3,0,4.19,1.24-.24.69-.49,1.39-.77,2.19-.51-.33-.93-.6-1.34-.88-.45-.3-.88-.64-1.35-.91-.47-.28-.69-.23-1.07.16-.14.14-.27.3-.37.48-.26.43-.25.51.12.88,1.02,1.04,2.04,2.07,3.04,3.11.36.38.69.78,1.02,1.19.16.2.29.43.4.66.68,1.34.26,2.37-1.15,2.86-.84.29-1.73.41-2.61.44-1.15.04-2.3.02-3.45.02-.24,0-.49-.03-.71-.12-.19-.08-.38-.23-.5-.4-.37-.55-.27-1.61.18-2.13l.04-.04c.54-.63.68-.64,1.29-.09.14.12.26.25.37.39.48.59,1.11.91,1.85,1.04.61.1,1.12-.02,1.51-.52.11-.13.23-.27.39-.46"/>
  <path class="st0" d="M66.63,180.81c-.5-.33-.92-.6-1.33-.88-.44-.29-.85-.61-1.3-.89-.51-.31-.76-.25-1.16.19-.25.27-.46.56-.5.98.12.13.25.28.39.42.97,1,1.95,1.98,2.91,2.99.43.45.81.94,1.2,1.43.14.17.23.38.32.58.58,1.25.18,2.23-1.1,2.71-.88.33-1.8.44-2.72.47-1.15.04-2.3.03-3.45.02-1-.02-1.33-.42-1.43-1.4-.07-.75.34-1.2.77-1.68.14-.16.33-.17.49-.05.29.22.59.43.82.7.49.58,1.1.92,1.84,1.06.65.13,1.19,0,1.61-.56.1-.13.2-.25.34-.41-.16-.17-.3-.34-.45-.49-.79-.78-1.59-1.54-2.36-2.34-.49-.5-.95-1.04-1.4-1.58-.23-.28-.42-.6-.58-.92-.47-.9-.34-1.71.38-2.43.89-.88,2-1.24,3.21-1.35h.12c1.92-.1,2.37.03,4.16,1.24-.11.34-.22.7-.34,1.06-.12.34-.25.68-.43,1.13"/>
  <path class="st0" d="M213.8,185.49c0,.55.05,1-.02,1.42-.05.25-.24.52-.45.69-1.43,1.15-3.04,1.7-4.89,1.36-.14-.03-.27-.07-.4-.12-.58-.22-.62-.28-.62-.93v-8.85h-1.28c0-.35-.03-.66-.05-1.02.44-.02.84-.04,1.28-.06.11-1.14.12-2.31,1.09-3.14.57-.49,1.2-.86,1.97-1.15v4.3h2.23v1.03h-2.19c0,.27-.03.46-.03.66v6.34c0,.91.84,1.46,1.65,1.03.43-.23.78-.61,1.16-.94.17-.15.32-.35.55-.61"/>
  <path class="st0" d="M268.68,173.69v4.29h2.19v1.05h-2.15c-.01.26-.04.46-.04.65,0,2.11.02,4.23-.01,6.34,0,.46.11.77.51,1,.39.22.79.25,1.14.03.42-.27.79-.61,1.16-.94.18-.15.31-.35.57-.5,0,.41.05.83-.02,1.22-.04.26-.2.54-.4.71-1.47,1.22-3.13,1.78-5.05,1.4-.1-.02-.19-.06-.29-.09-.59-.23-.63-.28-.63-.92v-8.85c-.46-.02-.86-.04-1.28-.06v-.98c.39-.02.78-.04,1.25-.06.08-1.2.13-2.43,1.2-3.26.54-.41,1.11-.77,1.84-1.03"/>
  <path class="st0" d="M79.21,185.84c0,.38-.02.64,0,.89.03.32-.1.53-.35.71-.78.57-1.63.98-2.58,1.13-1.82.3-3.64.32-5.47.06-1.3-.19-2.05-.93-2.35-2.18-.32-1.33-.38-2.68-.07-4.01.54-2.33,2.13-3.62,4.37-4.18,1.18-.29,2.39-.34,3.59-.14.28.04.56.12.81.23.72.33,1.09,1.26.82,2-.22.59-1.21.89-1.82.51-.3-.19-.54-.47-.81-.71-.27-.25-.5-.53-.81-.72-1.11-.75-2.44-.32-2.93.92-.11.28-.2.58-.24.87-.16,1.25-.17,2.5.09,3.72.3,1.42,1.02,2.14,2.47,2.37.69.11,1.4.11,2.1.09.74-.03,1.42-.29,2.02-.73.34-.25.69-.49,1.14-.82"/>
  <path class="st0" d="M170.92,185.89c.04.09.06.11.06.13.08,1.18.03,1.27-1,1.85-.74.42-1.55.67-2.4.78-1.66.2-3.33.22-4.99-.02-1.27-.19-2.03-.91-2.33-2.13-.33-1.35-.4-2.72-.08-4.07.54-2.3,2.11-3.6,4.32-4.16,1.22-.31,2.47-.35,3.72-.15,1,.16,1.51.65,1.6,1.52.05.44.04.86-.39,1.13-.47.29-.99.39-1.49.08-.3-.19-.54-.47-.81-.71-.25-.23-.48-.5-.75-.69-1.13-.77-2.47-.36-2.98.9-.07.17-.12.34-.16.52-.27,1.42-.26,2.84.06,4.25.27,1.24,1.07,1.98,2.31,2.16.73.1,1.49.12,2.23.1.84-.03,1.59-.39,2.27-.9.25-.19.51-.38.81-.59"/>
  <path class="st0" d="M177.02,187.69c-1.42.56-2.77,1.1-4.22,1.68v-7.91c0-.48-.1-.86-.46-1.18-.18-.15-.32-.35-.54-.6,1.35-.7,2.65-1.38,4.03-2.11v1.34c.2,0,.37.02.49-.04.39-.2.77-.42,1.13-.67.63-.43,1.23-.91,1.87-1.33.27-.18.61-.26.98-.4.1.54.05,1,.06,1.46v1.41c-.44.07-.84.11-1.22.18-1.22.24-2.22.83-2.94,1.84-.13.19-.24.43-.24.66-.05,1.22-.02,2.45.18,3.67.12.72.28,1.41.87,2"/>
  <path class="st0" d="M214.5,179.12c1.41-.45,2.62-1.2,4.03-1.66v8.59c0,.25-.06.53.2.72.36.26.66.64,1.14.63.19,0,.41-.14.57-.28.46-.39.9-.8,1.46-1.3,0,.47.03.82,0,1.16,0,.12-.13.25-.23.32-.55.41-1.11.8-1.68,1.19-.12.09-.29.17-.44.18-.82.05-1.65.09-2.47.12-.11,0-.24-.05-.33-.12-.37-.27-.75-.54-1.09-.86-.12-.12-.18-.35-.18-.53v-6.52c0-.35-.07-.61-.34-.86-.23-.21-.41-.48-.64-.78"/>
  <path class="st0" d="M309.64,185.9c.04.11.06.13.07.15.05.7-.22,1.25-.8,1.66-.1.07-.2.13-.29.21-.79.76-1.76.91-2.79.89-.18,0-.36-.02-.54,0-.4.03-.75-.07-1.02-.4-.05-.06-.11-.12-.18-.15-.74-.33-.84-.93-.82-1.67.05-1.91,0-3.83.02-5.74,0-.41-.06-.73-.4-1.01-.21-.17-.36-.43-.56-.68,1.33-.58,2.6-1.13,3.97-1.72.01.31.04.51.04.73v7.85c0,.25-.08.53.17.73.34.27.65.63,1.12.65.18,0,.39-.1.54-.21.34-.27.66-.59.99-.88.14-.13.3-.26.48-.41"/>
  <path class="st0" d="M50.44,188.35c-1.16,0-2.07-.89-2.08-2.05,0-1.13.87-2.03,2-2.05,1.17-.02,2.09.86,2.11,2.01s-.89,2.08-2.04,2.09"/>
  <path class="st0" d="M40.22,188.35c-1.14,0-2.07-.94-2.05-2.08,0-1.14.94-2.03,2.1-2.02,1.12,0,2.02.92,2.03,2.04,0,1.14-.93,2.06-2.08,2.06"/>
  <path class="st0" d="M218.53,174.82c0,1-1.4,2-2.35,1.7-.53-.17-.91-.99-.64-1.56.32-.67.83-1.19,1.61-1.33.89-.16,1.39.28,1.38,1.19"/>
  <path class="st0" d="M306.32,174.94c-.03.07-.06.28-.15.44-.35.56-.8,1.01-1.47,1.16-.42.09-.83.07-1.11-.27-.31-.37-.44-.86-.24-1.3.3-.68.82-1.2,1.6-1.35.89-.17,1.39.28,1.39,1.31"/>
</svg>