<?xml version="1.0" encoding="UTF-8"?>
<svg id="Layer_1" xmlns="http://www.w3.org/2000/svg" version="1.1" viewBox="0 0 154 32">
  <!-- Generator: Adobe Illustrator 30.0.0, SVG Export Plug-In . SVG Version: 2.1.1 Build 123)  -->
  <defs>
    <style>
      .st0 {
        fill: #ed1e6d;
      }

      .st1 {
        fill: #fff;
        fill-rule: evenodd;
      }

      .st2 {
        isolation: isolate;
      }
    </style>
  </defs>
  <path class="st0" d="M0,8.42C0,3.77,3.77,0,8.42,0h15.16c4.65,0,8.42,3.77,8.42,8.42v15.16c0,4.65-3.77,8.42-8.42,8.42h-15.16c-4.65,0-8.42-3.77-8.42-8.42v-15.16Z"/>
  <g class="st2">
    <path d="M39.25,9.05h4.83c2.03,0,3.72.66,5.09,1.97,1.37,1.31,2.05,2.97,2.05,4.98s-.68,3.66-2.05,4.98c-1.37,1.32-3.06,1.97-5.09,1.97h-4.83v-13.9ZM48.48,16c0-1.26-.43-2.34-1.29-3.25-.86-.91-1.9-1.36-3.11-1.36h-2.2v9.23h2.2c1.21,0,2.25-.45,3.11-1.35.86-.9,1.29-1.99,1.29-3.26Z"/>
    <path d="M58.33,11.9c.57,0,1.11.09,1.63.26l-.83,2.39c-.28-.08-.55-.13-.8-.13-.75,0-1.4.27-1.93.81s-.8,1.2-.8,1.96v5.75h-2.63v-10.73h2.63v1.59c.75-1.27,1.66-1.91,2.72-1.91Z"/>
    <path d="M71.73,17.58c0,.36-.05.75-.14,1.18h-8.64c.19.64.57,1.17,1.14,1.58.57.42,1.2.62,1.88.62.6,0,1.18-.14,1.74-.43.56-.29.97-.66,1.24-1.12l1.79,1.57c-.54.71-1.23,1.26-2.07,1.67s-1.74.61-2.71.61c-1.63,0-3.01-.55-4.15-1.64-1.14-1.09-1.71-2.44-1.71-4.05s.57-2.95,1.71-4.04c1.14-1.09,2.52-1.63,4.15-1.63s2.95.55,4.08,1.65c1.12,1.1,1.69,2.44,1.69,4.02ZM62.96,16.54h5.95c-.16-.69-.52-1.26-1.06-1.71s-1.17-.67-1.89-.67-1.34.22-1.91.67c-.57.45-.93,1.01-1.1,1.7Z"/>
    <path d="M82.32,22.95v-1.72h-.04c-.34.57-.82,1.05-1.42,1.44-.61.4-1.32.59-2.15.59-1.58,0-2.92-.54-4.03-1.63-1.11-1.09-1.66-2.44-1.66-4.06s.55-2.95,1.66-4.04c1.11-1.09,2.45-1.63,4.03-1.63,1.46,0,2.65.62,3.57,1.87h.04v-1.56h2.63v10.73h-2.63ZM82.32,17.58c0-.91-.32-1.68-.95-2.33-.64-.64-1.41-.97-2.32-.97s-1.68.32-2.32.97c-.64.65-.96,1.42-.96,2.32s.32,1.7.96,2.35c.64.65,1.42.97,2.32.97s1.69-.32,2.33-.97c.63-.65.95-1.43.95-2.35Z"/>
    <path d="M89.8,22.95h-2.63v-10.73h2.63v1.57h.04c.68-1.26,1.56-1.89,2.65-1.89.73,0,1.34.19,1.83.58.49.38.86.87,1.11,1.47.24-.53.63-1,1.2-1.42.56-.42,1.19-.62,1.88-.62,1.25,0,2.24.39,2.96,1.17.72.78,1.09,1.82,1.09,3.14v6.74h-2.63v-6.79c0-.53-.18-.98-.54-1.34-.36-.36-.8-.54-1.33-.54s-.96.18-1.33.54c-.37.36-.55.81-.55,1.34v6.79h-2.63v-6.79c0-.53-.18-.98-.53-1.34-.36-.36-.8-.54-1.33-.54s-.96.18-1.33.54-.55.81-.55,1.34v6.79Z"/>
    <path d="M116.86,23.27c-2.1,0-3.88-.7-5.35-2.1s-2.2-3.12-2.2-5.16.73-3.76,2.2-5.16,3.25-2.1,5.35-2.1c1.12,0,2.17.23,3.16.7.98.46,1.81,1.11,2.48,1.94l-1.8,1.75c-.47-.59-1.04-1.07-1.71-1.45-.67-.37-1.38-.56-2.13-.56-1.33,0-2.47.48-3.41,1.44-.94.96-1.41,2.11-1.41,3.46s.47,2.5,1.41,3.46c.94.96,2.07,1.44,3.41,1.44.75,0,1.46-.19,2.13-.56.67-.37,1.23-.85,1.71-1.45l1.8,1.75c-.67.83-1.5,1.47-2.48,1.94-.98.46-2.04.7-3.16.7Z"/>
    <path d="M135.25,13.79c0,.98-.26,1.85-.78,2.61-.52.77-1.21,1.33-2.07,1.7l2.46,4.84h-2.92l-2.21-4.41h-2.85v4.41h-2.63v-13.9h6.12c1.36,0,2.51.45,3.46,1.36.95.91,1.43,2.04,1.43,3.38ZM131.88,15.5c.42-.47.63-1.04.63-1.71s-.21-1.23-.63-1.71c-.42-.47-.92-.71-1.52-.71h-3.48v4.82h3.48c.59,0,1.1-.24,1.52-.71Z"/>
    <path d="M144.14,14.76l4.42-5.71h2.62v13.9h-2.62v-9.78h-.06l-4.35,5.72-4.35-5.72h-.05v9.78h-2.63v-13.9h2.63l4.41,5.71Z"/>
  </g>
  <path class="st1" d="M15.49,4.58s.07.02.11.02c.5.02,1.01.07,1.5.15,1.6.27,3.07.83,4.38,1.81.75.56,1.38,1.24,1.84,2.06.32.58.54,1.19.61,1.85.12.97-.05,1.9-.49,2.78-.42.84-1.01,1.53-1.73,2.12-.84.69-1.79,1.18-2.81,1.53-.7.24-1.42.41-2.16.51-.68.09-1.36.12-2.05.1-1.61-.07-3.15-.43-4.58-1.17-.83-.43-1.58-.97-2.22-1.65-.62-.66-1.08-1.41-1.34-2.29-.32-1.12-.24-2.22.22-3.28.34-.79.84-1.45,1.47-2.03.83-.77,1.78-1.33,2.83-1.74.8-.31,1.62-.52,2.47-.63.39-.05.79-.09,1.19-.11.05,0,.1-.01.15-.02h.61,0Z"/>
  <path class="st1" d="M18.81,23.08c-.82,0-1.6-.16-2.34-.52-.42-.21-.8-.48-1.1-.84-.24-.28-.4-.6-.47-.96-.08-.4-.02-.79.16-1.16.2-.42.52-.74.9-1.01.5-.35,1.06-.57,1.66-.7.48-.1.96-.14,1.45-.12.76.04,1.49.2,2.17.56.37.2.71.44.99.76.24.27.41.58.49.94.1.47.02.91-.21,1.32-.2.36-.48.64-.8.88-.51.37-1.08.59-1.68.73-.4.09-.8.13-1.21.13"/>
  <path class="st1" d="M15.84,26.5c-.55,0-1.02-.1-1.46-.32-.27-.14-.51-.32-.69-.57-.3-.42-.31-.91-.01-1.33.17-.26.41-.44.68-.58.37-.2.77-.29,1.19-.32.46-.03.91.02,1.35.17.33.12.63.29.87.54.2.2.33.44.37.72.03.22-.01.42-.11.62-.09.19-.23.35-.39.49-.33.28-.72.44-1.13.53-.12.03-.25.04-.37.06-.11.01-.23.01-.29.02"/>
</svg>