<?xml version="1.0" encoding="UTF-8"?>
<svg id="Layer_1" xmlns="http://www.w3.org/2000/svg" version="1.1" viewBox="0 0 154 32">
  <!-- Generator: Adobe Illustrator 30.1.0, SVG Export Plug-In . SVG Version: 2.1.1 Build 136)  -->
  <defs>
    <style>
      .st0, .st1, .st2 {
        fill: #fff;
      }

      .st1 {
        fill-rule: evenodd;
      }

      .st2 {
        font-family: Kaleko105-Bold, 'Kaleko 105';
        font-size: 18.64px;
        font-weight: 700;
      }
    </style>
  </defs>
  <g>
    <path class="st1" d="M58.84,20.87c-.11-.13-.2-.22-.33-.33-.53-.42-2.18-2-2.66-2.36-.32.25-.59.81-1.58,1.29-.74.36-1.63.46-2.52.24-3.17-.8-3.19-6.08.03-6.88.81-.21,1.76-.11,2.45.23.41.2.95.59,1.24.91.12.13.23.29.36.4l3-2.68c-.3-.49-1.05-1.15-1.55-1.48-4.66-3.07-12.73-.92-12.74,6.05-.02,7.05,8.14,9.13,12.72,6.11.54-.35,1.29-1,1.59-1.5"/>
    <path class="st1" d="M22.64,23.5c.26-.05,1.42-.3,2.47-.99.57-.37.96-.7,1.41-1.15.08-.09.33-.39.4-.5l-3.01-2.68c-.57.53-.71.86-1.58,1.29-1.91.95-4.86.07-4.87-3.17-.02-3.88,4.09-4.52,6.1-2.33.13.15.2.26.36.4l3-2.68c-.24-.44-1.05-1.13-1.51-1.45-.19-.13-.41-.27-.63-.4-4.58-2.48-11.86-.35-12.15,6.01-.09,2.03.49,3.82,1.76,5.28.19.22.38.32.51.53.18.13.29.24.48.37.17.13.31.23.5.35.23.16.82.5,1.12.6,1.33.44,1.82.67,3.38.7,1.03.03,1.69-.06,2.28-.18"/>
    <path class="st1" d="M-.08,2.71c.68.07,1.49.16,2.15.3.66.14,1.29.34,1.9.56,1.51.55,2.74,1.31,3.89,2.21l.67.56c.21.23.42.37.63.6l.59.64c.22.23.6.75.81,1.02.15.19.14.15.07.44-.14.65-.34,1.4-.44,2.05l1.37-.97c.14.17.55.87.69,1.14l.13.18c.1-.61.24-1.23.35-1.85.04-.23,0-.25.19-.35l1.07-.59c2.19-1.11,4.8-1.66,7.33-1.49,1.25.08,1.7.17,2.82.49.21.06.68.22.87.23-1.97-.77-3.89-1.38-6.02-1.75-4.16-.71-6.39.21-6.59.19-.08,0-.11-.06-.16-.1-.05-.04-.08-.07-.14-.12-.27-.23-.83-.61-1.15-.79-2.37-1.4-4.62-1.98-7.4-2.34-.57-.07-1.17-.15-1.75-.19l-1.88-.05H-.08Z"/>
    <path class="st1" d="M58.49,9.15v-1.22h.37l.22.83.22-.83h.37v1.22h-.23v-.96l-.24.96h-.24l-.24-.96v.96h-.23ZM57.72,9.15v-1.01h-.36v-.21h.97v.21h-.36v1.01h-.25Z"/>
    <path class="st1" d="M33.12,19.64c1.26.04,2.92.12,3.89-.45l.04-.03.04-.03.04-.03s.03-.02.04-.03c.02-.01.03-.02.04-.03l.04-.03.04-.03s.03-.02.04-.03l.04-.03s.03-.02.04-.03l.04-.03.04-.03s.03-.02.04-.03c.01-.01.03-.02.04-.03l.04-.03s.02-.02.04-.03c.01-.01.02-.02.03-.03l.03-.04.03-.04s.02-.03.03-.04c.01-.01.02-.03.03-.04l.03-.04s.02-.03.03-.04l.03-.04s.02-.03.03-.04c.01-.01.02-.03.03-.04.01-.02.02-.03.03-.04.01-.02.02-.03.03-.04,0-.02.02-.03.03-.04.01-.02.02-.03.03-.04.01-.02.02-.03.03-.04.01-.02.02-.03.03-.04.01-.02.02-.03.03-.04,0-.02.02-.03.03-.05,0-.02.02-.03.02-.05,0-.02.02-.03.02-.05,0-.02.02-.03.02-.05s.02-.03.02-.05l.02-.05s.01-.03.02-.05c0-.02.01-.03.02-.05,0-.02.01-.03.02-.05h0s.01-.04.02-.05.01-.04.02-.05l.02-.05s.01-.04.02-.05c0-.02.01-.04.02-.05,0-.02.01-.04.02-.06,0-.02.01-.04.01-.06,0-.02.01-.04.01-.06,0-.02,0-.04.01-.06v-.06h.01s0-.04.01-.06h0s0-.04.01-.06h0s0-.04.01-.06c0-.02,0-.04,0-.06s0-.04,0-.06v-.06s.01-.04.01-.06,0-.04,0-.07c0-.02,0-.04,0-.07h0v-.21h0v-.21s0-.04,0-.07c0-.02,0-.04,0-.07v-.06s-.01-.04-.01-.06,0-.04,0-.06,0-.04,0-.06,0-.04,0-.06c0-.02,0-.04-.01-.06h0s0-.04-.01-.06h0s0-.04-.01-.06c0-.02,0-.04-.01-.06h0s0-.04-.01-.06c0-.02-.01-.04-.01-.06,0-.02-.01-.04-.02-.06,0-.02-.01-.04-.02-.06,0-.02-.01-.04-.02-.05s-.01-.04-.02-.05l-.02-.05s-.01-.04-.02-.05c0-.02-.01-.04-.02-.05s-.01-.04-.02-.05c0-.02-.01-.03-.02-.05,0-.02-.01-.03-.02-.05h0s-.02-.03-.02-.05c0-.02-.02-.03-.02-.05,0-.02-.02-.03-.02-.05l-.02-.05s-.02-.03-.02-.05c0-.02-.02-.03-.03-.05-.01-.02-.02-.03-.03-.04-.01-.02-.02-.03-.03-.04-.01-.02-.02-.03-.03-.04-.01-.02-.02-.03-.03-.04-.01-.02-.02-.03-.03-.04-.01-.02-.02-.03-.03-.04-.01-.02-.02-.03-.03-.04-.01-.02-.02-.03-.03-.04-.01-.02-.02-.03-.03-.04-.01-.01-.02-.03-.03-.04-.01-.01-.02-.03-.03-.04s-.02-.03-.03-.04c-.01-.01-.02-.03-.03-.04h0s-.02-.03-.03-.04c-.01-.01-.02-.02-.03-.04-.01-.01-.02-.02-.03-.04l-.03-.03h0s-.02-.02-.04-.03c-.01-.01-.02-.02-.04-.03l-.04-.03s-.03-.02-.04-.03c-.01-.01-.03-.02-.04-.03l-.04-.03s-.03-.02-.04-.03c-.01-.01-.03-.02-.04-.03l-.04-.03h0s-.03-.02-.04-.03l-.04-.03-.04-.03-.04-.03-.04-.03-.04-.03s-.03-.02-.05-.03c-.02-.01-.03-.02-.05-.03-.02-.01-.03-.02-.05-.03h0s-.03-.02-.05-.03c-.02-.01-.03-.02-.05-.02-.02,0-.04-.02-.05-.02h0s-.04-.02-.05-.02c-.02,0-.04-.02-.05-.02-.02,0-.04-.02-.05-.02-.02,0-.04-.01-.05-.02h0s-.04-.01-.05-.02c-.02,0-.04-.01-.06-.02s-.04-.01-.06-.02h0s-.04-.01-.06-.02c-.02,0-.04-.01-.06-.02l-.06-.02h0s-.04-.01-.06-.02c-.02,0-.04-.01-.06-.01-.02,0-.04-.01-.06-.01h-.06s-.06-.02-.06-.02h-.06s-.06-.02-.06-.02h-.06s-.06-.02-.06-.02h-.06s-.06-.01-.06-.01h-.06s-.06-.01-.06-.01h-.06s-.06-.01-.06-.01h-.06s-.06-.01-.06-.01h-.06s-.06-.01-.06-.01h-.06s-.06,0-.06,0h-1.71l-.05,6.75h0ZM28.32,23.36c.84.06,4.39.01,5.52.01,1.88,0,3.27.04,4.96-.56,2.58-.9,4.56-3.09,4.57-6.51.01-3.45-1.97-5.62-4.53-6.55-1.67-.6-3.08-.57-4.95-.57-1.14,0-4.72-.06-5.56.01v14.17h0Z"/>
    <path class="st1" d="M58.84,20.87c-.11-.13-.2-.22-.33-.33-.53-.42-2.18-2-2.66-2.36-.32.25-.59.81-1.58,1.29-.74.36-1.63.46-2.52.24-3.17-.8-3.19-6.08.03-6.88.81-.21,1.76-.11,2.45.23.41.2.95.59,1.24.91.12.13.23.29.36.4l3-2.68c-.3-.49-1.05-1.15-1.55-1.48-4.66-3.07-12.73-.92-12.74,6.05-.02,7.05,8.14,9.13,12.72,6.11.54-.35,1.29-1,1.59-1.5"/>
    <path class="st1" d="M22.64,23.5c.26-.05,1.42-.3,2.47-.99.57-.37.96-.7,1.41-1.15.08-.09.33-.39.4-.5l-3.01-2.68c-.57.53-.71.86-1.58,1.29-1.91.95-4.86.07-4.87-3.17-.02-3.88,4.09-4.52,6.1-2.33.13.15.2.26.36.4l3-2.68c-.24-.44-1.05-1.13-1.51-1.45-.19-.13-.41-.27-.63-.4-4.58-2.48-11.86-.35-12.15,6.01-.09,2.03.49,3.82,1.76,5.28.19.22.38.32.51.53.18.13.29.24.48.37.17.13.31.23.5.35.23.16.82.5,1.12.6,1.33.44,1.82.67,3.38.7,1.03.03,1.69-.06,2.28-.18"/>
    <path class="st1" d="M-.08,2.71c.68.07,1.49.16,2.15.3.66.14,1.29.34,1.9.56,1.51.55,2.74,1.31,3.89,2.21l.67.56c.21.23.42.37.63.6l.59.64c.22.23.6.75.81,1.02.15.19.14.15.07.44-.14.65-.34,1.4-.44,2.05l1.37-.97c.14.17.55.87.69,1.14l.13.18c.1-.61.24-1.23.35-1.85.04-.23,0-.25.19-.35l1.07-.59c2.19-1.11,4.8-1.66,7.33-1.49,1.25.08,1.7.17,2.82.49.21.06.68.22.87.23-1.97-.77-3.89-1.38-6.02-1.75-4.16-.71-6.39.21-6.59.19-.08,0-.11-.06-.16-.1-.05-.04-.08-.07-.14-.12-.27-.23-.83-.61-1.15-.79-2.37-1.4-4.62-1.98-7.4-2.34-.57-.07-1.17-.15-1.75-.19l-1.88-.05H-.08Z"/>
    <polygon class="st1" points="14.59 25.34 15.38 25.34 15.38 29.21 14.59 29.21 14.59 25.34 14.59 25.34"/>
    <path class="st1" d="M19.49,29.22h-.75v-1.43c0-.3-.02-.5-.05-.59-.03-.09-.08-.16-.16-.21-.07-.05-.16-.07-.26-.07-.13,0-.25.04-.35.11-.11.07-.17.16-.21.28-.04.12-.06.33-.06.64v1.27h-.75v-2.81h.69v.41c.25-.32.56-.47.93-.47.16,0,.32.03.46.09.14.06.24.13.31.23.07.09.12.2.15.31.03.12.04.28.04.5v1.74h0Z"/>
    <path class="st1" d="M22.34,26.4v.59h-.51v1.14c0,.23,0,.36.02.4.01.04.03.07.07.1.04.03.07.04.13.04.07,0,.17-.02.3-.07l.06.58c-.17.07-.37.11-.59.11-.13,0-.25-.02-.36-.07-.11-.05-.18-.11-.24-.17-.05-.07-.08-.17-.11-.29-.02-.08-.02-.26-.02-.53v-1.23h-.34v-.59h.34v-.56l.75-.44v1h.5Z"/>
    <path class="st1" d="M25.34,27.58c0-.22-.06-.38-.16-.49-.11-.11-.23-.17-.39-.17-.16,0-.3.06-.4.18-.11.12-.16.28-.15.48h1.1ZM25.29,28.32l.75.13c-.1.27-.25.48-.45.62-.21.14-.47.21-.77.21-.49,0-.85-.16-1.08-.48-.18-.26-.28-.58-.28-.97,0-.46.12-.83.36-1.09.24-.26.55-.39.92-.39.42,0,.75.14.99.42.24.27.36.7.35,1.27h-1.86c0,.22.06.39.18.51.12.12.26.18.43.18.12,0,.22-.03.29-.09.07-.07.14-.17.17-.31h0Z"/>
    <path class="st1" d="M28.21,29.21h-.75v-2.8h.69v.4c.12-.19.23-.31.32-.37.1-.06.2-.09.32-.09.17,0,.33.05.49.14l-.23.65c-.13-.08-.24-.12-.35-.12s-.2.03-.26.08c-.07.06-.13.16-.17.31-.04.15-.06.46-.06.94v.86h0Z"/>
    <path class="st1" d="M32.99,29.22h-.75v-1.43c0-.3-.02-.5-.05-.59-.03-.09-.08-.16-.16-.21-.07-.05-.16-.07-.26-.07-.13,0-.25.04-.35.11-.11.07-.17.16-.21.28-.04.12-.06.33-.06.64v1.27h-.75v-2.81h.69v.41c.25-.32.56-.47.93-.47.16,0,.32.03.46.09.14.06.24.13.31.23.07.09.12.2.15.31.03.12.04.28.04.5v1.74h0Z"/>
    <path class="st1" d="M36.1,27.87c-.1.03-.25.07-.45.12-.21.04-.34.09-.41.13-.1.07-.15.16-.15.26s.04.19.12.27c.08.07.17.12.3.12.13,0,.26-.04.39-.13.09-.07.15-.15.18-.25.02-.06.03-.18.03-.36v-.15h0ZM35.1,27.27l-.67-.12c.07-.27.21-.47.39-.61.19-.13.46-.19.83-.19.33,0,.58.04.74.12.16.08.28.18.34.3.07.12.1.34.1.66v.86c-.01.25,0,.43.03.54.02.12.07.24.13.37h-.74s-.04-.12-.07-.22c-.01-.04-.02-.07-.03-.08-.13.13-.26.22-.41.28-.14.06-.3.09-.46.09-.29,0-.52-.08-.68-.24-.16-.16-.25-.35-.25-.59,0-.16.04-.3.12-.42.07-.12.18-.22.32-.28.14-.06.33-.12.59-.17.35-.06.59-.13.72-.18v-.07c0-.14-.04-.25-.11-.31-.07-.06-.21-.09-.4-.09-.13,0-.24.03-.31.08-.07.05-.13.15-.18.28h0Z"/>
    <path class="st1" d="M39.67,26.4v.59h-.51v1.14c0,.23,0,.36.02.4.01.04.03.07.07.1.04.03.07.04.13.04.07,0,.17-.02.3-.07l.06.58c-.17.07-.37.11-.59.11-.13,0-.25-.02-.36-.07-.11-.05-.18-.11-.24-.17-.05-.07-.08-.17-.11-.29-.02-.08-.02-.26-.02-.53v-1.23h-.34v-.59h.34v-.56l.75-.44v1h.5Z"/>
    <path class="st1" d="M41,29.21v-2.8h.74v2.8h-.74ZM41,26.02v-.68h.74v.68h-.74Z"/>
    <path class="st1" d="M43.91,27.81c0,.28.07.49.2.64.13.15.3.22.49.22s.35-.07.49-.22c.13-.15.2-.36.2-.64s-.06-.48-.2-.63c-.13-.15-.3-.22-.49-.22s-.36.07-.49.22c-.13.15-.2.36-.2.64M43.14,27.78c0-.25.06-.48.19-.72.12-.23.3-.41.52-.53.22-.12.47-.18.75-.18.43,0,.77.14,1.05.42.27.27.41.63.41,1.05s-.14.78-.41,1.06c-.28.28-.62.42-1.04.42-.26,0-.5-.06-.74-.17-.23-.12-.41-.28-.53-.51-.12-.24-.18-.51-.18-.83h0Z"/>
    <path class="st1" d="M50,29.22h-.74v-1.43c0-.3-.02-.5-.05-.59-.03-.09-.08-.16-.16-.21-.07-.05-.16-.07-.26-.07-.13,0-.25.04-.35.11-.11.07-.17.16-.21.28-.04.12-.06.33-.06.64v1.27h-.74v-2.81h.69v.41c.25-.32.55-.47.93-.47.16,0,.32.03.45.09.14.06.24.13.31.23.07.09.12.2.15.31.03.12.04.28.04.5v1.74h0Z"/>
    <path class="st1" d="M53.12,27.87c-.09.03-.25.07-.45.12-.21.04-.34.09-.41.13-.09.07-.15.16-.15.26s.04.19.12.27c.08.07.17.12.29.12.13,0,.26-.04.38-.13.09-.07.15-.15.18-.25.02-.06.03-.18.03-.36v-.15h0ZM52.12,27.27l-.67-.12c.07-.27.21-.47.39-.61.18-.13.46-.19.82-.19.33,0,.58.04.74.12.16.08.27.18.34.3.07.12.1.34.1.66v.86c-.01.25,0,.43.03.54.02.12.07.24.13.37h-.74s-.04-.12-.07-.22c-.01-.04-.02-.07-.03-.08-.13.13-.26.22-.41.28-.14.06-.29.09-.46.09-.29,0-.52-.08-.68-.24-.16-.16-.25-.35-.25-.59,0-.16.04-.3.12-.42.07-.12.18-.22.32-.28.14-.06.33-.12.59-.17.35-.06.58-.13.72-.18v-.07c0-.14-.04-.25-.11-.31-.07-.06-.21-.09-.4-.09-.13,0-.24.03-.31.08-.07.05-.13.15-.18.28h0Z"/>
    <polygon class="st1" points="55.4 25.34 56.14 25.34 56.14 29.21 55.4 29.21 55.4 25.34 55.4 25.34"/>
  </g>
  <text class="st2" transform="translate(69.57 23.74)"><tspan x="0" y="0">Insights</tspan></text>
  <rect class="st0" x="64.26" y="3.94" width=".34" height="25.87"/>
</svg>