<?xml version="1.0" encoding="UTF-8"?>
<svg id="Layer_1" xmlns="http://www.w3.org/2000/svg" version="1.1" viewBox="0 0 154 32">
  <!-- Generator: Adobe Illustrator 30.1.0, SVG Export Plug-In . SVG Version: 2.1.1 Build 136)  -->
  <defs>
    <style>
      .st0, .st1 {
        fill: #fff;
      }

      .st1 {
        fill-rule: evenodd;
      }

      .st2 {
        isolation: isolate;
      }
    </style>
  </defs>
  <g>
    <path class="st1" d="M61.41,20.99c-.12-.14-.22-.24-.36-.36-.57-.45-2.36-2.16-2.88-2.55-.35.27-.64.88-1.71,1.4-.8.39-1.76.5-2.73.26-3.43-.87-3.45-6.58.03-7.44.88-.23,1.9-.12,2.65.25.44.22,1.03.64,1.34.98.13.14.25.31.39.43l3.24-2.9c-.32-.53-1.14-1.24-1.68-1.6-5.04-3.32-13.77-1-13.78,6.54-.02,7.62,8.8,9.87,13.76,6.61.58-.38,1.4-1.08,1.72-1.62"/>
    <path class="st1" d="M22.26,23.83c.28-.05,1.54-.32,2.67-1.07.62-.4,1.04-.76,1.52-1.24.09-.1.36-.42.43-.54l-3.26-2.9c-.62.57-.77.93-1.71,1.4-2.07,1.03-5.26.08-5.27-3.43-.02-4.2,4.42-4.89,6.6-2.52.14.16.22.28.39.43l3.24-2.9c-.26-.48-1.14-1.22-1.63-1.57-.21-.14-.44-.29-.68-.43-4.95-2.68-12.83-.38-13.14,6.5-.1,2.2.53,4.13,1.9,5.71.21.24.41.35.55.57.19.14.31.26.52.4.18.14.34.25.54.38.25.17.89.54,1.21.65,1.44.48,1.97.72,3.66.76,1.11.03,1.83-.06,2.47-.19"/>
    <path class="st1" d="M-2.31,1.35c.74.08,1.61.17,2.33.32.71.15,1.4.37,2.05.61,1.63.59,2.96,1.42,4.21,2.39l.72.61c.23.25.45.4.68.65l.64.69c.24.25.65.81.88,1.1.16.21.15.16.08.48-.15.7-.37,1.51-.48,2.22l1.48-1.05c.15.18.59.94.75,1.23l.14.19c.11-.66.26-1.33.38-2,.04-.25,0-.27.21-.38l1.16-.64c2.37-1.2,5.19-1.8,7.93-1.61,1.35.09,1.84.18,3.05.53.23.06.74.24.94.25-2.13-.83-4.21-1.49-6.51-1.89-4.5-.77-6.91.23-7.13.21-.09,0-.12-.06-.17-.11s-.09-.08-.15-.13c-.29-.25-.9-.66-1.24-.85C7.05,2.64,4.62,2.02,1.61,1.63c-.62-.08-1.27-.16-1.89-.21l-2.03-.05h0v-.02Z"/>
    <path class="st1" d="M61.03,8.31v-1.32h.4l.24.9.24-.9h.4v1.32h-.25v-1.04l-.26,1.04h-.26l-.26-1.04v1.04s-.25,0-.25,0ZM60.2,8.31v-1.09h-.39v-.23h1.05v.23h-.39v1.09h-.27Z"/>
    <path class="st1" d="M33.59,19.66c1.36.04,3.16.13,4.21-.49l.04-.03.04-.03.04-.03s.03-.02.04-.03c.02-.01.03-.02.04-.03l.04-.03.04-.03s.03-.02.04-.03l.04-.03s.03-.02.04-.03l.04-.03.04-.03s.03-.02.04-.03c.01-.01.03-.02.04-.03l.04-.03s.02-.02.04-.03c.01-.01.02-.02.03-.03l.03-.04.03-.04s.02-.03.03-.04.02-.03.03-.04l.03-.04s.02-.03.03-.04l.03-.04s.02-.03.03-.04.02-.03.03-.04c.01-.02.02-.03.03-.04.01-.02.02-.03.03-.04,0-.02.02-.03.03-.04.01-.02.02-.03.03-.04.01-.02.02-.03.03-.04.01-.02.02-.03.03-.04.01-.02.02-.03.03-.04,0-.02.02-.03.03-.05,0-.02.02-.03.02-.05s.02-.03.02-.05.02-.03.02-.05.02-.03.02-.05l.02-.05s.01-.03.02-.05c0-.02.01-.03.02-.05,0-.02.01-.03.02-.05h0s.01-.04.02-.05.01-.04.02-.05l.02-.05s.01-.04.02-.05c0-.02.01-.04.02-.05,0-.02.01-.04.02-.06,0-.02.01-.04.01-.06s.01-.04.01-.06,0-.04.01-.06v-.06h.01s0-.04.01-.06h0s0-.04.01-.06h0s0-.04.01-.06v-.19s.01-.04.01-.06v-.15h0v-.23h0v-.44s-.01-.04-.01-.06v-.19s0-.04-.01-.06h0s0-.04-.01-.06h0s0-.04-.01-.06c0-.02,0-.04-.01-.06h0s0-.04-.01-.06c0-.02-.01-.04-.01-.06s-.01-.04-.02-.06c0-.02-.01-.04-.02-.06,0-.02-.01-.04-.02-.05s-.01-.04-.02-.05l-.02-.05s-.01-.04-.02-.05c0-.02-.01-.04-.02-.05s-.01-.04-.02-.05c0-.02-.01-.03-.02-.05,0-.02-.01-.03-.02-.05h0s-.02-.03-.02-.05-.02-.03-.02-.05-.02-.03-.02-.05l-.02-.05s-.02-.03-.02-.05-.02-.03-.03-.05-.02-.03-.03-.04c-.01-.02-.02-.03-.03-.04-.01-.02-.02-.03-.03-.04-.01-.02-.02-.03-.03-.04-.01-.02-.02-.03-.03-.04-.01-.02-.02-.03-.03-.04-.01-.02-.02-.03-.03-.04-.01-.02-.02-.03-.03-.04-.01-.02-.02-.03-.03-.04s-.02-.03-.03-.04-.02-.03-.03-.04-.02-.03-.03-.04-.02-.03-.03-.04h0s-.02-.03-.03-.04-.02-.02-.03-.04c-.01-.01-.02-.02-.03-.04l-.03-.03h0s-.02-.02-.04-.03c-.01-.01-.02-.02-.04-.03l-.04-.03s-.03-.02-.04-.03c-.01-.01-.03-.02-.04-.03l-.04-.03s-.03-.02-.04-.03c-.01-.01-.03-.02-.04-.03l-.04-.03h0s-.03-.02-.04-.03l-.04-.03-.04-.03-.04-.03-.04-.03-.04-.03s-.03-.02-.05-.03c-.02-.01-.03-.02-.05-.03-.02-.01-.03-.02-.05-.03h0s-.03-.02-.05-.03c-.02-.01-.03-.02-.05-.02s-.04-.02-.05-.02h0s-.04-.02-.05-.02c-.02,0-.04-.02-.05-.02-.02,0-.04-.02-.05-.02-.02,0-.04-.01-.05-.02h0s-.04-.01-.05-.02c-.02,0-.04-.01-.06-.02s-.04-.01-.06-.02h0s-.04-.01-.06-.02c-.02,0-.04-.01-.06-.02l-.06-.02h0s-.04-.01-.06-.02c-.02,0-.04-.01-.06-.01s-.04-.01-.06-.01h-.06l-.06-.02h-.06l-.06-.02h-.06l-.06-.02h-.13s-.06-.01-.06-.01h-.06s-.06-.01-.06-.01h-.06s-.06-.01-.06-.01h-.06s-.06-.01-.06-.01h-.06s-.06-.01-.06-.01h-1.91l-.05,7.3h0l-.05.09ZM28.4,23.68c.91.06,4.75.01,5.97.01,2.03,0,3.54.04,5.36-.61,2.79-.97,4.93-3.34,4.94-7.04.01-3.73-2.13-6.08-4.9-7.08-1.81-.65-3.33-.62-5.35-.62-1.23,0-5.1-.06-6.01.01v15.33h-.01Z"/>
    <path class="st1" d="M61.41,20.99c-.12-.14-.22-.24-.36-.36-.57-.45-2.36-2.16-2.88-2.55-.35.27-.64.88-1.71,1.4-.8.39-1.76.5-2.73.26-3.43-.87-3.45-6.58.03-7.44.88-.23,1.9-.12,2.65.25.44.22,1.03.64,1.34.98.13.14.25.31.39.43l3.24-2.9c-.32-.53-1.14-1.24-1.68-1.6-5.04-3.32-13.77-1-13.78,6.54-.02,7.62,8.8,9.87,13.76,6.61.58-.38,1.4-1.08,1.72-1.62"/>
    <path class="st1" d="M22.26,23.83c.28-.05,1.54-.32,2.67-1.07.62-.4,1.04-.76,1.52-1.24.09-.1.36-.42.43-.54l-3.26-2.9c-.62.57-.77.93-1.71,1.4-2.07,1.03-5.26.08-5.27-3.43-.02-4.2,4.42-4.89,6.6-2.52.14.16.22.28.39.43l3.24-2.9c-.26-.48-1.14-1.22-1.63-1.57-.21-.14-.44-.29-.68-.43-4.95-2.68-12.83-.38-13.14,6.5-.1,2.2.53,4.13,1.9,5.71.21.24.41.35.55.57.19.14.31.26.52.4.18.14.34.25.54.38.25.17.89.54,1.21.65,1.44.48,1.97.72,3.66.76,1.11.03,1.83-.06,2.47-.19"/>
    <path class="st1" d="M-2.31,1.35c.74.08,1.61.17,2.33.32.71.15,1.4.37,2.05.61,1.63.59,2.96,1.42,4.21,2.39l.72.61c.23.25.45.4.68.65l.64.69c.24.25.65.81.88,1.1.16.21.15.16.08.48-.15.7-.37,1.51-.48,2.22l1.48-1.05c.15.18.59.94.75,1.23l.14.19c.11-.66.26-1.33.38-2,.04-.25,0-.27.21-.38l1.16-.64c2.37-1.2,5.19-1.8,7.93-1.61,1.35.09,1.84.18,3.05.53.23.06.74.24.94.25-2.13-.83-4.21-1.49-6.51-1.89-4.5-.77-6.91.23-7.13.21-.09,0-.12-.06-.17-.11s-.09-.08-.15-.13c-.29-.25-.9-.66-1.24-.85C7.05,2.64,4.62,2.02,1.61,1.63c-.62-.08-1.27-.16-1.89-.21l-2.03-.05h0v-.02Z"/>
    <polygon class="st1" points="13.55 25.82 14.41 25.82 14.41 30.01 13.55 30.01 13.55 25.82 13.55 25.82"/>
    <path class="st1" d="M18.85,30.02h-.81v-1.55c0-.32-.02-.54-.05-.64-.03-.1-.09-.17-.17-.23-.08-.05-.17-.08-.28-.08-.14,0-.27.04-.38.12-.12.08-.18.17-.23.3-.04.13-.06.36-.06.69v1.37h-.81v-3.04h.75v.44c.27-.35.61-.51,1.01-.51.17,0,.35.03.5.1s.26.14.34.25c.08.1.13.22.16.34.03.13.04.3.04.54v1.88h.01Z"/>
    <path class="st1" d="M21.93,26.97v.64h-.55v1.23c0,.25,0,.39.02.43.01.04.03.08.08.11.04.03.08.04.14.04.08,0,.18-.02.32-.08l.06.63c-.18.08-.4.12-.64.12-.14,0-.27-.02-.39-.08s-.19-.12-.26-.18c-.05-.08-.09-.18-.12-.31-.02-.09-.02-.28-.02-.57v-1.33h-.37v-.64h.37v-.61l.81-.48v1.08h.54Z"/>
    <path class="st1" d="M25.18,28.24c0-.24-.06-.41-.17-.53-.12-.12-.25-.18-.42-.18s-.32.06-.43.19c-.12.13-.17.3-.16.52,0,0,1.19,0,1.19,0ZM25.12,29.04l.81.14c-.11.29-.27.52-.49.67-.23.15-.51.23-.83.23-.53,0-.92-.17-1.17-.52-.19-.28-.3-.63-.3-1.05,0-.5.13-.9.39-1.18s.59-.42,1-.42c.45,0,.81.15,1.07.45.26.29.39.76.38,1.37h-2.01c0,.24.06.42.19.55s.28.19.47.19c.13,0,.24-.03.31-.1.08-.08.15-.18.18-.34h0Z"/>
    <path class="st1" d="M28.28,30.01h-.81v-3.03h.75v.43c.13-.21.25-.34.35-.4.11-.06.22-.1.35-.1.18,0,.36.05.53.15l-.25.7c-.14-.09-.26-.13-.38-.13s-.22.03-.28.09c-.08.06-.14.17-.18.34s-.06.5-.06,1.02v.93h0Z"/>
    <path class="st1" d="M33.45,30.02h-.81v-1.55c0-.32-.02-.54-.05-.64s-.09-.17-.17-.23c-.08-.05-.17-.08-.28-.08-.14,0-.27.04-.38.12-.12.08-.18.17-.23.3-.04.13-.06.36-.06.69v1.37h-.81v-3.04h.75v.44c.27-.35.61-.51,1.01-.51.17,0,.35.03.5.1s.26.14.34.25c.08.1.13.22.16.34.03.13.04.3.04.54v1.88h.01Z"/>
    <path class="st1" d="M36.82,28.56c-.11.03-.27.08-.49.13-.23.04-.37.1-.44.14-.11.08-.16.17-.16.28s.04.21.13.29c.09.08.18.13.32.13s.28-.04.42-.14c.1-.08.16-.16.19-.27.02-.06.03-.19.03-.39v-.16h-.01ZM35.73,27.91l-.72-.13c.08-.29.23-.51.42-.66.21-.14.5-.21.9-.21.36,0,.63.04.8.13s.3.19.37.32c.08.13.11.37.11.71v.93c-.01.27,0,.47.03.58.02.13.08.26.14.4h-.8s-.04-.13-.08-.24c-.01-.04-.02-.08-.03-.09-.14.14-.28.24-.44.3-.15.06-.32.1-.5.1-.31,0-.56-.09-.74-.26s-.27-.38-.27-.64c0-.17.04-.32.13-.45.08-.13.19-.24.35-.3.15-.06.36-.13.64-.18.38-.06.64-.14.78-.19v-.08c0-.15-.04-.27-.12-.34s-.23-.1-.43-.1c-.14,0-.26.03-.34.09s-.14.16-.19.3h0Z"/>
    <path class="st1" d="M40.68,26.97v.64h-.55v1.23c0,.25,0,.39.02.43.01.04.03.08.08.11s.08.04.14.04c.08,0,.18-.02.32-.08l.06.63c-.18.08-.4.12-.64.12-.14,0-.27-.02-.39-.08s-.19-.12-.26-.18c-.05-.08-.09-.18-.12-.31-.02-.09-.02-.28-.02-.57v-1.33h-.37v-.64h.37v-.61l.81-.48v1.08h.54Z"/>
    <path class="st1" d="M42.12,30.01v-3.03h.8v3.03h-.8ZM42.12,26.56v-.74h.8v.74h-.8Z"/>
    <path class="st1" d="M45.26,28.49c0,.3.08.53.22.69s.32.24.53.24.38-.08.53-.24c.14-.16.22-.39.22-.69s-.06-.52-.22-.68c-.14-.16-.32-.24-.53-.24s-.39.08-.53.24-.22.39-.22.69M44.43,28.46c0-.27.06-.52.21-.78.13-.25.32-.44.56-.57s.51-.19.81-.19c.47,0,.83.15,1.14.45.29.29.44.68.44,1.14s-.15.84-.44,1.15c-.3.3-.67.45-1.12.45-.28,0-.54-.06-.8-.18-.25-.13-.44-.3-.57-.55-.13-.26-.19-.55-.19-.9h-.02Z"/>
    <path class="st1" d="M51.85,30.02h-.8v-1.55c0-.32-.02-.54-.05-.64s-.09-.17-.17-.23c-.08-.05-.17-.08-.28-.08-.14,0-.27.04-.38.12-.12.08-.18.17-.23.3s-.06.36-.06.69v1.37h-.8v-3.04h.75v.44c.27-.35.59-.51,1.01-.51.17,0,.35.03.49.1.15.06.26.14.34.25.08.1.13.22.16.34.03.13.04.3.04.54v1.88h0Z"/>
    <path class="st1" d="M55.22,28.56c-.1.03-.27.08-.49.13-.23.04-.37.1-.44.14-.1.08-.16.17-.16.28s.04.21.13.29c.09.08.18.13.31.13.14,0,.28-.04.41-.14.1-.08.16-.16.19-.27.02-.06.03-.19.03-.39v-.16h.01ZM54.14,27.91l-.72-.13c.08-.29.23-.51.42-.66.19-.14.5-.21.89-.21.36,0,.63.04.8.13s.29.19.37.32c.08.13.11.37.11.71v.93c-.01.27,0,.47.03.58.02.13.08.26.14.4h-.8s-.04-.13-.08-.24c-.01-.04-.02-.08-.03-.09-.14.14-.28.24-.44.3-.15.06-.31.1-.5.1-.31,0-.56-.09-.74-.26s-.27-.38-.27-.64c0-.17.04-.32.13-.45.08-.13.19-.24.35-.3.15-.06.36-.13.64-.18.38-.06.63-.14.78-.19v-.08c0-.15-.04-.27-.12-.34s-.23-.1-.43-.1c-.14,0-.26.03-.34.09s-.14.16-.19.3h.01Z"/>
    <polygon class="st1" points="57.69 25.82 58.49 25.82 58.49 30.01 57.69 30.01 57.69 25.82 57.69 25.82"/>
  </g>
  <g class="st2">
    <path class="st0" d="M74.23,24.09v-15.12h2.86v15.12h-2.86Z"/>
    <path class="st0" d="M82.37,24.09h-2.86v-11.68h2.86v1.79h.04c.73-1.42,1.86-2.14,3.39-2.14,1.35,0,2.44.46,3.28,1.38.84.92,1.26,2.11,1.26,3.58v7.06h-2.87v-6.85c0-.72-.25-1.32-.75-1.83-.5-.5-1.1-.75-1.79-.75s-1.32.25-1.82.75c-.5.5-.74,1.11-.74,1.83v6.85Z"/>
    <path class="st0" d="M97.28,21.9c.63.04,1.14-.05,1.53-.27.39-.22.59-.5.59-.87,0-.33-.12-.6-.37-.81-.25-.2-.58-.35-.98-.42-.4-.08-.85-.15-1.33-.21-.48-.06-.97-.16-1.45-.28s-.93-.3-1.33-.53c-.4-.23-.73-.59-.98-1.07s-.37-1.08-.37-1.79c0-1.12.43-1.99,1.28-2.63.86-.64,2-.96,3.42-.96,1.76,0,3.31.46,4.66,1.38l-1.25,2.16c-.86-.66-2-.99-3.41-.99-1.19,0-1.8.35-1.8,1.05,0,.33.13.59.38.77.26.18.58.31.98.38.4.07.84.14,1.33.19.49.05.98.15,1.47.28s.93.32,1.33.56c.4.24.72.6.98,1.1.26.5.38,1.11.38,1.84,0,1.15-.48,2.06-1.45,2.7-.97.65-2.17.97-3.61.97-1.9,0-3.54-.46-4.94-1.37l1.39-2.28c.89.66,2.08,1.03,3.55,1.11Z"/>
    <path class="st0" d="M104.58,11.05c-.33-.33-.5-.73-.5-1.19s.17-.86.5-1.19c.33-.33.73-.5,1.2-.5s.87.17,1.2.5c.33.33.49.73.49,1.19s-.16.86-.49,1.19c-.33.33-.73.5-1.2.5s-.87-.17-1.2-.5ZM104.35,12.42h2.86v11.68h-2.86v-11.68Z"/>
    <path class="st0" d="M121.76,12.42v9.72c0,1.88-.59,3.31-1.78,4.29-1.19.97-2.77,1.46-4.74,1.46-1.76,0-3.4-.47-4.91-1.41l1.35-2.32c1.18.77,2.37,1.15,3.56,1.15.58,0,1.13-.08,1.66-.23.53-.15,1-.41,1.39-.78s.6-.81.6-1.33v-.79l-.04-.04c-1.09,1.19-2.29,1.8-3.61,1.8-1.68,0-3.1-.57-4.27-1.72-1.17-1.15-1.75-2.56-1.75-4.24s.58-3.08,1.75-4.21c1.17-1.13,2.59-1.69,4.27-1.69,1.5,0,2.71.67,3.61,2h.04v-1.65h2.86ZM117.92,20.38c.65-.64.98-1.43.98-2.36s-.33-1.72-.98-2.38c-.65-.66-1.45-.98-2.39-.98s-1.71.33-2.36.98c-.65.66-.97,1.45-.97,2.38s.32,1.72.97,2.36c.65.64,1.43.97,2.36.97s1.73-.32,2.39-.97Z"/>
    <path class="st0" d="M127.04,24.09h-2.86v-15.12h2.86v5.02h.06c.28-.51.72-.96,1.31-1.34.59-.38,1.27-.58,2.04-.58,1.36,0,2.45.46,3.28,1.37.83.92,1.24,2.11,1.24,3.59v7.06h-2.86v-6.85c0-.72-.25-1.32-.74-1.83-.49-.5-1.09-.75-1.78-.75s-1.32.25-1.81.75c-.49.5-.73,1.11-.73,1.83v6.85Z"/>
    <path class="st0" d="M136.67,14.76v-2.34h1.07v-2.64h2.86v2.64h1.99v2.34h-1.99v6.25c0,.24.1.45.29.63.19.17.42.26.67.26.33,0,.58-.06.75-.17l.56,2.26c-.58.29-1.28.44-2.12.44-.9,0-1.63-.29-2.19-.86-.56-.57-.84-1.31-.84-2.23v-6.59h-1.07Z"/>
    <path class="st0" d="M148.94,21.9c.63.04,1.14-.05,1.53-.27.39-.22.59-.5.59-.87,0-.33-.12-.6-.37-.81-.25-.2-.58-.35-.98-.42-.4-.08-.85-.15-1.33-.21-.48-.06-.97-.16-1.45-.28s-.93-.3-1.33-.53c-.4-.23-.73-.59-.98-1.07s-.37-1.08-.37-1.79c0-1.12.43-1.99,1.28-2.63.86-.64,2-.96,3.42-.96,1.76,0,3.31.46,4.66,1.38l-1.25,2.16c-.86-.66-2-.99-3.41-.99-1.19,0-1.8.35-1.8,1.05,0,.33.13.59.38.77.26.18.58.31.98.38.4.07.84.14,1.33.19.49.05.98.15,1.47.28s.93.32,1.33.56c.4.24.72.6.98,1.1.26.5.38,1.11.38,1.84,0,1.15-.48,2.06-1.45,2.7-.97.65-2.17.97-3.61.97-1.9,0-3.54-.46-4.94-1.37l1.39-2.28c.89.66,2.08,1.03,3.55,1.11Z"/>
  </g>
  <rect class="st0" x="67.27" y="2.68" width=".37" height="27.98"/>
</svg>