<?xml version="1.0" encoding="UTF-8"?>
<svg id="Layer_1" xmlns="http://www.w3.org/2000/svg" version="1.1" viewBox="0 0 32 32">
  <!-- Generator: Adobe Illustrator 30.2.1, SVG Export Plug-In . SVG Version: 2.1.1 Build 1)  -->
  <defs>
    <style>
      .st0 {
        fill: #ffd215;
        fill-rule: evenodd;
      }
    </style>
  </defs>
  <path class="st0" d="M.29,9.54c.85.09,1.89.2,2.71.38.83.18,1.63.43,2.4.71,1.91.7,3.46,1.65,4.93,2.79l.84.71c.27.29.53.47.8.76l.74.81c.28.29.76.95,1.03,1.29.19.25.17.19.09.55-.17.82-.43,1.77-.55,2.59l1.74-1.23c.17.21.7,1.11.87,1.44l.17.23c.13-.77.3-1.56.44-2.34.05-.29,0-.31.24-.45l1.36-.75c2.77-1.41,6.08-2.1,9.27-1.89,1.58.1,2.15.21,3.57.63.27.08.86.27,1.1.29-2.49-.98-4.93-1.75-7.62-2.22-5.26-.9-8.08.27-8.34.24-.1,0-.14-.07-.21-.13-.07-.05-.11-.09-.18-.15-.35-.29-1.06-.77-1.46-1.01-2.99-1.77-5.85-2.5-9.37-2.96-.72-.09-1.48-.19-2.21-.24l-2.38-.06h0Z"/>
</svg>