<?xml version="1.0" encoding="UTF-8"?>
<svg id="Layer_1" xmlns="http://www.w3.org/2000/svg" version="1.1" viewBox="0 0 32 32">
  <!-- Generator: Adobe Illustrator 30.1.0, SVG Export Plug-In . SVG Version: 2.1.1 Build 136)  -->
  <defs>
    <style>
      .st0 {
        fill: #58595b;
      }

      .st0, .st1, .st2 {
        fill-rule: evenodd;
      }

      .st1 {
        fill: #ffd215;
      }

      .st3, .st4, .st5 {
        fill: #fff;
      }

      .st4 {
        fill-opacity: .9;
      }

      .st2 {
        fill: #0a144e;
      }

      .st5 {
        fill-opacity: .7;
      }
    </style>
  </defs>
  <path class="st3" d="M8.42,8.42c0-.93.75-1.68,1.68-1.68s1.68.75,1.68,1.68v15.16c0,.93-.75,1.68-1.68,1.68s-1.68-.75-1.68-1.68v-15.16Z"/>
  <path class="st4" d="M14.74,15.16c0-.93.75-1.68,1.68-1.68s1.68.75,1.68,1.68v8.42c0,.93-.75,1.68-1.68,1.68s-1.68-.75-1.68-1.68v-8.42Z" shape-rendering="crispEdges"/>
  <path class="st5" d="M21.05,10.95c0-.93.75-1.68,1.68-1.68s1.68.75,1.68,1.68v12.63c0,.93-.75,1.68-1.68,1.68s-1.68-.75-1.68-1.68v-12.63Z" shape-rendering="crispEdges"/>
  <g>
    <path class="st0" d="M30.89,17.69c-.07-.08-.13-.14-.21-.21-.34-.27-1.39-1.27-1.7-1.5-.21.16-.37.51-1.01.82-.47.23-1.04.29-1.6.15-2.02-.51-2.03-3.87.02-4.38.52-.13,1.12-.07,1.56.15.26.13.6.37.79.58.07.08.15.18.23.25l1.91-1.71c-.19-.31-.67-.73-.99-.94-2.97-1.96-8.1-.58-8.11,3.85-.01,4.49,5.18,5.81,8.09,3.89.34-.22.82-.63,1.01-.95"/>
    <path class="st0" d="M7.84,19.37c.17-.03.9-.19,1.57-.63.36-.23.61-.44.9-.73.05-.06.21-.25.25-.32l-1.91-1.71c-.36.34-.45.55-1.01.82-1.22.61-3.09.05-3.1-2.02-.01-2.47,2.6-2.88,3.88-1.48.08.09.13.16.23.25l1.91-1.71c-.15-.28-.67-.72-.96-.92-.12-.08-.26-.17-.4-.25-2.91-1.58-7.55-.22-7.73,3.82-.06,1.29.31,2.43,1.12,3.36.12.14.24.2.32.34.11.08.19.15.3.24.11.08.2.14.32.22.14.1.52.32.71.38.84.28,1.16.43,2.15.44.65.02,1.08-.04,1.45-.11"/>
    <path class="st2" d="M30.66,10.23v-.77h.24l.14.53.14-.53h.24v.77h-.14v-.61l-.15.61h-.15l-.15-.61v.61h-.14ZM30.17,10.23v-.64h-.23v-.13h.62v.13h-.23v.64h-.16Z"/>
    <path class="st2" d="M14.51,16.91c.8.02,1.86.07,2.47-.28l.03-.02.03-.02.03-.02s.02-.01.03-.02c.01,0,.02-.01.03-.02l.03-.02.02-.02s.02-.01.02-.02l.02-.02s.02-.01.02-.02l.02-.02.02-.02s.02-.01.02-.02c0,0,.02-.01.02-.02l.02-.02s.01-.01.02-.02c0,0,.01-.01.02-.02l.02-.02.02-.02s.01-.02.02-.02c0,0,.01-.02.02-.02l.02-.02s.01-.02.02-.02l.02-.02s.01-.02.02-.02c0,0,.01-.02.02-.03,0-.01.01-.02.02-.03,0-.01.01-.02.02-.03,0-.01.01-.02.02-.03,0-.01.01-.02.02-.03,0-.01.01-.02.02-.03,0-.01.01-.02.02-.03,0-.01.01-.02.02-.03,0-.01.01-.02.02-.03,0-.01.01-.02.01-.03,0-.01.01-.02.01-.03,0-.01.01-.02.01-.03s.01-.02.01-.03v-.03s.02-.02.03-.03c0-.01,0-.02.01-.03,0-.01,0-.02.01-.03h0s0-.02.01-.03,0-.02.01-.03v-.03s.02-.02.02-.03c0-.01,0-.02.01-.03,0-.01,0-.02.01-.04,0-.01,0-.02,0-.04,0-.01,0-.02,0-.04,0-.01,0-.02,0-.04v-.04h0s0-.03,0-.04h0s0-.03,0-.04h0s0-.03,0-.04c0-.01,0-.03,0-.04s0-.03,0-.04v-.04s0-.03,0-.04,0-.03,0-.04c0-.01,0-.03,0-.04h0v-.13h0v-.13s0-.03,0-.04c0-.01,0-.03,0-.04v-.04s0-.03,0-.04,0-.03,0-.04,0-.03,0-.04,0-.03,0-.04c0-.01,0-.03,0-.04h0s0-.03,0-.04h0s0-.03,0-.04c0-.01,0-.02,0-.04h0s0-.02,0-.04c0-.01,0-.02,0-.04,0-.01,0-.02-.01-.04,0-.01,0-.02-.01-.04,0-.01,0-.02-.01-.03s0-.02-.01-.03v-.03s-.02-.02-.02-.03c0-.01,0-.02-.01-.03s0-.02-.01-.03c0-.01,0-.02-.01-.03,0-.01,0-.02-.01-.03h0s-.01-.02-.01-.03c0-.01-.01-.02-.01-.03,0-.01-.01-.02-.01-.03v-.03s-.02-.02-.03-.03c0-.01-.01-.02-.02-.03,0-.01-.01-.02-.02-.03,0-.01-.01-.02-.02-.03,0-.01-.01-.02-.02-.03,0-.01-.01-.02-.02-.03,0-.01-.01-.02-.02-.03,0-.01-.01-.02-.02-.03,0-.01-.01-.02-.02-.03,0-.01-.01-.02-.02-.03,0-.01-.01-.02-.02-.02,0,0-.01-.02-.02-.02,0,0-.01-.02-.02-.02s-.01-.02-.02-.02c0,0-.01-.02-.02-.02h0s-.01-.02-.02-.02c0,0-.01-.01-.02-.02,0,0-.01-.01-.02-.02l-.02-.02h0s-.01-.01-.02-.02c0,0-.01-.01-.02-.02l-.02-.02s-.02-.01-.02-.02c0,0-.02-.01-.02-.02l-.02-.02s-.02-.01-.02-.02c0,0-.02-.01-.02-.02l-.02-.02h0s-.02-.01-.02-.02l-.03-.02-.03-.02-.03-.02-.03-.02-.03-.02s-.02-.01-.03-.02c-.01,0-.02-.01-.03-.02-.01,0-.02-.01-.03-.02h0s-.02-.01-.03-.02c-.01,0-.02-.01-.03-.01-.01,0-.02-.01-.03-.01h0s-.02-.01-.03-.01c-.01,0-.02-.01-.03-.01-.01,0-.02-.01-.03-.01-.01,0-.02,0-.03-.01h0s-.02,0-.03-.01c-.01,0-.02,0-.04-.01s-.02,0-.04-.01h0s-.02,0-.04-.01c-.01,0-.02,0-.04-.01h-.04s-.02-.02-.04-.02c-.01,0-.02,0-.04,0-.01,0-.03,0-.04,0h-.04s-.04-.01-.04-.01h-.04s-.04-.01-.04-.01h-.04s-.04-.01-.04-.01h-.04s-.04,0-.04,0h-.04s-.04,0-.04,0h-.04s-.04,0-.04,0h-.04s-.04,0-.04,0h-.04s-.04,0-.04,0h-.04s-.04,0-.04,0h-1.09l-.03,4.3h0ZM11.46,19.28c.53.04,2.79,0,3.51,0,1.2,0,2.08.02,3.16-.36,1.64-.57,2.9-1.97,2.91-4.15,0-2.2-1.25-3.58-2.88-4.17-1.06-.38-1.96-.36-3.15-.36-.72,0-3.01-.04-3.54,0v9.02h0Z"/>
    <path class="st2" d="M30.89,17.69c-.07-.08-.13-.14-.21-.21-.34-.27-1.39-1.27-1.7-1.5-.21.16-.37.51-1.01.82-.47.23-1.04.29-1.6.15-2.02-.51-2.03-3.87.02-4.38.52-.13,1.12-.07,1.56.15.26.13.6.37.79.58.07.08.15.18.23.25l1.91-1.71c-.19-.31-.67-.73-.99-.94-2.97-1.96-8.1-.58-8.11,3.85-.01,4.49,5.18,5.81,8.09,3.89.34-.22.82-.63,1.01-.95"/>
    <path class="st2" d="M7.84,19.37c.17-.03.9-.19,1.57-.63.36-.23.61-.44.9-.73.05-.06.21-.25.25-.32l-1.91-1.71c-.36.34-.45.55-1.01.82-1.22.61-3.09.05-3.1-2.02-.01-2.47,2.6-2.88,3.88-1.48.08.09.13.16.23.25l1.91-1.71c-.15-.28-.67-.72-.96-.92-.12-.08-.26-.17-.4-.25-2.91-1.58-7.55-.22-7.73,3.82-.06,1.29.31,2.43,1.12,3.36.12.14.24.2.32.34.11.08.19.15.3.24.11.08.2.14.32.22.14.1.52.32.71.38.84.28,1.16.43,2.15.44.65.02,1.08-.04,1.45-.11"/>
    <path class="st1" d="M-6.44,5.78c.43.05.95.1,1.37.19.42.09.82.21,1.21.36.96.35,1.74.83,2.48,1.4l.42.36c.13.14.27.24.4.38l.37.41c.14.14.38.48.52.65.1.12.09.1.05.28-.09.41-.22.89-.28,1.3l.87-.62c.09.11.35.56.44.72l.08.11c.06-.39.15-.78.22-1.18.03-.14,0-.16.12-.22l.68-.38c1.39-.71,3.06-1.06,4.66-.95.79.05,1.08.11,1.8.31.13.04.43.14.55.14-1.25-.49-2.48-.88-3.83-1.12-2.65-.45-4.07.13-4.19.12-.05,0-.07-.04-.1-.06-.03-.03-.05-.04-.09-.07-.17-.14-.53-.39-.73-.51-1.51-.89-2.94-1.26-4.71-1.49-.36-.05-.75-.1-1.11-.12l-1.2-.03h0Z"/>
    <polygon class="st2" points="2.72 20.54 3.22 20.54 3.22 23 2.72 23 2.72 20.54 2.72 20.54"/>
    <path class="st2" d="M5.84,23h-.48v-.91c0-.19-.01-.32-.03-.37-.02-.06-.05-.1-.1-.13-.05-.03-.1-.05-.17-.05-.08,0-.16.02-.22.07-.07.04-.11.1-.13.18-.02.07-.04.21-.04.41v.81h-.48v-1.79h.44v.26c.16-.2.35-.3.59-.3.1,0,.2.02.29.06.09.04.16.08.2.14.04.06.08.12.09.2.02.07.03.18.03.32v1.1h0Z"/>
    <path class="st2" d="M7.65,21.21v.38h-.32v.73c0,.15,0,.23.01.26,0,.02.02.04.04.06.02.02.05.02.08.02.04,0,.11-.01.19-.05l.04.37c-.11.05-.24.07-.37.07-.08,0-.16-.01-.23-.04-.07-.03-.12-.07-.15-.11-.03-.05-.05-.11-.07-.18-.01-.05-.01-.17-.01-.34v-.78h-.22v-.38h.22v-.36l.47-.28v.63h.32Z"/>
    <path class="st2" d="M9.56,21.96c0-.14-.04-.24-.1-.31-.07-.07-.15-.11-.25-.11-.1,0-.19.04-.26.11-.07.07-.1.18-.1.3h.7ZM9.53,22.44l.47.08c-.06.17-.16.3-.29.4-.13.09-.3.13-.49.13-.31,0-.54-.1-.69-.3-.12-.16-.18-.37-.18-.62,0-.29.08-.53.23-.69.15-.17.35-.25.59-.25.27,0,.47.09.63.26.15.17.23.45.22.81h-1.18c0,.14.04.25.11.32.07.08.16.12.27.12.07,0,.14-.02.18-.06.05-.04.09-.11.11-.2h0Z"/>
    <path class="st2" d="M11.39,23h-.47v-1.78h.44v.25c.07-.12.14-.2.21-.23.06-.04.13-.06.21-.06.11,0,.21.03.31.09l-.15.41c-.08-.05-.15-.08-.22-.08s-.12.02-.17.05c-.05.04-.08.1-.11.2-.03.09-.04.29-.04.6v.55h0Z"/>
    <path class="st2" d="M14.43,23h-.48v-.91c0-.19-.01-.32-.03-.37-.02-.06-.05-.1-.1-.13-.05-.03-.1-.05-.17-.05-.08,0-.16.02-.22.07-.07.04-.11.1-.13.18-.02.07-.04.21-.04.41v.81h-.48v-1.79h.44v.26c.16-.2.35-.3.59-.3.1,0,.2.02.29.06.09.04.15.08.2.14.04.06.08.12.09.2.02.07.03.18.03.32v1.1h0Z"/>
    <path class="st2" d="M16.41,22.15c-.06.02-.16.04-.29.07-.13.03-.22.06-.26.08-.06.04-.09.1-.09.17s.02.12.07.17c.05.05.11.07.19.07.08,0,.17-.03.25-.08.06-.04.09-.09.11-.16.01-.04.02-.12.02-.23v-.09h0ZM15.77,21.77l-.43-.08c.05-.17.13-.3.25-.39.12-.08.29-.12.53-.12.21,0,.37.02.47.07.1.05.18.11.22.19.04.08.06.22.06.42v.55c0,.16,0,.27.02.34.01.07.04.15.08.24h-.47s-.03-.08-.05-.14c0-.03-.01-.05-.02-.05-.08.08-.17.14-.26.18-.09.04-.19.06-.29.06-.19,0-.33-.05-.43-.15-.1-.1-.16-.22-.16-.38,0-.1.02-.19.07-.27.05-.08.11-.14.2-.18.09-.04.21-.08.38-.11.22-.04.37-.08.46-.12v-.05c0-.09-.02-.16-.07-.2-.05-.04-.13-.06-.26-.06-.08,0-.15.02-.2.05-.05.03-.08.09-.11.18h0Z"/>
    <path class="st2" d="M18.68,21.21v.38h-.32v.73c0,.15,0,.23.01.26,0,.02.02.04.04.06.02.02.05.02.08.02.04,0,.11-.01.19-.05l.04.37c-.11.05-.24.07-.37.07-.08,0-.16-.01-.23-.04-.07-.03-.12-.07-.15-.11-.03-.05-.05-.11-.07-.18-.01-.05-.01-.17-.01-.34v-.78h-.22v-.38h.22v-.36l.47-.28v.63h.32Z"/>
    <path class="st2" d="M19.53,23v-1.79h.47v1.79h-.47ZM19.53,20.97v-.44h.47v.44h-.47Z"/>
    <path class="st2" d="M21.38,22.11c0,.18.04.31.12.41.08.09.19.14.31.14s.23-.05.31-.14c.08-.09.12-.23.12-.41s-.04-.31-.12-.4c-.08-.09-.19-.14-.31-.14s-.23.05-.31.14c-.08.09-.12.23-.12.41M20.89,22.09c0-.16.04-.31.12-.46.08-.15.19-.26.33-.34.14-.08.3-.12.48-.12.27,0,.49.09.67.26.17.17.26.4.26.67s-.09.5-.26.67c-.18.18-.39.27-.66.27-.17,0-.32-.04-.47-.11-.15-.07-.26-.18-.34-.33-.08-.15-.11-.33-.11-.53h0Z"/>
    <path class="st2" d="M25.26,23h-.47v-.91c0-.19-.01-.32-.03-.37-.02-.06-.05-.1-.1-.13-.05-.03-.1-.05-.16-.05-.08,0-.16.02-.22.07-.07.04-.11.1-.13.18-.02.07-.04.21-.04.41v.81h-.47v-1.79h.44v.26c.16-.2.35-.3.59-.3.1,0,.2.02.29.06.09.04.15.08.2.14.04.06.08.12.09.2.02.07.03.18.03.32v1.1h0Z"/>
    <path class="st2" d="M27.24,22.15c-.06.02-.16.04-.29.07-.13.03-.22.06-.26.08-.06.04-.09.1-.09.17s.02.12.07.17c.05.05.11.07.19.07.08,0,.17-.03.24-.08.06-.04.09-.09.11-.16.01-.04.02-.12.02-.23v-.09h0ZM26.61,21.77l-.43-.08c.05-.17.13-.3.25-.39.12-.08.29-.12.52-.12.21,0,.37.02.47.07.1.05.17.11.22.19.04.08.06.22.06.42v.55c0,.16,0,.27.02.34.01.07.04.15.08.24h-.47s-.03-.08-.05-.14c0-.03-.01-.05-.02-.05-.08.08-.17.14-.26.18-.09.04-.19.06-.29.06-.18,0-.33-.05-.43-.15-.1-.1-.16-.22-.16-.38,0-.1.02-.19.07-.27.05-.08.11-.14.2-.18.09-.04.21-.08.38-.11.22-.04.37-.08.46-.12v-.05c0-.09-.02-.16-.07-.2-.05-.04-.13-.06-.25-.06-.08,0-.15.02-.2.05-.05.03-.08.09-.11.18h0Z"/>
    <polygon class="st2" points="28.69 20.54 29.17 20.54 29.17 23 28.69 23 28.69 20.54 28.69 20.54"/>
  </g>
</svg>