<?xml version="1.0" encoding="UTF-8"?>
<svg id="Layer_1" xmlns="http://www.w3.org/2000/svg" version="1.1" viewBox="0 0 154 32">
  <!-- Generator: Adobe Illustrator 29.8.1, SVG Export Plug-In . SVG Version: 2.1.1 Build 2)  -->
  <defs>
    <style>
      .st0 {
        font-family: Kaleko105-Bold, 'Kaleko 105';
        font-size: 18.53px;
        font-weight: 700;
      }

      .st0, .st1 {
        fill: #fff;
      }

      .st2 {
        fill: var(--color-brand-600, #ed1e6d);
      }

      .st1 {
        fill-rule: evenodd;
      }
    </style>
  </defs>
  <path class="st2" d="M0,8.42C0,3.77,3.77,0,8.42,0h15.16C28.23,0,32,3.77,32,8.42v15.16c0,4.65-3.77,8.42-8.42,8.42h-15.16c-4.65,0-8.42-3.77-8.42-8.42v-15.16Z"/>
  <text class="st0" transform="translate(38.14 22.95)"><tspan x="0" y="0">Dream CRM</tspan></text>
  <path class="st1" d="M15.49,4.58s.07.02.11.02c.5.02,1.01.07,1.5.15,1.6.27,3.07.83,4.38,1.81.75.56,1.38,1.24,1.84,2.06.32.58.54,1.19.61,1.85.12.97-.05,1.9-.49,2.78-.42.84-1.01,1.53-1.73,2.12-.84.69-1.79,1.18-2.81,1.53-.7.24-1.42.41-2.16.51-.68.09-1.36.12-2.05.1-1.61-.07-3.15-.43-4.58-1.17-.83-.43-1.58-.97-2.22-1.65-.62-.66-1.08-1.41-1.34-2.29-.32-1.12-.24-2.22.22-3.28.34-.79.84-1.45,1.47-2.03.83-.77,1.78-1.33,2.83-1.74.8-.31,1.62-.52,2.47-.63.39-.05.79-.09,1.19-.11.05,0,.1-.01.15-.02h.61Z"/>
  <path class="st1" d="M18.81,23.08c-.82,0-1.6-.16-2.34-.52-.42-.21-.8-.48-1.1-.84-.24-.28-.4-.6-.47-.96-.08-.4-.02-.79.16-1.16.2-.42.52-.74.9-1.01.5-.35,1.06-.57,1.66-.7.48-.1.96-.14,1.45-.12.76.04,1.49.2,2.17.56.37.2.71.44.99.76.24.27.41.58.49.94.1.47.02.91-.21,1.32-.2.36-.48.64-.8.88-.51.37-1.08.59-1.68.73-.4.09-.8.13-1.21.13"/>
  <path class="st1" d="M15.84,26.5c-.55,0-1.02-.1-1.46-.32-.27-.14-.51-.32-.69-.57-.3-.42-.31-.91-.01-1.33.17-.26.41-.44.68-.58.37-.2.77-.29,1.19-.32.46-.03.91.02,1.35.17.33.12.63.29.87.54.2.2.33.44.37.72.03.22-.01.42-.11.62-.09.19-.23.35-.39.49-.33.28-.72.44-1.13.53-.12.03-.25.04-.37.06-.11.01-.23.01-.29.02"/>
</svg>