<?xml version="1.0" encoding="UTF-8"?>
<svg id="OBJECTS" xmlns="http://www.w3.org/2000/svg" version="1.1" viewBox="0 0 750 500">
  <!-- Generator: Adobe Illustrator 29.8.1, SVG Export Plug-In . SVG Version: 2.1.1 Build 2)  -->
  <defs>
    <style>
      .st0 {
        fill: #f98638;
      }

      .st1 {
        fill: #004216;
      }

      .st2 {
        fill: #eaeeef;
      }

      .st3 {
        fill: #e8e8ea;
      }

      .st4 {
        fill: #12111c;
      }

      .st5 {
        fill: #ed1164;
      }

      .st6 {
        fill: #a7c7d3;
      }

      .st7 {
        fill: #fff;
      }

      .st8 {
        fill: #ffa364;
      }

      .st9 {
        fill: #28253d;
      }

      .st10 {
        fill: #d1d1d3;
      }

      .st11 {
        fill: #00a63e;
      }

      .st12 {
        fill: #d0e2ea;
      }

      .st13 {
        fill: #27253d;
      }

      .st14 {
        fill: #3e3d66;
      }

      .st15 {
        fill: #b9cadb;
      }

      .st16 {
        fill: #990a44;
      }
    </style>
  </defs>
  <g>
    <rect class="st3" x="94.99" y="37.09" width="157.86" height="398.7"/>
    <g>
      <rect class="st10" x="91.03" y="29.02" width="7.91" height="406.78"/>
      <polygon class="st7" points="91.03 29.02 58.73 52.57 58.73 435.79 91.03 435.79 91.03 29.02"/>
      <ellipse class="st10" cx="79.53" cy="200.24" rx="8.04" ry="13"/>
      <path class="st10" d="M79.69,202.27h-14.46c-1.65,0-3.01-1.35-3.01-3.01h0c0-1.65,1.35-3.01,3.01-3.01h14.46c1.65,0,3.01,1.35,3.01,3.01h0c0,1.65-1.35,3.01-3.01,3.01Z"/>
      <path class="st10" d="M81.31,245.54h0c-2.9,0-5.28-2.38-5.28-5.28v-15.19c0-2.9,2.38-5.28,5.28-5.28h0c2.9,0,5.28,2.38,5.28,5.28v15.19c0,2.9-2.38,5.28-5.28,5.28Z"/>
    </g>
    <g>
      <g>
        <path class="st8" d="M155.47,98.54c-1.4,6.89-2.81,13.79-4.21,20.68-.63,3.1-1.26,6.21-2.44,9.14-1.18,2.94-2.93,5.7-5.45,7.62-1.91,1.45-4.22,2.33-6.61,2.63-1.98.24-4.01.1-5.93-.45-4.24-1.2-7.85-4.24-10.05-8.05-1.94-3.37-2.81-7.32-2.71-11.22.15-.68.28-1.07.28-1.07-.07,0-.15-.02-.21-.04-1.44-.27-2.68-1.28-3.46-2.53-.82-1.31-1.19-2.85-1.39-4.38-.24-1.81-.25-3.73.57-5.37.17-.34.39-.67.64-.96.95-1.11,2.39-1.81,3.8-1.5,1.31.29,2.26,1.34,2.94,2.53.87-2.45,1.82-4.91,3.39-6.97,1.69-2.23,4.25-3.97,7.04-3.97,3.3,0,6.07,2.31,9.03,3.78,4.45,2.22,9.96,2.53,14.36.21.12-.06.24-.13.35-.19l.06.11Z"/>
        <path class="st0" d="M138.19,110.9c-.69,2.86,8.79,17.72,2.49,16.46-6.12-1.23-2.73-15.48-2.49-16.46Z"/>
        <path class="st4" d="M118.35,117.82l-.24.34c0-.13.02-.26.03-.38.07.02.15.03.21.04Z"/>
        <path class="st4" d="M118.11,118.17l.24-.34s-.12.39-.28,1.07c0-.24.02-.49.03-.73Z"/>
        <path class="st7" d="M126.8,119.14l7.23,9.42s-5.74,2.71-8.22-1.12c-2.48-3.84.99-8.3.99-8.3Z"/>
        <path class="st8" d="M136.63,143.35l-.05,2c-9.43,4.68-18.5,5.31-18.5,5.31-8.44-13.82-6.8-22.74-6.8-22.74l6.84-9.76c-.02.24-.03.48-.03.73-.96,4.39-3.09,20.9,18.55,24.46Z"/>
        <path class="st13" d="M161.56,86.28c.81,4.76-1.96,9.75-6.16,12.15-.11.06-.23.13-.35.19-4.4,2.32-9.91,2-14.36-.21-2.96-1.47-5.73-3.78-9.03-3.78-2.79,0-5.35,1.74-7.04,3.97-1.57,2.06-2.52,4.53-3.39,6.97-.67-1.19-1.63-2.24-2.94-2.53-1.41-.31-2.85.39-3.8,1.5-.97-1.95-1.94-3.93-2.41-6.06-.47-2.16-.35-4.54.78-6.45,1.12-1.9,3.43-3.2,5.59-2.73-.5-3.79.84-8,4.04-10.1,2.89-1.91,6.68-1.8,10.05-1.02,3.87.89,7.51,2.55,11.26,3.85,3.75,1.31,7.75,2.25,11.68,1.62,1.78-.28,3.91-.79,5.16.51.54.56.78,1.34.91,2.11Z"/>
        <path class="st13" d="M136.77,138.61l-.14,4.74c-21.64-3.56-19.51-20.07-18.55-24.46-.11,3.9.76,7.85,2.71,11.22,2.19,3.81,5.81,6.85,10.05,8.05,1.92.55,3.95.7,5.93.45Z"/>
        <path class="st7" d="M152.19,96.34c-3.79,1.2-7.98.82-11.49-1.06-.43-.23-.82.43-.39.66,3.68,1.98,8.09,2.4,12.08,1.14.47-.15.27-.89-.2-.74Z"/>
        <path class="st7" d="M158.83,90.62c-.16-.1-.44-.05-.52.14-.77,1.75-2.06,3.22-3.71,4.19-.42.25-.04.91.39.66,1.75-1.03,3.16-2.6,3.98-4.46.08-.19.06-.41-.14-.52Z"/>
        <path class="st7" d="M117.18,91.52c-1.23.38-2.29,1.25-2.87,2.4-.66,1.31-.65,2.84-.05,4.17.2.45.86.06.66-.39-.98-2.17.21-4.74,2.47-5.45.47-.15.27-.88-.2-.74Z"/>
        <path class="st7" d="M117.27,95.71c-.18-.1-.42-.05-.52.14-.46.79-.59,1.75-.38,2.64.05.19.28.33.47.27.2-.07.32-.26.27-.47-.05-.22-.07-.3-.07-.52,0-.09,0-.18,0-.27,0-.05,0-.1.01-.16,0-.02,0-.05,0-.07,0,0,0,0,0,0,.03-.19.07-.37.13-.55.02-.05.04-.1.05-.15,0-.02,0-.02,0-.03,0,0,0-.01.01-.03.05-.09.09-.19.14-.28.1-.17.05-.43-.14-.52Z"/>
        <path class="st9" d="M133.34,108.58c-.13,1.25-1.11,2.18-2.17,2.07-1.07-.11-1.82-1.22-1.69-2.48.13-1.25,1.11-2.18,2.17-2.07,1.07.11,1.82,1.22,1.69,2.48Z"/>
        <path class="st9" d="M148.68,111.63c-.13,1.25-1.11,2.18-2.17,2.07s-1.82-1.22-1.69-2.48c.13-1.25,1.11-2.18,2.17-2.07,1.07.11,1.82,1.22,1.69,2.48Z"/>
        <path class="st9" d="M133.6,101.25c-1.62-.09-3.25.03-4.84.34-.59.11-.98.85-.8,1.41.2.63.78.92,1.41.8.19-.04.37-.07.56-.1.1-.02.2-.03.3-.05.01,0,.02,0,.03,0,0,0,0,0,.01,0,.36-.04.73-.08,1.09-.1.74-.05,1.49-.05,2.23,0,.6.04,1.17-.55,1.15-1.15-.03-.65-.5-1.11-1.15-1.15Z"/>
        <path class="st9" d="M151.05,106.23c-.56-.55-1.19-1.04-1.84-1.47-.66-.44-1.37-.78-2.1-1.09-.25-.11-.66-.02-.88.12-.24.14-.46.41-.53.69-.07.29-.05.62.12.88l.18.23c.09.09.19.15.29.2.83.35,1.61.81,2.33,1.35.28.23.56.46.82.71.43.42,1.2.46,1.62,0,.41-.45.46-1.18,0-1.62Z"/>
      </g>
      <g>
        <path class="st7" d="M208.63,147.27s-15.94,32.74-17.43,34.44c-1.49,1.7-60.15,6.16-60.15,6.16l-25.13,38.45-6.97,10.66v-120.31l12.33,11.27c-6.81,7.42-5.38,25.58-5.38,25.58,1.73-1.28,4.21-1.98,6.48-2.36,3.04-.52,5.7-.47,5.7-.47,0,0,1.97,1.65,3.49,4.77.89,1.8,1.62,4.1,1.76,6.85,0,0,12.11-9.21,13.25-16.94l38.47,17.43,18.5-24.44.65.38,11.67,6.9,2.78,1.64Z"/>
        <path class="st8" d="M108.15,75.29c.18,2.13-9.21,8.57-9.21,8.57l-.07-9.21s-5.53-4.14-5.74-4.43-1.02-.45-1.28-1.37c-.24-.93,1.71-2.91,1.71-2.91-.57-1.53,3.47-4.25,3.47-4.25-.04-1.35,1.74-4.47,3.11-5.03,1.38-.57,2.98,1.77,3.4,2.48.43.71.96,2.3,1.06,3.9.11,1.59-1.06,3.26-1.06,3.26,0,0,2.77-.85,3.26,1.41.49,2.27-4.25,6.38-4.25,6.38,0,0,5.41-.92,5.6,1.21Z"/>
        <path class="st8" d="M212.69,110.95c.56-.92,9.8-16.04,12.52-15.12,2.72.93-8.29,18.66-8.9,19.65.64-.83,9.88-12.81,11.52-11.65,1.67,1.19-8.83,15.38-9.14,15.8.26-.27,4.93-5.08,6.45-3.75,1.55,1.38-15.16,20.83-15.16,20.83l-4.12,8.92-11.67-6.9,3.32-7.4s.85-22.42,3.26-27.34c2.41-4.92,3.04,10.2,3.04,10.2,0,0,11.97-21.82,13.96-21.11,1.92.68-4.69,16.91-5.08,17.88Z"/>
        <path class="st7" d="M136.58,145.36c-1.14,7.72-13.25,16.94-13.25,16.94-.14-2.75-.87-5.05-1.76-6.85-1.53-3.12-3.49-4.77-3.49-4.77,0,0,9.08-.63,18.5-5.31Z"/>
        <path class="st16" d="M121.57,155.44l-4.01,5.86-5.96-1.48.78-8.67c3.04-.52,5.7-.47,5.7-.47,0,0,1.97,1.65,3.49,4.77Z"/>
        <path class="st5" d="M123.61,223.22s-3.47,13.25-4.25,13.18c-.78-.08-12.33-6.95-12.33-6.95-.4-1.04-.77-2.1-1.11-3.14-10.28-31.66,5.67-66.5,5.67-66.5l5.96,1.48c-2.27,12.77-.12,30.57,2.23,43.81,1.85,10.49,3.83,18.11,3.83,18.11Z"/>
        <path class="st7" d="M118.07,150.67s-2.66-.05-5.7.47c-2.27.38-4.76,1.09-6.48,2.36,0,0-1.43-18.15,5.38-25.58,0,0-1.64,8.92,6.8,22.74Z"/>
        <path class="st13" d="M204.55,152.77l-12.46-10.57c-.37-.32-.92.22-.54.54,4.15,3.52,8.3,7.05,12.46,10.57.37.32.92-.22.54-.54Z"/>
        <path class="st13" d="M204.95,146.73c-.38-.19-.81-.2-1.18,0-.13.07-.24.17-.33.28-.03.02-.07.03-.1.06-.53.53-.88,1.33-.67,2.08.2.68.88,1.23,1.6,1.13.76-.1,1.26-.85,1.43-1.54.19-.75-.02-1.64-.76-2.01ZM204.98,148.49c-.06.25-.16.48-.3.69-.1.15-.27.29-.44.33,0,0-.05,0-.07.01-.02,0-.04,0-.04,0-.03,0-.05,0-.08,0,0,0,0,0,0,0,0,0,0,0-.01,0-.05-.01-.1-.02-.15-.04,0,0,0,0,0,0,0,0,0,0-.01,0-.04-.02-.07-.04-.11-.06-.13-.08-.28-.27-.33-.41-.08-.24-.06-.48.02-.72.02-.05.05-.1.08-.15,0,0,.01,0,.02,0,.2,0,.39-.18.38-.38,0-.15.06-.27.21-.35.14-.08.29-.09.43-.01.19.1.3.22.39.43-.02-.04,0,.02,0,.03,0,.03.02.06.03.09.02.06.02.11.03.17,0,.13,0,.25-.03.38Z"/>
        <path class="st13" d="M135.79,177.43c-1.95,2.95-3.59,6.08-4.95,9.34-.19.45.55.65.74.2,1.33-3.2,2.96-6.26,4.87-9.16.27-.41-.39-.8-.66-.39Z"/>
        <path class="st13" d="M136.03,146.72c-.9,3.3-2.47,6.41-4.58,9.1-1.04,1.32-2.2,2.55-3.47,3.65-.66.57-1.34,1.1-2.05,1.6-.34.24-.68.47-1.04.69-.19.12-1.03.76-1.23.62-.12-.09-.16-.59-.18-.72-.07-.3-.14-.61-.21-.91-.13-.58-.26-1.16-.39-1.74l-.82-3.65c-.11-.48-.85-.28-.74.2.27,1.19.53,2.38.8,3.56l.39,1.74c.12.54.2,1.12.38,1.64.36,1.06,1.32.57,2.01.15.79-.48,1.56-1,2.29-1.56,2.94-2.24,5.4-5.09,7.2-8.33,1.02-1.84,1.82-3.8,2.38-5.83.13-.48-.61-.68-.74-.2Z"/>
        <path class="st13" d="M111.42,151.15c-2.32.67-4.56,1.58-6.7,2.69-.44-6.46.48-12.98,2.7-19.06.65-1.78,1.42-3.52,2.29-5.21.23-.44-.43-.82-.66-.39-3.1,6.02-4.88,12.7-5.18,19.47-.08,1.93-.05,3.86.11,5.79.02.29.31.48.58.33,2.25-1.21,4.61-2.18,7.06-2.89.47-.14.27-.88-.2-.74Z"/>
        <path class="st13" d="M102.25,65.13c-2.77-.76-5.71-.74-8.47.05-.62.18-.35,1.14.27.96,2.6-.74,5.34-.76,7.94-.05.62.17.89-.79.27-.96Z"/>
        <path class="st13" d="M104.05,62.57c-1.83-.85-3.79-1.35-5.81-1.46-.64-.04-.64.96,0,1,1.83.1,3.64.55,5.31,1.33.24.11.54.07.68-.18.13-.22.07-.57-.18-.68Z"/>
        <path class="st13" d="M102.97,74.56c-.14-.22-.45-.34-.68-.18-.93.63-1.85,1.25-2.78,1.88-.22.15-.33.45-.18.68.14.22.45.34.68.18.93-.63,1.85-1.25,2.78-1.88.22-.15.33-.45.18-.68Z"/>
      </g>
    </g>
  </g>
  <g>
    <rect class="st7" y="434.33" width="750" height="65.67"/>
    <ellipse class="st2" cx="521.22" cy="467.96" rx="176.33" ry="12.34"/>
  </g>
  <g>
    <path class="st11" d="M333.36,251.61c8.69-4.87,19.15-5.96,29-4.48-8.3,4.79-10.38,16.8-18.86,21.28-4.13,2.17-9.02,2.13-13.69,2.29-4.32.16-8.92.65-12.4,3.15,1.28-9.32,7.7-17.61,15.95-22.23Z"/>
    <path class="st11" d="M340.82,288.81c3.06,4.76,3.95,10.84,2.4,16.28-3.45-2.59-4.25-7.67-7.67-10.29-2.71-2.06-6.52-2.17-9.23-4.23-2.98-2.25-3.91-6.22-4.52-9.95,1.45-.95,3.44-1.01,5.21-.75,5.58.84,10.76,4.18,13.81,8.93Z"/>
    <path class="st11" d="M322.2,209.33c.89,7.01.64,14.29-1.74,20.95-3.17,8.96-9.93,16.19-13.99,24.78-6.78-8.9-9.68-20.66-7.79-31.68,2.24-13.1,10.62-24.19,18.73-34.7,1.95,6.79,3.91,13.63,4.79,20.66Z"/>
    <path class="st11" d="M292.48,258.79l-.28.04c-1.85-2.69-5.08-4.04-8.23-4.92-3.15-.88-6.45-1.45-9.25-3.14-5.3-3.19-7.58-9.57-9.49-15.47,6.56-.08,13.12,2.32,18.1,6.62,4.94,4.27,8.27,10.38,9.16,16.86Z"/>
    <path class="st11" d="M300.58,281.14c-5.16,4-11.98,5.81-18.45,4.87-6.49-.96-12.35-4.48-18.81-5.65-7.17-1.29-14.55.43-21.43,2.88,5.36-10.88,17.05-18.34,29.18-18.61,11.83-.25,23.54,6.33,29.52,16.52Z"/>
    <path class="st1" d="M320.49,311.37c-1.48-9.32-3.85-18.48-6.23-27.6-2.39-9.15-4.79-18.31-6.35-27.65-1.55-9.33-2.26-18.88-1.2-28.3.14-1.22.31-2.44.51-3.66.09-.55-.75-.79-.85-.23-1.51,9.23-1.24,18.62,0,27.87,1.26,9.34,3.48,18.5,5.84,27.62,2.35,9.1,4.83,18.17,6.59,27.41,1.65,8.69,2.63,17.53,2.24,26.38-.38,8.51-2.03,17.05-5.55,24.84-.44.97-.91,1.93-1.41,2.88-.26.5.5.94.76.44,3.91-7.48,6.02-15.74,6.8-24.11.8-8.63.21-17.33-1.15-25.87Z"/>
    <path class="st1" d="M313.41,309.79c-1.15-7.58-2.56-15.5-6.62-22.13-1.43-2.34-3.19-4.39-5.2-6.16.08-.09.13-.22.08-.38-3.38-11.23-7.4-22.88-16.08-31.2-2.22-2.13-4.72-3.99-7.44-5.43-.5-.26-.94.49-.44.76,10.16,5.4,16.1,15.86,19.92,26.31,1.1,3.01,2.06,6.06,2.99,9.12-3.15-2.56-6.82-4.5-10.69-5.85-7.98-2.77-16.56-2.99-24.91-2.78-1.1.03-2.19.06-3.29.1-.56.02-.57.9,0,.88,8.41-.28,17.01-.44,25.19,1.8,6.87,1.88,13.51,5.5,17.79,11.33,4.51,6.13,6.18,13.79,7.42,21.15,1.43,8.53,2.22,17.17,2.37,25.82.15,8.62-.33,17.25-1.45,25.79-.14,1.09-.3,2.17-.46,3.26-.08.55.76.79.85.23,1.31-8.7,1.97-17.5,1.96-26.3,0-8.8-.68-17.6-2-26.3Z"/>
    <path class="st1" d="M344.32,254.3c-6.07.69-11.92,2.96-16.85,6.59-4.92,3.62-8.82,8.54-11.24,14.16-1.36,3.15-2.25,6.46-2.65,9.86-.02.18.06.3.18.36,0,.05-.01.1-.01.15,0,.56.87.56.88,0,.03-1.61,1.04-3.04,2.42-3.82,1.53-.86,3.41-.9,5.08-.49,1.76.43,3.35,1.34,4.84,2.32,1.54,1.01,3.01,2.12,4.41,3.32,1.55,1.33,3.01,2.76,4.38,4.28.38.42,1-.2.62-.62-2.71-3.01-5.8-5.69-9.21-7.9-3.05-1.98-7.17-3.66-10.64-1.64-.65.38-1.21.88-1.66,1.46.98-4.99,3.09-9.74,6.13-13.82,3.52-4.74,8.31-8.46,13.72-10.79,3.05-1.32,6.3-2.18,9.59-2.56.55-.06.56-.94,0-.88Z"/>
    <polygon class="st4" points="349.44 358.09 349.44 368.81 346.87 368.81 286.7 368.81 284.12 368.81 284.12 358.09 349.44 358.09"/>
    <polygon class="st13" points="346.87 368.81 337.33 435.6 299.38 435.6 286.7 368.81 346.87 368.81"/>
  </g>
  <g>
    <path class="st4" d="M579.95,433.08h-91.3l.76-23.58c.21-6.41,5.47-11.5,11.89-11.5h66.01c6.42,0,11.68,5.09,11.88,11.5l.76,23.58Z"/>
    <path class="st13" d="M580.54,451.36c.22,6.71-5.16,12.27-11.88,12.27h-68.71c-6.72,0-12.1-5.56-11.89-12.27l.59-18.29h91.3l.59,18.29Z"/>
    <rect class="st14" x="528.13" y="426.54" width="13.08" height="13.08"/>
    <path class="st4" d="M551.82,391.37l1.82,6.62h-5.52l-1.79-5.6h-24.05l-1.79,5.6h-5.52l1.82-6.62c.75-2.71,3.21-4.59,6.02-4.59h22.97c2.81,0,5.29,1.88,6.03,4.59Z"/>
  </g>
  <g>
    <g>
      <rect class="st5" x="582.62" y="317.87" width="119.65" height="24.01" rx="12" ry="12"/>
      <rect class="st5" x="592.19" y="213.03" width="97.31" height="94.62" rx="12" ry="12"/>
      <rect class="st15" x="593.14" y="341.88" width="101.11" height="7.44"/>
      <rect class="st15" x="598.81" y="349.32" width="5.98" height="110.08"/>
      <rect class="st15" x="683.13" y="349.21" width="5.98" height="110.08"/>
    </g>
    <g>
      <path class="st13" d="M639.48,91.38c2.11,2.13,2.11,5.57-.01,7.68-2.13,2.11-5.57,2.11-7.69-.02-2.11-2.13-2.1-5.57.02-7.68,2.13-2.11,5.56-2.11,7.67.02Z"/>
      <polygon class="st13" points="640.36 50.52 638.09 83.49 630.62 84.97 623.34 53.47 640.36 50.52"/>
    </g>
    <g>
      <polygon class="st7" points="676.3 425.69 674.79 434.32 655.91 431.52 656.04 430.28 656.75 423.67 676.3 425.69"/>
      <polygon class="st7" points="627.72 430.28 627.85 431.52 608.97 434.32 607.43 425.54 626.99 423.5 627.72 430.28"/>
      <path class="st13" d="M695.12,340c-2.85,33.23-14.79,86.11-14.79,86.11l-4.02-.42-19.55-2.03-4.53-.47,3.96-84.01h-30.22l3.96,84.01-2.93.31-19.57,2.03-5.61.58s-11.94-52.88-14.78-86.11c-2.45-28.62-.05-43.91,10.35-47.6,1.67-.6,3.57-.9,5.67-.9,15.18,0,21.96,10.44,21.96,10.44h32.1s6.79-10.44,21.96-10.44c2.01,0,3.8.26,5.42.81,10.62,3.54,13.08,18.85,10.62,47.69Z"/>
      <path class="st13" d="M685.03,455.16s3.78,2.74,0,11.94c0,0-20.11,2.74-24.62-3.9-4.51-6.64-12.85-16.54-12.55-18.84.31-2.3,8.18-14.08,8.18-14.08l-.13,1.24,18.88,2.8,10.24,20.84Z"/>
      <polygon class="st4" points="657.12 319.37 656.18 339.19 649.96 339.19 657.12 319.37"/>
      <path class="st13" d="M635.89,444.36c.31,2.3-8.04,12.2-12.55,18.84-4.52,6.65-24.62,3.9-24.62,3.9-3.78-9.2,0-11.94,0-11.94l10.24-20.84,18.88-2.8-.13-1.24s7.87,11.78,8.17,14.08Z"/>
      <polygon class="st4" points="625.02 319.37 632.18 339.19 625.96 339.19 625.02 319.37"/>
    </g>
    <g>
      <path class="st3" d="M709.86,280.78c-2.08,7.1-17.54,8.42-26.34,8.59l.97,2.94c-1.61-.54-3.41-.81-5.42-.81-15.18,0-21.96,10.44-21.96,10.44h-32.1s-6.78-10.44-21.96-10.44c-2.1,0-4,.3-5.67.9l1.1-3.45c-8.39-1.03-29.4-4.73-29.26-15.61.18-13.59,11.58-75.48,16.58-78.19,3.52-1.92,21.58-8.48,31.9-12.19l-3.47,9.92,5.52,6.25-5.12,4.55,25.63,73.44,26.93-70.36-6.29-6.39,7.42-5.9-5.66-14.71c10.4,3.94,30.92,12.27,32.56,17.17,2.19,6.58,17.54,73.85,14.61,83.84Z"/>
      <path class="st10" d="M662.69,179.77l5.66,14.71-7.42,5.9,6.29,6.39-7.08,29.9-19.86,40.46,12.29-79.58c.73.66,1.45,1.38,2.13,2.16,0,0,6.09-8.87,4.37-21.29.96.35,2.19.81,3.61,1.34h0Z"/>
      <path class="st7" d="M652.58,197.54h0s-.68,37.75-.68,37.75l-11.62,41.84-10.77-40.46v-.57l-1.17-38.4c1.31-.98,2.98-2.18,4.65-3.22,2.17-1.34,4.32-2.41,5.71-2.41h5.72s2.22.98,4.95,2.91h0c1.03.72,2.12,1.58,3.2,2.56Z"/>
      <path class="st10" d="M640.29,277.13l-18.76-40.46-6.87-32.98,5.12-4.55-5.52-6.25,3.47-9.92c1.74-.62,3.27-1.17,4.46-1.59,0,0-2.94,6.13,3.6,18.32,0,0,1.04-.86,2.56-2.01l11.94,79.43Z"/>
      <path class="st7" d="M662.45,262.51l-.17,4.87-.03.61c-4.37.18-11.17.55-13.69,1.27-3.84,1.1-1.03,4.39-1.03,4.39,0,0-2.01.48-.99,2.74,0,0-1.6,1.98.87,4.58,1.57,1.65,8.68,4.11,14.18,5.83v6.42h-40.07v-7.92c5.94-1.99,12.08-4.57,12.36-5.61.46-1.71,0-2.87,0-2.87,0,0,1.31-.73-.12-2.44,0,0,2.04-3.74-.12-4.69-1.79-.79-11.13-1.95-14.26-2.31l-.3-4.36-1.82-26.35h46.06l-.87,25.85Z"/>
      <path class="st8" d="M662.26,267.99l.03-.61.17-4.87c1.79.2,13.67,3.29,13.67,3.29l1.03,18.03s-6.94,5.39-9.01,4.87c-.75-.18-3.38-.92-6.54-1.9-5.5-1.72-12.61-4.18-14.18-5.83-2.47-2.6-.87-4.58-.87-4.58-1.02-2.25.99-2.74.99-2.74,0,0-2.81-3.3,1.03-4.39,2.52-.72,9.31-1.1,13.69-1.27Z"/>
      <path class="st8" d="M619.38,267.38c3.13.37,12.48,1.53,14.26,2.31,2.17.95.12,4.69.12,4.69,1.43,1.71.12,2.44.12,2.44,0,0,.46,1.16,0,2.87-.28,1.04-6.43,3.62-12.36,5.61-3.75,1.26-7.41,2.3-9.45,2.55-5.19.66-8.9-7.32-9.01-7.56h0s1.85-14.26,1.85-14.26l13.81-2.98.36-.03.3,4.36Z"/>
      <path class="st7" d="M654.71,199.7c-.68-.78-1.4-1.5-2.13-2.16h0c-1.08-.99-2.17-1.85-3.2-2.56h0c-2.74-1.94-4.95-2.92-4.95-2.92l12.31-14.5s.87.31,2.34.85c1.73,12.41-4.37,21.29-4.37,21.29Z"/>
      <polygon class="st5" points="651.9 235.29 651.9 236.67 632.99 236.67 632.99 235.77 637.97 206.28 646.34 205.96 651.9 235.29"/>
      <path class="st16" d="M649.38,194.98h0s-3.04,10.98-3.04,10.98l-8.36.32-4.98-11.8c2.17-1.34,4.32-2.41,5.71-2.41h5.72s2.22.98,4.95,2.91Z"/>
      <path class="st7" d="M638.7,192.07c-1.38,0-3.54,1.07-5.71,2.41-1.67,1.03-3.34,2.24-4.65,3.22-1.52,1.15-2.56,2.01-2.56,2.01-6.54-12.2-3.6-18.32-3.6-18.32,1.78-.63,2.84-1.01,2.84-1.01l-.1.97,13.77,10.72Z"/>
      <path class="st13" d="M697.38,259.47c-5.18.2-10.35.73-15.51,1.27-1.57-10.17-3.36-20.3-5.39-30.39-.58-2.91-1.19-5.81-1.81-8.71-.12-.55-.96-.32-.85.23,2.18,10.18,4.13,20.41,5.85,30.68.46,2.76.9,5.52,1.33,8.28-1.45.15-2.9.3-4.35.45-.01,0-.02,0-.04.01-.22,0-.44.14-.44.42.18,8.75.35,17.51.53,26.26.01.56.89.57.88,0-.17-8.62-.35-17.24-.52-25.86,6.76-.67,13.53-1.51,20.31-1.76.56-.02.57-.9,0-.88Z"/>
      <path class="st13" d="M682.14,263.05c-.93,8.34-1.76,16.68-2.48,25.04-.05.56.83.56.88,0,.72-8.36,1.55-16.7,2.48-25.04.06-.56-.81-.56-.88,0Z"/>
      <path class="st4" d="M605.87,262.62c-.05-.08-.13-.15-.27-.17-1.93-.29-3.86-.58-5.79-.87,2.08-9.97,3.87-20,5.37-30.07.42-2.82.82-5.65,1.19-8.48.07-.56-.8-.55-.88,0-1.33,10.05-2.96,20.06-4.86,30.01-.54,2.81-1.1,5.61-1.68,8.4-4.73-.71-9.46-1.42-14.19-2.13-.55-.08-.79.76-.23.85,6.9,1.04,13.81,2.07,20.71,3.11-1.42,8.26-2.75,16.54-3.99,24.84-.08.55.76.79.85.23,1.26-8.42,2.61-16.83,4.05-25.23.04-.24-.1-.42-.28-.5Z"/>
      <path class="st4" d="M600.2,263.72l-.51,24.31c-.01.56.86.56.88,0l.51-24.31c.01-.56-.86-.56-.88,0Z"/>
      <path class="st4" d="M632.42,272.34c-4.74-.11-9.47-.38-14.2-.79-.56-.05-.56.83,0,.88,4.72.41,9.46.68,14.2.79.56.01.56-.86,0-.88Z"/>
      <path class="st4" d="M632.43,276.93l-13.77.61c-.56.02-.57.9,0,.88l13.77-.61c.56-.02.56-.9,0-.88Z"/>
      <path class="st4" d="M663.19,273c-4.87-.03-9.75-.05-14.62-.08-.56,0-.56.87,0,.88,4.87.03,9.75.05,14.62.08.56,0,.56-.87,0-.88Z"/>
      <path class="st4" d="M663.5,277.14c-5.22-.44-10.44-.89-15.66-1.33-.56-.05-.56.83,0,.88,5.22.44,10.44.89,15.66,1.33.56.05.56-.83,0-.88Z"/>
      <path class="st4" d="M631.63,280.33c-4.08,1.01-8.17,2.01-12.25,3.02-.55.13-.32.98.23.85,4.08-1.01,8.17-2.01,12.25-3.02.55-.13.32-.98-.23-.85Z"/>
      <path class="st4" d="M665.57,283.7c-4.37-.57-8.73-1.13-13.1-1.7-.56-.07-.55.8,0,.88,4.37.57,8.73,1.13,13.1,1.7.56.07.55-.81,0-.88Z"/>
      <path class="st4" d="M637.11,191.99c-3.28,1.35-6.38,3.08-9.24,5.18-.45.33-.01,1.09.44.76,2.79-2.05,5.82-3.77,9.03-5.09.51-.21.29-1.06-.23-.85Z"/>
      <path class="st4" d="M653.77,198.44c-2.29-2.6-5.13-4.7-8.29-6.11-.51-.23-.96.53-.44.76,3.1,1.39,5.87,3.42,8.11,5.97.37.42.99-.2.62-.62Z"/>
    </g>
    <g>
      <path class="st8" d="M652.23,159.4l.03.11-3.31.82c-2.14,6.97-8.25,12.69-15.44,13.95-2.61.46-5.32.29-7.87-.42-4.48-1.24-8.5-4.13-10.77-8.19-2.87-5.15-2.84-11.41-2.05-17.25.74-5.44,2.06-10.85,2.03-16.33,10.49,3.02,32.02-.69,32.02-.69l1.95,14.6c.27-1.24.82-2.46,1.76-3.32.93-.87,2.3-1.32,3.52-.97.57.17,1.06.47,1.47.89.7.68,1.19,1.62,1.52,2.55,1.77,5.11-.34,11.29-4.87,14.26Z"/>
      <path class="st0" d="M627,145.27v11.58s-7.53.89-7.31-.91c.21-1.8,7.31-10.67,7.31-10.67Z"/>
      <path class="st8" d="M652.25,159.52l-3.31.82s-2,18.71-23.87,19.39l-.05.64-.1.97,13.77,10.72h5.72l12.31-14.5-4.48-18.05Z"/>
      <path class="st13" d="M614.84,132.1c-1.12-.32-2.12-.72-2.95-1.21-8.59-5.06-11.33-11.03-8.28-16.82,0,0,2.13,2.25,6.46,3.29,0,0,.97-6.82,3.29-7.67,0,0,2.44,5.72,5.48,7.19,0,0,1.16-5.49,2.68-5.97,0,0,.74,8.35,7.8,7.07s28.39-5.37,25.47,8.16c0,0,13.29.53.79,16.46-.41-.41-.9-.72-1.47-.89-1.23-.35-2.6.11-3.52.97-.94.86-1.49,2.08-1.76,3.32l-1.96-14.6s-21.53,3.71-32.02.69Z"/>
      <path class="st13" d="M633.51,174.29c7.19-1.26,13.3-6.98,15.44-13.95,0,0-2,18.71-23.87,19.39l.56-5.87c2.55.71,5.26.88,7.87.42Z"/>
      <path class="st7" d="M652.31,124.53c-.68-3.14-3.3-5.47-6.46-5.88-.24-.03-.44.22-.44.44,0,.26.2.41.44.44,2.79.37,5.03,2.52,5.62,5.24.12.55.96.32.85-.23Z"/>
      <path class="st7" d="M617.12,129.35c-3.53-.55-6.75-2.37-9.04-5.12-.36-.43-.98.19-.62.62,2.37,2.84,5.77,4.77,9.43,5.34.55.09.79-.76.23-.85Z"/>
      <path class="st7" d="M625.21,130.45c-1.98.1-3.96-.08-5.9-.53-.55-.13-.78.72-.23.85,2.01.47,4.07.67,6.13.57.56-.03.56-.9,0-.88Z"/>
      <path class="st9" d="M620.97,144.71c.02,1.45-.96,2.63-2.19,2.65-1.23.02-2.24-1.14-2.26-2.59-.02-1.45.96-2.63,2.19-2.65,1.23-.02,2.24,1.14,2.26,2.59Z"/>
      <path class="st9" d="M638.85,146.1c.02,1.45-.96,2.63-2.19,2.65-1.23.02-2.24-1.14-2.26-2.59-.02-1.45.96-2.63,2.19-2.65,1.23-.02,2.24,1.14,2.26,2.59Z"/>
      <path class="st9" d="M632.73,164.13c0,1.46-1,2.65-2.22,2.65s-2.22-1.19-2.22-2.65,1-2.65,2.22-2.65,2.22,1.19,2.22,2.65Z"/>
      <path class="st9" d="M619.93,136.68c-1.57.05-3.13.52-4.44,1.39-.29.19-.51.45-.6.79-.09.31-.05.73.13,1.01.37.57,1.19.88,1.8.47.33-.22.67-.4,1.03-.57.5-.2,1.02-.34,1.55-.42.18-.02.35-.04.53-.04.69-.02,1.35-.59,1.32-1.32-.03-.69-.58-1.34-1.32-1.31Z"/>
      <path class="st9" d="M640.1,138.2c-1.62-.77-3.37-1.19-5.17-1.17-.69,0-1.35.6-1.32,1.32.03.7.58,1.33,1.32,1.31.44,0,.87.02,1.3.07.45.07.9.16,1.33.29.24.07.47.15.7.23.1.04.5.23.14.05.12.06.25.11.37.17.32.15.66.23,1.01.13.3-.08.64-.32.79-.6.31-.59.19-1.48-.47-1.8Z"/>
    </g>
  </g>
  <g>
    <g>
      <rect class="st5" x="368.43" y="317.87" width="119.65" height="24.01" rx="12" ry="12"/>
      <rect class="st5" x="378" y="213.03" width="97.31" height="94.62" rx="12" ry="12"/>
      <rect class="st15" x="378.95" y="341.88" width="101.11" height="7.44"/>
      <rect class="st15" x="384.62" y="349.32" width="5.98" height="110.08"/>
      <rect class="st15" x="468.94" y="349.21" width="5.98" height="110.08"/>
    </g>
    <g>
      <path class="st4" d="M362.48,392.33c4.55,0,4.14,8.88,4.09,9.86-.64-.19-1.32-.29-2.01-.29,0,0,.24-7.62-1.94-7.62s-1.58,7.62-1.58,7.62c-.8,0-1.58.13-2.3.39h0s-1.08-9.96,3.73-9.96Z"/>
      <path class="st4" d="M366.57,402.19c2.6.75,4.61,2.93,5.07,5.71l7.22,43.66c.73,4.37-2.65,8.35-7.08,8.35h-9.29v-58h2.08c.69,0,1.37.1,2.01.29Z"/>
      <path class="st13" d="M362.48,401.9v58h-5.84c-4.24,0-7.57-3.67-7.14-7.9l4.4-43.65c.29-2.87,2.24-5.2,4.84-6.07.72-.25,1.5-.39,2.3-.39h1.44Z"/>
    </g>
    <g>
      <g>
        <path class="st13" d="M474.28,311.98c.18,13.58-7.9,32.06-8.13,32.58h0c-11.14-5.94-21.21-8.11-29.71-8.33-.29,0-.57,0-.85,0-17.32-.18-28.01,7.69-28.01,7.69,0,0-6.86-8.78-12.83-25.35-5.85-16.24,2.28-27.13,2.62-27.58,1.24,1.53,71.55.82,71.55.82,0,0,5.16,6.4,5.36,20.17Z"/>
        <path class="st4" d="M476.58,444.36s0,.02,0,.04c0-.03,0-.04,0-.04Z"/>
        <path class="st4" d="M461.34,448.3c.25.93.38,1.43.38,1.43,0,0-.31,1.88-.72,4.65-.04-3.38.34-6.08.34-6.08Z"/>
        <path class="st4" d="M436.44,336.23c-.16,1.21-.34,3.2-.32,5.93h-.02c-.04-3.29-.38-5.3-.51-5.94.28,0,.56,0,.85,0Z"/>
        <path class="st4" d="M410.88,449.47s.38,2.69.34,6.08c-.41-2.77-.72-4.65-.72-4.65,0,0,.13-.5.38-1.43Z"/>
        <path class="st4" d="M395.64,445.53s0,.02,0,.04c0-.03,0-.04,0-.04Z"/>
        <path class="st8" d="M436.1,342.15c.07,4.37-.36,11.01-2.45,19.79-3.68,15.53-20.06,77.33-22.77,87.53-.25.93-.38,1.43-.38,1.43,0,0,.31,1.88.72,4.65-.04,6.01-1.39,14.16-8.4,13.26-10.69-1.37-7.37-22.17-7.2-23.23,0-.03,0-.04,0-.04,0,0,1.58-93.83,11.94-101.63,0,0,10.69-7.87,28.01-7.69.13.64.46,2.65.51,5.94Z"/>
        <path class="st8" d="M476.59,444.4c.18,1.06,3.49,21.87-7.2,23.23-7.01.89-8.36-7.26-8.4-13.26.41-2.77.72-4.65.72-4.65,0,0-.13-.5-.38-1.43-2.71-10.2-19.09-72-22.78-87.53-1.9-8.01-2.42-14.26-2.45-18.61-.02-2.73.17-4.72.32-5.93,8.5.22,18.57,2.38,29.71,8.34,9,15.26,10.43,99.8,10.43,99.8,0,0,0,.02,0,.04Z"/>
        <path class="st13" d="M476.59,444.4c.27,1.11,5.58,22.96,5.11,28.84-.49,6.03-20.17,4.98-22.18,3.46-1.46-1.1.37-14.9,1.47-22.33.04,6.01,1.39,14.16,8.4,13.26,10.69-1.37,7.37-22.17,7.2-23.23Z"/>
        <path class="st13" d="M411.23,455.55c1.1,7.43,2.94,21.23,1.47,22.33-2.02,1.52-21.69,2.57-22.18-3.46-.48-5.87,4.84-27.72,5.11-28.84-.18,1.06-3.49,21.87,7.2,23.23,7.01.89,8.36-7.26,8.4-13.26Z"/>
        <path class="st9" d="M426.31,352.38c-2.16,2.47-4.77,4.49-7.71,5.97-.5.25-.06,1.01.44.76,2.99-1.5,5.68-3.58,7.88-6.1.37-.42-.25-1.05-.62-.62Z"/>
        <path class="st9" d="M454.51,355.81c-2.92-.6-5.74-1.59-8.39-2.94-.5-.26-.95.5-.44.76,2.72,1.39,5.61,2.41,8.6,3.03.55.11.79-.73.23-.85Z"/>
      </g>
      <g>
        <polygon class="st6" points="467.96 301.98 467.55 306.37 403.37 306.37 402.97 301.95 467.55 301.95 467.96 301.98"/>
        <polygon class="st12" points="471.93 259.9 468.92 291.8 467.96 301.98 467.55 301.95 402.97 301.95 402.39 295.59 399.14 259.9 412.3 259.9 416.45 259.9 448.86 259.9 469.09 259.9 471.93 259.9"/>
        <path class="st3" d="M473.34,225.52c-1.5,15.9-4.25,34.38-4.25,34.38h-69.94l3.24,35.69-.65.06c-1.68-1.55-3.13-3.15-4.37-4.67-3.86-4.82-5.54-8.98-5.54-8.98,0,0-9.02-77.91-6.34-83.03,1.76-3.36,14.85-7.7,23.65-10.28-.98,1.56-2.95,5.66-2.89,13.66l7.79,4.95-6.9,8.37s1.29,3.69,3.98,9.14c3.69,7.46,10,18.23,19.23,27.29,14.1-19.48,18.02-34.69,18.02-34.69l-1.59-8.28,8.05-3.17s-2.13-9.67-4.63-15.28c8.14,3.31,21.08,9.06,23.28,12.73,1.29,2.16.85,11.58-.14,22.12Z"/>
        <path class="st10" d="M454.83,205.96l-8.05,3.17,1.59,8.28s-3.92,15.21-18.02,34.69l9.98-45.05s3.49-5.97,3.2-19.01c0,0,2.79,1.03,6.67,2.62h0c2.5,5.62,4.63,15.29,4.63,15.29Z"/>
        <path class="st7" d="M443.53,188.04c.29,13.04-3.2,19.01-3.2,19.01-1.46-6.58-6.22-10.85-6.22-10.85l9.42-8.16Z"/>
        <path class="st7" d="M440.33,207.05l-9.98,45.05-10.74-44.2,7.9-9.63,2.95,13.4,3.66-15.48s4.75,4.27,6.22,10.85Z"/>
        <path class="st10" d="M419.62,207.91l10.74,44.2c-15.95-15.68-23.21-36.44-23.21-36.44l6.9-8.37-7.79-4.95c-.05-8,1.91-12.1,2.89-13.66,4.6-1.35,8.03-2.23,8.03-2.23-2.44,7.7,2.44,21.45,2.44,21.45Z"/>
        <path class="st7" d="M417.18,186.46l10.34,11.83-7.9,9.63s-4.87-13.76-2.44-21.45Z"/>
        <path class="st5" d="M425.99,199.28c-2.75,1.5-5.03,3.82-6.47,6.6-.26.5.5.94.76.44,1.38-2.66,3.52-4.85,6.15-6.29.5-.27.05-1.03-.44-.76Z"/>
        <path class="st5" d="M440.39,205.78c-1.2-3.24-3.12-6.17-5.65-8.52-.41-.38-1.03.23-.62.62,2.41,2.25,4.28,5.04,5.42,8.14.19.52,1.04.3.85-.23Z"/>
        <path class="st5" d="M430.64,212.38c0-.56-.88-.57-.88,0,.04,4.58.08,9.15.12,13.73,0,.56.88.57.88,0-.04-4.58-.08-9.15-.12-13.73Z"/>
        <path class="st5" d="M433.46,215.59c-.12-.21-.32-.36-.54-.43-.19-.06-.42-.05-.6.02-.22.08-.42.22-.54.43-.12.21-.15.48-.06.71.03.07.06.14.1.2,0,.03.01.05.02.08.02.06.05.12.08.18.08.11.17.21.3.27.13.06.26.1.41.1.25,0,.51-.11.69-.29.32-.33.38-.86.15-1.26Z"/>
        <path class="st5" d="M433.61,222.56c-.02-.09-.05-.19-.1-.27,0,0,0,0,0,0-.04-.08-.1-.16-.16-.22-.15-.17-.38-.26-.6-.26-.1,0-.21.01-.3.05-.14.05-.23.11-.35.2-.08.06-.14.15-.2.23-.02.03-.03.05-.05.08-.03.06-.06.13-.07.19-.05.23-.02.48.11.68.08.12.16.19.27.28.08.06.17.1.26.13.09.03.19.05.29.05.05,0,.1,0,.15-.01.05,0,.1-.01.15-.03.13-.05.23-.1.34-.2.03-.03.06-.07.09-.1.03-.04.06-.08.08-.12.04-.09.08-.18.1-.27.02-.15.02-.25,0-.4Z"/>
        <path class="st13" d="M452.48,227.58l-2.32,24.57c-.22,2.32-.44,4.64-.66,6.96-.05.56.82.56.88,0l2.32-24.57c.22-2.32.44-4.64.66-6.96.05-.56-.82-.56-.88,0Z"/>
        <path class="st13" d="M408.08,234.92c.03-2.29.08-4.58.15-6.87.02-.56-.86-.56-.88,0-.23,8.03-.26,16.06-.07,24.09.05,2.29.13,4.58.21,6.86.02.56.9.57.88,0-.31-8.02-.41-16.06-.29-24.08Z"/>
      </g>
      <g>
        <path class="st8" d="M443.3,177.22l.24,10.83-9.42,8.16-3.66,15.48-2.95-13.4-10.34-11.83.48-1.53c22.08.09,25.49-14.34,25.49-14.34l.14,6.63h0Z"/>
        <path class="st13" d="M489.81,207.55c-.39-2.23-1.59-4.32-3.23-5.87-.82-.78-1.77-1.43-2.8-1.91-1.11-.51-2.26-.72-3.45-.99-1.33-.3-2.42-.86-3.07-2.12-.66-1.26-.73-2.72-.84-4.11-.21-2.53-.91-4.82-2.57-6.79-1.62-1.93-3.87-3.15-6.33-3.61-2.81-.53-5.66-.19-8.48.1-3.17.33-6.66.68-9.65-.69-.76-.35-1.47-.81-2.11-1.36-1.32-1.66-2.17-3.69-2.32-5.8-.21.24-.41.49-.59.74-.19.03-.36.16-.36.41,0,.04,0,.07,0,.11-.29.48-.54.99-.71,1.53h0s.24,10.84.24,10.84c0,0,2.79,1.03,6.67,2.62h0c8.14,3.32,21.08,9.07,23.28,12.74,1.29,2.16.85,11.58-.14,22.12,3.21-.05,6.39-1.19,8.89-3.21,1.62-1.31,2.92-2.99,3.84-4.85,2.83-2.37,4.38-6.22,3.74-9.91ZM486.19,206.18c-2.45-3.5-7.68-3.89-10.59-7.04-2.39-2.6-2.71-6.49-4.52-9.52-1.43-2.39-3.83-4.19-6.53-4.89-3.86-1.01-8.04.18-11.89-.88-.87-.24-1.7-.61-2.47-1.07,1.25.4,2.58.58,3.91.62,5.43.16,11.6-2.14,16.62.85,2.04,1.21,3.61,3.2,4.32,5.47.79,2.51.2,5.36,1.61,7.68.63,1.05,1.6,1.71,2.76,2.06,1.19.36,2.43.46,3.59.93,2.12.87,3.9,2.53,4.97,4.55,1.82,3.4,1.2,7.45-1.04,10.34.33-1.06.55-2.15.62-3.26.14-2.03-.19-4.16-1.37-5.84Z"/>
        <path class="st13" d="M437.08,177.06c2.48-1.67,4.54-3.91,6.08-6.48,0,0-3.41,14.43-25.49,14.34l1.96-6.16c1.2.55,2.45.95,3.75,1.2,4.71.9,9.73-.23,13.71-2.9Z"/>
        <path class="st8" d="M454.51,157.72c-.15,1.73-.92,3.36-1.83,4.84-1.04,1.69-2.28,3.28-3.86,4.49-1.34,1.03-2.93,1.77-4.6,1.97-.36.85-.77,1.67-1.24,2.46-1.45,2.43-3.4,4.55-5.75,6.13-3.77,2.53-8.52,3.6-12.97,2.75-1.23-.24-2.41-.61-3.55-1.14-3-1.35-5.59-3.62-7.18-6.5-1.55-2.79-2.16-6.02-2.19-9.21-.02-3.19.52-6.35,1.17-9.46.55-2.64,1.18-5.27,1.8-7.89.32-1.37.66-2.73.97-4.1.35-1.44.7-2.9,1.04-4.34.13.17.29.34.45.5,2.9,2.83,6.84,4.35,10.79,5.27,3.96.92,8.01,1.32,11.94,2.31,1.94.49,3.92,1.17,5.3,2.62,1.31,1.38,1.88,3.27,2.33,5.13,1.37-1.48,3.94-1.74,5.57-.5,1.38,1.06,1.95,2.94,1.81,4.67Z"/>
        <path class="st0" d="M439.13,159.3c2.18,0,3.95,1.77,3.95,3.95s-1.77,3.95-3.95,3.95-3.95-1.77-3.95-3.95,1.77-3.95,3.95-3.95Z"/>
        <path class="st0" d="M426.01,151.63s.45,9.66.29,9.74c-5.62,2.69-9.6-.26-6.57-2.44s6.28-7.3,6.28-7.3Z"/>
        <path class="st13" d="M416.31,137.72c-.34,1.44-.69,2.9-1.04,4.34-1.47-1.2-2.48-2.91-3.09-4.72-.64-1.92-.85-3.96-.89-5.98-.02-.95.11-2.1.96-2.53.71-.36,1.54-.02,2.29.22,3.87,1.24,8.06.02,11.9-1.31,3.83-1.34,7.86-2.82,11.86-2.07,1.88.35,3.65,1.19,5.27,2.21,2.62,1.67,4.93,3.88,6.49,6.56.92,1.59,1.58,3.35,1.87,5.16,2.28.18,4.4,1.48,5.86,3.26,1.51,1.84,2.34,4.17,2.7,6.53.7,4.79-.54,9.79-3.21,13.83-2.27,3.45-5.49,6.16-8.81,8.63-1.33.99-2.74,2.02-3.81,3.27-.7.79-1.03,2.69-1.34,3.68l-.35-7.31c.47-.79.89-1.61,1.24-2.46,1.67-.21,3.26-.95,4.6-1.97,1.58-1.2,2.82-2.8,3.86-4.49.91-1.48,1.68-3.11,1.83-4.84.14-1.73-.43-3.61-1.81-4.67-1.63-1.24-4.21-.99-5.57.5-.45-1.87-1.02-3.76-2.33-5.13-1.38-1.45-3.36-2.13-5.3-2.62-3.93-.99-7.99-1.39-11.94-2.31-3.95-.92-7.89-2.44-10.79-5.27-.16-.16-.32-.32-.45-.5Z"/>
        <path class="st7" d="M455.4,142.99c-.32-.42-1.04,0-.72.42,1.77,2.34,2.87,5.13,3.13,8.05.05.53.88.53.83,0-.27-3.07-1.38-6.01-3.24-8.47Z"/>
        <path class="st7" d="M458.41,154.05c-.2-.05-.48.07-.51.29-.24,1.54-.73,3.02-1.47,4.39-.25.47.46.89.72.42.77-1.43,1.3-2.98,1.55-4.59.03-.22-.06-.45-.29-.51Z"/>
        <path class="st7" d="M413.73,134.4c-.45-1.14-.58-2.38-.35-3.59.04-.22-.06-.45-.29-.51-.2-.06-.47.07-.51.29-.27,1.35-.16,2.75.35,4.03.08.21.28.35.51.29.2-.05.37-.3.29-.51Z"/>
        <path class="st9" d="M420.5,151.47c-.15,1.36-1.2,2.36-2.36,2.24-1.16-.12-1.97-1.33-1.83-2.69.15-1.36,1.2-2.36,2.36-2.24,1.16.12,1.97,1.33,1.83,2.69Z"/>
        <path class="st9" d="M437.14,154.78c-.15,1.36-1.2,2.36-2.36,2.24-1.16-.12-1.97-1.33-1.83-2.69.15-1.36,1.2-2.36,2.36-2.24,1.16.12,1.97,1.33,1.83,2.69Z"/>
        <path class="st9" d="M440.76,150.38c-.11-.33-.3-.54-.57-.74-1.1-.81-2.27-1.51-3.51-2.09-.31-.14-.62-.22-.96-.13-.29.08-.6.3-.74.57-.15.29-.23.64-.13.96.09.29.28.61.57.74,1.24.57,2.41,1.27,3.51,2.09.24.18.68.2.96.13.29-.08.6-.3.74-.57.15-.29.23-.64.13-.96Z"/>
        <path class="st9" d="M421.47,144.81c-.26-.24-.53-.33-.88-.36-1.4-.15-2.81-.05-4.18.26-.64.14-1.07.91-.87,1.53.22.67.85,1.02,1.53.87.27-.06.55-.11.82-.15.9-.11,1.8-.12,2.7-.02.3.03.68-.16.88-.36.22-.22.38-.57.36-.88-.01-.32-.12-.66-.36-.88Z"/>
        <path class="st0" d="M431.37,168.63c-.12-1.24-1.4-1.95-2.58-1.89-1.04.06-2.08.52-2.76,1.31-.2.23-.39.5-.54.79-.18.29-.32.61-.38.96-.04.26-.06.52-.03.77.03.33.12.65.3.94.68,1.13,2.22,1.24,3.36.83,1.19-.43,2.19-1.3,2.61-2.52.14-.4.14-.82.03-1.2Z"/>
        <path class="st9" d="M432.27,166.93c-2.13,2.27-4.97,3.76-8.04,4.26-.53.09-.3.88.22.8,3.2-.52,6.19-2.11,8.41-4.48.37-.39-.22-.98-.59-.59Z"/>
      </g>
    </g>
  </g>
</svg>